<?xml version="1.0" encoding="utf-8" standalone="no"?>
<!DOCTYPE svg PUBLIC "-//W3C//DTD SVG 1.1//EN"
  "http://www.w3.org/Graphics/SVG/1.1/DTD/svg11.dtd">
<!-- Created with matplotlib (https://matplotlib.org/) -->
<svg height="720pt" version="1.1" viewBox="0 0 1008 720" width="1008pt" xmlns="http://www.w3.org/2000/svg" xmlns:xlink="http://www.w3.org/1999/xlink">
 <metadata>
  <rdf:RDF xmlns:cc="http://creativecommons.org/ns#" xmlns:dc="http://purl.org/dc/elements/1.1/" xmlns:rdf="http://www.w3.org/1999/02/22-rdf-syntax-ns#">
   <cc:Work>
    <dc:type rdf:resource="http://purl.org/dc/dcmitype/StillImage"/>
    <dc:date>2022-08-19T10:02:49.165256</dc:date>
    <dc:format>image/svg+xml</dc:format>
    <dc:creator>
     <cc:Agent>
      <dc:title>Matplotlib v3.3.2, https://matplotlib.org/</dc:title>
     </cc:Agent>
    </dc:creator>
   </cc:Work>
  </rdf:RDF>
 </metadata>
 <defs>
  <style type="text/css">*{stroke-linecap:butt;stroke-linejoin:round;}</style>
 </defs>
 <g id="figure_1">
  <g id="patch_1">
   <path d="M 0 720 
L 1008 720 
L 1008 0 
L 0 0 
z
" style="fill:none;"/>
  </g>
  <g id="axes_1">
   <g id="patch_2">
    <path d="M 126 630 
L 907.2 630 
L 907.2 86.4 
L 126 86.4 
z
" style="fill:#ffffff;"/>
   </g>
   <g id="matplotlib.axis_1">
    <g id="xtick_1">
     <g id="line2d_1">
      <defs>
       <path d="M 0 0 
L 0 3.5 
" id="ma8c5e56b3f" style="stroke:#000000;stroke-width:0.8;"/>
      </defs>
      <g>
       <use style="stroke:#000000;stroke-width:0.8;" x="180.019477" xlink:href="#ma8c5e56b3f" y="630"/>
      </g>
     </g>
     <g id="text_1">
      <!-- 2016-05 -->
      <g transform="translate(159.128071 644.598438)scale(0.1 -0.1)">
       <defs>
        <path d="M 19.1875 8.296875 
L 53.609375 8.296875 
L 53.609375 0 
L 7.328125 0 
L 7.328125 8.296875 
Q 12.9375 14.109375 22.625 23.890625 
Q 32.328125 33.6875 34.8125 36.53125 
Q 39.546875 41.84375 41.421875 45.53125 
Q 43.3125 49.21875 43.3125 52.78125 
Q 43.3125 58.59375 39.234375 62.25 
Q 35.15625 65.921875 28.609375 65.921875 
Q 23.96875 65.921875 18.8125 64.3125 
Q 13.671875 62.703125 7.8125 59.421875 
L 7.8125 69.390625 
Q 13.765625 71.78125 18.9375 73 
Q 24.125 74.21875 28.421875 74.21875 
Q 39.75 74.21875 46.484375 68.546875 
Q 53.21875 62.890625 53.21875 53.421875 
Q 53.21875 48.921875 51.53125 44.890625 
Q 49.859375 40.875 45.40625 35.40625 
Q 44.1875 33.984375 37.640625 27.21875 
Q 31.109375 20.453125 19.1875 8.296875 
z
" id="DejaVuSans-50"/>
        <path d="M 31.78125 66.40625 
Q 24.171875 66.40625 20.328125 58.90625 
Q 16.5 51.421875 16.5 36.375 
Q 16.5 21.390625 20.328125 13.890625 
Q 24.171875 6.390625 31.78125 6.390625 
Q 39.453125 6.390625 43.28125 13.890625 
Q 47.125 21.390625 47.125 36.375 
Q 47.125 51.421875 43.28125 58.90625 
Q 39.453125 66.40625 31.78125 66.40625 
z
M 31.78125 74.21875 
Q 44.046875 74.21875 50.515625 64.515625 
Q 56.984375 54.828125 56.984375 36.375 
Q 56.984375 17.96875 50.515625 8.265625 
Q 44.046875 -1.421875 31.78125 -1.421875 
Q 19.53125 -1.421875 13.0625 8.265625 
Q 6.59375 17.96875 6.59375 36.375 
Q 6.59375 54.828125 13.0625 64.515625 
Q 19.53125 74.21875 31.78125 74.21875 
z
" id="DejaVuSans-48"/>
        <path d="M 12.40625 8.296875 
L 28.515625 8.296875 
L 28.515625 63.921875 
L 10.984375 60.40625 
L 10.984375 69.390625 
L 28.421875 72.90625 
L 38.28125 72.90625 
L 38.28125 8.296875 
L 54.390625 8.296875 
L 54.390625 0 
L 12.40625 0 
z
" id="DejaVuSans-49"/>
        <path d="M 33.015625 40.375 
Q 26.375 40.375 22.484375 35.828125 
Q 18.609375 31.296875 18.609375 23.390625 
Q 18.609375 15.53125 22.484375 10.953125 
Q 26.375 6.390625 33.015625 6.390625 
Q 39.65625 6.390625 43.53125 10.953125 
Q 47.40625 15.53125 47.40625 23.390625 
Q 47.40625 31.296875 43.53125 35.828125 
Q 39.65625 40.375 33.015625 40.375 
z
M 52.59375 71.296875 
L 52.59375 62.3125 
Q 48.875 64.0625 45.09375 64.984375 
Q 41.3125 65.921875 37.59375 65.921875 
Q 27.828125 65.921875 22.671875 59.328125 
Q 17.53125 52.734375 16.796875 39.40625 
Q 19.671875 43.65625 24.015625 45.921875 
Q 28.375 48.1875 33.59375 48.1875 
Q 44.578125 48.1875 50.953125 41.515625 
Q 57.328125 34.859375 57.328125 23.390625 
Q 57.328125 12.15625 50.6875 5.359375 
Q 44.046875 -1.421875 33.015625 -1.421875 
Q 20.359375 -1.421875 13.671875 8.265625 
Q 6.984375 17.96875 6.984375 36.375 
Q 6.984375 53.65625 15.1875 63.9375 
Q 23.390625 74.21875 37.203125 74.21875 
Q 40.921875 74.21875 44.703125 73.484375 
Q 48.484375 72.75 52.59375 71.296875 
z
" id="DejaVuSans-54"/>
        <path d="M 4.890625 31.390625 
L 31.203125 31.390625 
L 31.203125 23.390625 
L 4.890625 23.390625 
z
" id="DejaVuSans-45"/>
        <path d="M 10.796875 72.90625 
L 49.515625 72.90625 
L 49.515625 64.59375 
L 19.828125 64.59375 
L 19.828125 46.734375 
Q 21.96875 47.46875 24.109375 47.828125 
Q 26.265625 48.1875 28.421875 48.1875 
Q 40.625 48.1875 47.75 41.5 
Q 54.890625 34.8125 54.890625 23.390625 
Q 54.890625 11.625 47.5625 5.09375 
Q 40.234375 -1.421875 26.90625 -1.421875 
Q 22.3125 -1.421875 17.546875 -0.640625 
Q 12.796875 0.140625 7.71875 1.703125 
L 7.71875 11.625 
Q 12.109375 9.234375 16.796875 8.0625 
Q 21.484375 6.890625 26.703125 6.890625 
Q 35.15625 6.890625 40.078125 11.328125 
Q 45.015625 15.765625 45.015625 23.390625 
Q 45.015625 31 40.078125 35.4375 
Q 35.15625 39.890625 26.703125 39.890625 
Q 22.75 39.890625 18.8125 39.015625 
Q 14.890625 38.140625 10.796875 36.28125 
z
" id="DejaVuSans-53"/>
       </defs>
       <use xlink:href="#DejaVuSans-50"/>
       <use x="63.623047" xlink:href="#DejaVuSans-48"/>
       <use x="127.246094" xlink:href="#DejaVuSans-49"/>
       <use x="190.869141" xlink:href="#DejaVuSans-54"/>
       <use x="254.492188" xlink:href="#DejaVuSans-45"/>
       <use x="290.576172" xlink:href="#DejaVuSans-48"/>
       <use x="354.199219" xlink:href="#DejaVuSans-53"/>
      </g>
     </g>
    </g>
    <g id="xtick_2">
     <g id="line2d_2">
      <g>
       <use style="stroke:#000000;stroke-width:0.8;" x="255.912061" xlink:href="#ma8c5e56b3f" y="630"/>
      </g>
     </g>
     <g id="text_2">
      <!-- 2016-09 -->
      <g transform="translate(235.020654 644.598438)scale(0.1 -0.1)">
       <defs>
        <path d="M 10.984375 1.515625 
L 10.984375 10.5 
Q 14.703125 8.734375 18.5 7.8125 
Q 22.3125 6.890625 25.984375 6.890625 
Q 35.75 6.890625 40.890625 13.453125 
Q 46.046875 20.015625 46.78125 33.40625 
Q 43.953125 29.203125 39.59375 26.953125 
Q 35.25 24.703125 29.984375 24.703125 
Q 19.046875 24.703125 12.671875 31.3125 
Q 6.296875 37.9375 6.296875 49.421875 
Q 6.296875 60.640625 12.9375 67.421875 
Q 19.578125 74.21875 30.609375 74.21875 
Q 43.265625 74.21875 49.921875 64.515625 
Q 56.59375 54.828125 56.59375 36.375 
Q 56.59375 19.140625 48.40625 8.859375 
Q 40.234375 -1.421875 26.421875 -1.421875 
Q 22.703125 -1.421875 18.890625 -0.6875 
Q 15.09375 0.046875 10.984375 1.515625 
z
M 30.609375 32.421875 
Q 37.25 32.421875 41.125 36.953125 
Q 45.015625 41.5 45.015625 49.421875 
Q 45.015625 57.28125 41.125 61.84375 
Q 37.25 66.40625 30.609375 66.40625 
Q 23.96875 66.40625 20.09375 61.84375 
Q 16.21875 57.28125 16.21875 49.421875 
Q 16.21875 41.5 20.09375 36.953125 
Q 23.96875 32.421875 30.609375 32.421875 
z
" id="DejaVuSans-57"/>
       </defs>
       <use xlink:href="#DejaVuSans-50"/>
       <use x="63.623047" xlink:href="#DejaVuSans-48"/>
       <use x="127.246094" xlink:href="#DejaVuSans-49"/>
       <use x="190.869141" xlink:href="#DejaVuSans-54"/>
       <use x="254.492188" xlink:href="#DejaVuSans-45"/>
       <use x="290.576172" xlink:href="#DejaVuSans-48"/>
       <use x="354.199219" xlink:href="#DejaVuSans-57"/>
      </g>
     </g>
    </g>
    <g id="xtick_3">
     <g id="line2d_3">
      <g>
       <use style="stroke:#000000;stroke-width:0.8;" x="331.187631" xlink:href="#ma8c5e56b3f" y="630"/>
      </g>
     </g>
     <g id="text_3">
      <!-- 2017-01 -->
      <g transform="translate(310.296225 644.598438)scale(0.1 -0.1)">
       <defs>
        <path d="M 8.203125 72.90625 
L 55.078125 72.90625 
L 55.078125 68.703125 
L 28.609375 0 
L 18.3125 0 
L 43.21875 64.59375 
L 8.203125 64.59375 
z
" id="DejaVuSans-55"/>
       </defs>
       <use xlink:href="#DejaVuSans-50"/>
       <use x="63.623047" xlink:href="#DejaVuSans-48"/>
       <use x="127.246094" xlink:href="#DejaVuSans-49"/>
       <use x="190.869141" xlink:href="#DejaVuSans-55"/>
       <use x="254.492188" xlink:href="#DejaVuSans-45"/>
       <use x="290.576172" xlink:href="#DejaVuSans-48"/>
       <use x="354.199219" xlink:href="#DejaVuSans-49"/>
      </g>
     </g>
    </g>
    <g id="xtick_4">
     <g id="line2d_4">
      <g>
       <use style="stroke:#000000;stroke-width:0.8;" x="405.229176" xlink:href="#ma8c5e56b3f" y="630"/>
      </g>
     </g>
     <g id="text_4">
      <!-- 2017-05 -->
      <g transform="translate(384.33777 644.598438)scale(0.1 -0.1)">
       <use xlink:href="#DejaVuSans-50"/>
       <use x="63.623047" xlink:href="#DejaVuSans-48"/>
       <use x="127.246094" xlink:href="#DejaVuSans-49"/>
       <use x="190.869141" xlink:href="#DejaVuSans-55"/>
       <use x="254.492188" xlink:href="#DejaVuSans-45"/>
       <use x="290.576172" xlink:href="#DejaVuSans-48"/>
       <use x="354.199219" xlink:href="#DejaVuSans-53"/>
      </g>
     </g>
    </g>
    <g id="xtick_5">
     <g id="line2d_5">
      <g>
       <use style="stroke:#000000;stroke-width:0.8;" x="481.12176" xlink:href="#ma8c5e56b3f" y="630"/>
      </g>
     </g>
     <g id="text_5">
      <!-- 2017-09 -->
      <g transform="translate(460.230353 644.598438)scale(0.1 -0.1)">
       <use xlink:href="#DejaVuSans-50"/>
       <use x="63.623047" xlink:href="#DejaVuSans-48"/>
       <use x="127.246094" xlink:href="#DejaVuSans-49"/>
       <use x="190.869141" xlink:href="#DejaVuSans-55"/>
       <use x="254.492188" xlink:href="#DejaVuSans-45"/>
       <use x="290.576172" xlink:href="#DejaVuSans-48"/>
       <use x="354.199219" xlink:href="#DejaVuSans-57"/>
      </g>
     </g>
    </g>
    <g id="xtick_6">
     <g id="line2d_6">
      <g>
       <use style="stroke:#000000;stroke-width:0.8;" x="556.39733" xlink:href="#ma8c5e56b3f" y="630"/>
      </g>
     </g>
     <g id="text_6">
      <!-- 2018-01 -->
      <g transform="translate(535.505924 644.598438)scale(0.1 -0.1)">
       <defs>
        <path d="M 31.78125 34.625 
Q 24.75 34.625 20.71875 30.859375 
Q 16.703125 27.09375 16.703125 20.515625 
Q 16.703125 13.921875 20.71875 10.15625 
Q 24.75 6.390625 31.78125 6.390625 
Q 38.8125 6.390625 42.859375 10.171875 
Q 46.921875 13.96875 46.921875 20.515625 
Q 46.921875 27.09375 42.890625 30.859375 
Q 38.875 34.625 31.78125 34.625 
z
M 21.921875 38.8125 
Q 15.578125 40.375 12.03125 44.71875 
Q 8.5 49.078125 8.5 55.328125 
Q 8.5 64.0625 14.71875 69.140625 
Q 20.953125 74.21875 31.78125 74.21875 
Q 42.671875 74.21875 48.875 69.140625 
Q 55.078125 64.0625 55.078125 55.328125 
Q 55.078125 49.078125 51.53125 44.71875 
Q 48 40.375 41.703125 38.8125 
Q 48.828125 37.15625 52.796875 32.3125 
Q 56.78125 27.484375 56.78125 20.515625 
Q 56.78125 9.90625 50.3125 4.234375 
Q 43.84375 -1.421875 31.78125 -1.421875 
Q 19.734375 -1.421875 13.25 4.234375 
Q 6.78125 9.90625 6.78125 20.515625 
Q 6.78125 27.484375 10.78125 32.3125 
Q 14.796875 37.15625 21.921875 38.8125 
z
M 18.3125 54.390625 
Q 18.3125 48.734375 21.84375 45.5625 
Q 25.390625 42.390625 31.78125 42.390625 
Q 38.140625 42.390625 41.71875 45.5625 
Q 45.3125 48.734375 45.3125 54.390625 
Q 45.3125 60.0625 41.71875 63.234375 
Q 38.140625 66.40625 31.78125 66.40625 
Q 25.390625 66.40625 21.84375 63.234375 
Q 18.3125 60.0625 18.3125 54.390625 
z
" id="DejaVuSans-56"/>
       </defs>
       <use xlink:href="#DejaVuSans-50"/>
       <use x="63.623047" xlink:href="#DejaVuSans-48"/>
       <use x="127.246094" xlink:href="#DejaVuSans-49"/>
       <use x="190.869141" xlink:href="#DejaVuSans-56"/>
       <use x="254.492188" xlink:href="#DejaVuSans-45"/>
       <use x="290.576172" xlink:href="#DejaVuSans-48"/>
       <use x="354.199219" xlink:href="#DejaVuSans-49"/>
      </g>
     </g>
    </g>
    <g id="xtick_7">
     <g id="line2d_7">
      <g>
       <use style="stroke:#000000;stroke-width:0.8;" x="630.438875" xlink:href="#ma8c5e56b3f" y="630"/>
      </g>
     </g>
     <g id="text_7">
      <!-- 2018-05 -->
      <g transform="translate(609.547469 644.598438)scale(0.1 -0.1)">
       <use xlink:href="#DejaVuSans-50"/>
       <use x="63.623047" xlink:href="#DejaVuSans-48"/>
       <use x="127.246094" xlink:href="#DejaVuSans-49"/>
       <use x="190.869141" xlink:href="#DejaVuSans-56"/>
       <use x="254.492188" xlink:href="#DejaVuSans-45"/>
       <use x="290.576172" xlink:href="#DejaVuSans-48"/>
       <use x="354.199219" xlink:href="#DejaVuSans-53"/>
      </g>
     </g>
    </g>
    <g id="xtick_8">
     <g id="line2d_8">
      <g>
       <use style="stroke:#000000;stroke-width:0.8;" x="706.331459" xlink:href="#ma8c5e56b3f" y="630"/>
      </g>
     </g>
     <g id="text_8">
      <!-- 2018-09 -->
      <g transform="translate(685.440053 644.598438)scale(0.1 -0.1)">
       <use xlink:href="#DejaVuSans-50"/>
       <use x="63.623047" xlink:href="#DejaVuSans-48"/>
       <use x="127.246094" xlink:href="#DejaVuSans-49"/>
       <use x="190.869141" xlink:href="#DejaVuSans-56"/>
       <use x="254.492188" xlink:href="#DejaVuSans-45"/>
       <use x="290.576172" xlink:href="#DejaVuSans-48"/>
       <use x="354.199219" xlink:href="#DejaVuSans-57"/>
      </g>
     </g>
    </g>
    <g id="xtick_9">
     <g id="line2d_9">
      <g>
       <use style="stroke:#000000;stroke-width:0.8;" x="781.607029" xlink:href="#ma8c5e56b3f" y="630"/>
      </g>
     </g>
     <g id="text_9">
      <!-- 2019-01 -->
      <g transform="translate(760.715623 644.598438)scale(0.1 -0.1)">
       <use xlink:href="#DejaVuSans-50"/>
       <use x="63.623047" xlink:href="#DejaVuSans-48"/>
       <use x="127.246094" xlink:href="#DejaVuSans-49"/>
       <use x="190.869141" xlink:href="#DejaVuSans-57"/>
       <use x="254.492188" xlink:href="#DejaVuSans-45"/>
       <use x="290.576172" xlink:href="#DejaVuSans-48"/>
       <use x="354.199219" xlink:href="#DejaVuSans-49"/>
      </g>
     </g>
    </g>
    <g id="xtick_10">
     <g id="line2d_10">
      <g>
       <use style="stroke:#000000;stroke-width:0.8;" x="855.648574" xlink:href="#ma8c5e56b3f" y="630"/>
      </g>
     </g>
     <g id="text_10">
      <!-- 2019-05 -->
      <g transform="translate(834.757168 644.598438)scale(0.1 -0.1)">
       <use xlink:href="#DejaVuSans-50"/>
       <use x="63.623047" xlink:href="#DejaVuSans-48"/>
       <use x="127.246094" xlink:href="#DejaVuSans-49"/>
       <use x="190.869141" xlink:href="#DejaVuSans-57"/>
       <use x="254.492188" xlink:href="#DejaVuSans-45"/>
       <use x="290.576172" xlink:href="#DejaVuSans-48"/>
       <use x="354.199219" xlink:href="#DejaVuSans-53"/>
      </g>
     </g>
    </g>
   </g>
   <g id="matplotlib.axis_2">
    <g id="ytick_1">
     <g id="line2d_11">
      <defs>
       <path d="M 0 0 
L -3.5 0 
" id="mc70a704e9f" style="stroke:#000000;stroke-width:0.8;"/>
      </defs>
      <g>
       <use style="stroke:#000000;stroke-width:0.8;" x="126" xlink:href="#mc70a704e9f" y="605.290909"/>
      </g>
     </g>
     <g id="text_11">
      <!-- 0 -->
      <g transform="translate(112.6375 609.090128)scale(0.1 -0.1)">
       <use xlink:href="#DejaVuSans-48"/>
      </g>
     </g>
    </g>
    <g id="ytick_2">
     <g id="line2d_12">
      <g>
       <use style="stroke:#000000;stroke-width:0.8;" x="126" xlink:href="#mc70a704e9f" y="516.24914"/>
      </g>
     </g>
     <g id="text_12">
      <!-- 100 -->
      <g transform="translate(99.9125 520.048359)scale(0.1 -0.1)">
       <use xlink:href="#DejaVuSans-49"/>
       <use x="63.623047" xlink:href="#DejaVuSans-48"/>
       <use x="127.246094" xlink:href="#DejaVuSans-48"/>
      </g>
     </g>
    </g>
    <g id="ytick_3">
     <g id="line2d_13">
      <g>
       <use style="stroke:#000000;stroke-width:0.8;" x="126" xlink:href="#mc70a704e9f" y="427.207371"/>
      </g>
     </g>
     <g id="text_13">
      <!-- 200 -->
      <g transform="translate(99.9125 431.00659)scale(0.1 -0.1)">
       <use xlink:href="#DejaVuSans-50"/>
       <use x="63.623047" xlink:href="#DejaVuSans-48"/>
       <use x="127.246094" xlink:href="#DejaVuSans-48"/>
      </g>
     </g>
    </g>
    <g id="ytick_4">
     <g id="line2d_14">
      <g>
       <use style="stroke:#000000;stroke-width:0.8;" x="126" xlink:href="#mc70a704e9f" y="338.165602"/>
      </g>
     </g>
     <g id="text_14">
      <!-- 300 -->
      <g transform="translate(99.9125 341.964821)scale(0.1 -0.1)">
       <defs>
        <path d="M 40.578125 39.3125 
Q 47.65625 37.796875 51.625 33 
Q 55.609375 28.21875 55.609375 21.1875 
Q 55.609375 10.40625 48.1875 4.484375 
Q 40.765625 -1.421875 27.09375 -1.421875 
Q 22.515625 -1.421875 17.65625 -0.515625 
Q 12.796875 0.390625 7.625 2.203125 
L 7.625 11.71875 
Q 11.71875 9.328125 16.59375 8.109375 
Q 21.484375 6.890625 26.8125 6.890625 
Q 36.078125 6.890625 40.9375 10.546875 
Q 45.796875 14.203125 45.796875 21.1875 
Q 45.796875 27.640625 41.28125 31.265625 
Q 36.765625 34.90625 28.71875 34.90625 
L 20.21875 34.90625 
L 20.21875 43.015625 
L 29.109375 43.015625 
Q 36.375 43.015625 40.234375 45.921875 
Q 44.09375 48.828125 44.09375 54.296875 
Q 44.09375 59.90625 40.109375 62.90625 
Q 36.140625 65.921875 28.71875 65.921875 
Q 24.65625 65.921875 20.015625 65.03125 
Q 15.375 64.15625 9.8125 62.3125 
L 9.8125 71.09375 
Q 15.4375 72.65625 20.34375 73.4375 
Q 25.25 74.21875 29.59375 74.21875 
Q 40.828125 74.21875 47.359375 69.109375 
Q 53.90625 64.015625 53.90625 55.328125 
Q 53.90625 49.265625 50.4375 45.09375 
Q 46.96875 40.921875 40.578125 39.3125 
z
" id="DejaVuSans-51"/>
       </defs>
       <use xlink:href="#DejaVuSans-51"/>
       <use x="63.623047" xlink:href="#DejaVuSans-48"/>
       <use x="127.246094" xlink:href="#DejaVuSans-48"/>
      </g>
     </g>
    </g>
    <g id="ytick_5">
     <g id="line2d_15">
      <g>
       <use style="stroke:#000000;stroke-width:0.8;" x="126" xlink:href="#mc70a704e9f" y="249.123833"/>
      </g>
     </g>
     <g id="text_15">
      <!-- 400 -->
      <g transform="translate(99.9125 252.923052)scale(0.1 -0.1)">
       <defs>
        <path d="M 37.796875 64.3125 
L 12.890625 25.390625 
L 37.796875 25.390625 
z
M 35.203125 72.90625 
L 47.609375 72.90625 
L 47.609375 25.390625 
L 58.015625 25.390625 
L 58.015625 17.1875 
L 47.609375 17.1875 
L 47.609375 0 
L 37.796875 0 
L 37.796875 17.1875 
L 4.890625 17.1875 
L 4.890625 26.703125 
z
" id="DejaVuSans-52"/>
       </defs>
       <use xlink:href="#DejaVuSans-52"/>
       <use x="63.623047" xlink:href="#DejaVuSans-48"/>
       <use x="127.246094" xlink:href="#DejaVuSans-48"/>
      </g>
     </g>
    </g>
    <g id="ytick_6">
     <g id="line2d_16">
      <g>
       <use style="stroke:#000000;stroke-width:0.8;" x="126" xlink:href="#mc70a704e9f" y="160.082064"/>
      </g>
     </g>
     <g id="text_16">
      <!-- 500 -->
      <g transform="translate(99.9125 163.881283)scale(0.1 -0.1)">
       <use xlink:href="#DejaVuSans-53"/>
       <use x="63.623047" xlink:href="#DejaVuSans-48"/>
       <use x="127.246094" xlink:href="#DejaVuSans-48"/>
      </g>
     </g>
    </g>
   </g>
   <g id="line2d_17">
    <path clip-path="url(#p4fdea9bb33)" d="M 161.509091 601.729238 
L 162.126104 542.961671 
L 162.743117 605.290909 
L 171.99831 605.290909 
L 172.615323 522.482064 
L 173.232336 605.290909 
L 179.402464 605.290909 
L 180.019477 575.016708 
L 180.63649 605.290909 
L 181.253503 605.290909 
L 181.870516 582.140049 
L 182.487529 605.290909 
L 183.104542 605.290909 
L 183.721554 488.646192 
L 184.338567 605.290909 
L 186.806619 605.290909 
L 187.423632 578.578378 
L 188.040644 605.290909 
L 188.657657 605.290909 
L 189.27467 461.043243 
L 189.891683 549.194595 
L 190.508696 605.290909 
L 191.125709 585.70172 
L 191.742722 605.290909 
L 192.359735 575.907125 
L 192.976747 605.290909 
L 197.295838 605.290909 
L 197.91285 522.482064 
L 198.529863 605.290909 
L 199.146876 605.290909 
L 199.763889 584.811302 
L 200.380902 468.166585 
L 200.997915 380.015233 
L 201.614928 548.304177 
L 202.231941 384.467322 
L 202.848953 395.152334 
L 203.465966 605.290909 
L 205.934018 605.290909 
L 206.551031 494.879115 
L 207.168044 605.290909 
L 207.785056 550.97543 
L 208.402069 605.290909 
L 210.253108 605.290909 
L 210.870121 542.961671 
L 211.487134 506.454545 
L 212.104147 605.290909 
L 212.721159 583.920885 
L 213.338172 605.290909 
L 214.572198 605.290909 
L 215.189211 477.961179 
L 215.806224 605.290909 
L 217.04025 605.290909 
L 217.657262 525.153317 
L 218.274275 605.290909 
L 218.891288 585.70172 
L 219.508301 555.427518 
L 220.125314 554.537101 
L 220.742327 345.288943 
L 221.35934 561.660442 
L 221.976353 454.810319 
L 222.593365 537.619165 
L 223.210378 605.290909 
L 223.827391 365.76855 
L 224.444404 605.290909 
L 225.061417 470.837838 
L 225.67843 432.549877 
L 226.295443 605.290909 
L 229.99752 605.290909 
L 230.614533 484.194103 
L 231.231546 605.290909 
L 236.167649 605.290909 
L 236.784662 194.808354 
L 237.401674 222.411302 
L 238.018687 380.015233 
L 238.6357 320.357248 
L 239.252713 426.316953 
L 239.869726 475.289926 
L 240.486739 605.290909 
L 242.337777 605.290909 
L 242.95479 559.879607 
L 243.571803 605.290909 
L 246.656868 605.290909 
L 247.27388 534.057494 
L 247.890893 605.290909 
L 250.358945 605.290909 
L 250.975958 574.12629 
L 251.592971 605.290909 
L 254.061022 605.290909 
L 254.678035 535.838329 
L 255.295048 487.755774 
L 255.912061 412.960688 
L 256.529074 396.042752 
L 257.146086 605.290909 
L 258.997125 605.290909 
L 259.614138 535.838329 
L 260.231151 501.112039 
L 260.848164 605.290909 
L 261.465177 605.290909 
L 262.082189 597.27715 
L 262.699202 605.290909 
L 263.316215 605.290909 
L 263.933228 542.071253 
L 264.550241 577.687961 
L 265.167254 605.290909 
L 267.635305 605.290909 
L 268.252318 527.82457 
L 268.869331 574.12629 
L 269.486344 605.290909 
L 270.72037 605.290909 
L 271.337383 525.153317 
L 271.954395 605.290909 
L 272.571408 605.290909 
L 273.188421 583.920885 
L 273.805434 520.701229 
L 274.422447 605.290909 
L 276.273486 605.290909 
L 276.890498 595.496314 
L 277.507511 605.290909 
L 287.99673 605.290909 
L 288.613743 532.276658 
L 289.230756 605.290909 
L 292.932833 605.290909 
L 293.549846 351.521867 
L 294.166859 605.290909 
L 294.783872 575.907125 
L 295.400885 605.290909 
L 301.571013 605.290909 
L 302.188026 603.510074 
L 302.805039 605.290909 
L 306.507116 605.290909 
L 307.124129 583.030467 
L 307.741142 605.290909 
L 312.060232 605.290909 
L 312.677245 575.016708 
L 313.294258 605.290909 
L 350.31503 605.290909 
L 350.932043 588.372973 
L 351.549056 605.290909 
L 352.783082 605.290909 
L 353.400095 581.249631 
L 354.017108 605.290909 
L 366.974378 605.290909 
L 367.591391 366.658968 
L 368.208404 512.687469 
L 368.825417 605.290909 
L 371.910481 605.290909 
L 372.527494 550.97543 
L 373.144507 605.290909 
L 383.016713 605.290909 
L 383.633726 580.359214 
L 384.250738 605.290909 
L 386.101777 605.290909 
L 386.71879 427.207371 
L 387.335803 605.290909 
L 387.952816 353.302703 
L 388.569829 501.112039 
L 389.186841 605.290909 
L 389.803854 605.290909 
L 390.420867 576.797543 
L 391.03788 593.715479 
L 391.654893 605.290909 
L 392.271906 511.797052 
L 392.888919 605.290909 
L 395.973983 605.290909 
L 396.590996 543.852088 
L 397.208009 605.290909 
L 401.527099 605.290909 
L 402.144112 573.235872 
L 402.761125 605.290909 
L 404.612163 605.290909 
L 405.229176 331.04226 
L 405.846189 605.290909 
L 406.463202 360.426044 
L 407.080215 444.125307 
L 407.697228 605.290909 
L 408.314241 509.125799 
L 408.931253 605.290909 
L 409.548266 605.290909 
L 410.165279 477.961179 
L 410.782292 543.852088 
L 411.399305 580.359214 
L 412.016318 481.52285 
L 412.633331 605.290909 
L 417.569434 605.290909 
L 418.186447 591.934644 
L 418.803459 448.577396 
L 419.420472 605.290909 
L 423.12255 605.290909 
L 423.739562 506.454545 
L 424.356575 231.315479 
L 425.590601 605.290909 
L 426.207614 605.290909 
L 426.824627 398.714005 
L 427.44164 605.290909 
L 428.058653 441.454054 
L 429.292678 605.290909 
L 429.909691 501.112039 
L 430.526704 605.290909 
L 431.143717 524.262899 
L 431.76073 403.166093 
L 432.377743 605.290909 
L 436.07982 605.290909 
L 436.696833 570.564619 
L 437.313846 605.290909 
L 441.632936 605.290909 
L 442.249949 542.071253 
L 442.866962 605.290909 
L 443.483974 605.290909 
L 444.100987 586.592138 
L 444.718 521.591646 
L 445.335013 312.343489 
L 445.952026 605.290909 
L 450.271116 605.290909 
L 450.888129 489.536609 
L 451.505142 583.920885 
L 452.122155 544.742506 
L 452.739168 483.303686 
L 453.35618 435.22113 
L 453.973193 457.481572 
L 454.590206 605.290909 
L 461.377348 605.290909 
L 461.994361 285.630958 
L 462.611374 358.645209 
L 463.845399 605.290909 
L 464.462412 428.097789 
L 465.079425 605.290909 
L 465.696438 513.577887 
L 466.313451 515.358722 
L 466.930464 605.290909 
L 467.547477 605.290909 
L 468.164489 469.94742 
L 468.781502 605.290909 
L 469.398515 605.290909 
L 470.015528 483.303686 
L 470.632541 571.455037 
L 471.249554 526.043735 
L 471.866567 550.97543 
L 472.483579 586.592138 
L 473.100592 603.510074 
L 473.717605 605.290909 
L 475.568644 605.290909 
L 476.185657 512.687469 
L 476.80267 605.290909 
L 477.419682 562.55086 
L 478.036695 605.290909 
L 478.653708 605.290909 
L 479.270721 448.577396 
L 479.887734 605.290909 
L 480.504747 605.290909 
L 481.12176 498.440786 
L 481.738773 558.989189 
L 482.355785 505.564128 
L 482.972798 605.290909 
L 486.057863 605.290909 
L 486.674876 599.948403 
L 487.291888 605.290909 
L 487.908901 605.290909 
L 488.525914 410.289435 
L 489.142927 605.290909 
L 489.75994 597.27715 
L 490.376953 545.632924 
L 490.993966 605.290909 
L 491.610979 544.742506 
L 492.227991 605.290909 
L 492.845004 605.290909 
L 493.462017 601.729238 
L 494.07903 605.290909 
L 494.696043 535.838329 
L 495.313056 605.290909 
L 495.930069 605.290909 
L 496.547082 592.825061 
L 497.164094 605.290909 
L 497.781107 605.290909 
L 498.39812 565.222113 
L 499.015133 605.290909 
L 499.632146 459.262408 
L 500.249159 605.290909 
L 500.866172 586.592138 
L 501.483185 551.865848 
L 502.100197 376.453563 
L 502.71721 605.290909 
L 503.951236 605.290909 
L 504.568249 420.084029 
L 505.185262 583.030467 
L 505.802275 605.290909 
L 508.270326 605.290909 
L 508.887339 510.016216 
L 509.504352 605.290909 
L 516.908506 605.290909 
L 517.525519 502.002457 
L 518.142532 605.290909 
L 518.759545 388.91941 
L 519.376558 592.825061 
L 519.993571 466.385749 
L 520.610584 605.290909 
L 592.184077 605.290909 
L 592.80109 419.193612 
L 593.418103 605.290909 
L 594.652129 605.290909 
L 595.269141 519.810811 
L 595.886154 605.290909 
L 596.503167 543.852088 
L 597.12018 605.290909 
L 599.588232 605.290909 
L 600.205244 548.304177 
L 600.822257 605.290909 
L 601.43927 564.331695 
L 602.056283 605.290909 
L 611.311476 605.290909 
L 611.928489 543.852088 
L 612.545502 527.82457 
L 613.162515 605.290909 
L 613.779528 359.535627 
L 614.396541 605.290909 
L 615.013553 518.029975 
L 615.630566 605.290909 
L 616.247579 605.290909 
L 616.864592 550.085012 
L 617.481605 605.290909 
L 618.098618 605.290909 
L 618.715631 437.001966 
L 619.332644 605.290909 
L 621.183682 605.290909 
L 621.800695 453.919902 
L 622.417708 605.290909 
L 623.034721 605.290909 
L 623.651734 544.742506 
L 624.268747 591.934644 
L 624.885759 605.290909 
L 626.736798 605.290909 
L 627.353811 549.194595 
L 627.970824 605.290909 
L 629.20485 605.290909 
L 629.821862 550.97543 
L 630.438875 509.125799 
L 631.055888 605.290909 
L 632.289914 605.290909 
L 632.906927 516.24914 
L 633.52394 472.618673 
L 634.140953 396.93317 
L 634.757965 605.290909 
L 636.609004 605.290909 
L 637.226017 573.235872 
L 637.84303 605.290909 
L 639.077056 605.290909 
L 639.694068 555.427518 
L 640.311081 605.290909 
L 640.928094 465.495332 
L 641.545107 605.290909 
L 642.16212 605.290909 
L 642.779133 508.235381 
L 643.396146 605.290909 
L 648.949262 605.290909 
L 649.566274 323.028501 
L 650.183287 605.290909 
L 650.8003 482.413268 
L 651.417313 201.041278 
L 652.034326 449.467813 
L 652.651339 593.715479 
L 653.268352 605.290909 
L 653.885365 605.290909 
L 654.502377 567.002948 
L 655.11939 605.290909 
L 655.736403 605.290909 
L 656.353416 384.467322 
L 656.970429 331.04226 
L 657.587442 605.290909 
L 660.055493 605.290909 
L 660.672506 359.535627 
L 661.289519 603.510074 
L 661.906532 605.290909 
L 662.523545 605.290909 
L 663.140558 510.906634 
L 663.75757 605.290909 
L 664.374583 404.946929 
L 664.991596 449.467813 
L 665.608609 605.290909 
L 666.225622 516.24914 
L 666.842635 524.262899 
L 667.459648 605.290909 
L 668.076661 579.468796 
L 668.693673 370.220639 
L 669.310686 605.290909 
L 670.544712 605.290909 
L 671.161725 548.304177 
L 671.778738 555.427518 
L 672.395751 605.290909 
L 673.012764 559.879607 
L 673.629776 487.755774 
L 674.246789 557.208354 
L 674.863802 342.61769 
L 675.480815 582.140049 
L 676.097828 448.577396 
L 676.714841 605.290909 
L 677.331854 461.043243 
L 677.948867 601.729238 
L 678.565879 573.235872 
L 679.182892 559.879607 
L 679.799905 605.290909 
L 681.650944 605.290909 
L 682.267957 561.660442 
L 682.88497 605.290909 
L 687.821073 605.290909 
L 688.438085 486.865356 
L 689.055098 605.290909 
L 694.608214 605.290909 
L 695.225227 437.892383 
L 695.84224 605.290909 
L 696.459253 528.714988 
L 697.076266 605.290909 
L 697.693279 605.290909 
L 698.310291 586.592138 
L 698.927304 605.290909 
L 699.544317 453.029484 
L 700.16133 560.770025 
L 700.778343 479.742015 
L 701.395356 601.729238 
L 702.012369 521.591646 
L 702.629382 605.290909 
L 703.246394 589.263391 
L 703.863407 605.290909 
L 705.097433 605.290909 
L 705.714446 477.961179 
L 706.331459 326.590172 
L 706.948472 441.454054 
L 707.565485 323.028501 
L 708.182497 575.016708 
L 708.79951 308.781818 
L 709.416523 443.234889 
L 710.033536 552.756265 
L 710.650549 605.290909 
L 711.884575 605.290909 
L 712.501588 524.262899 
L 713.1186 504.67371 
L 713.735613 605.290909 
L 714.969639 605.290909 
L 715.586652 590.153808 
L 716.203665 605.290909 
L 718.054703 605.290909 
L 718.671716 571.455037 
L 719.288729 525.153317 
L 719.905742 605.290909 
L 720.522755 605.290909 
L 721.139768 558.989189 
L 721.756781 605.290909 
L 724.224832 605.290909 
L 724.841845 523.372482 
L 725.458858 605.290909 
L 726.075871 605.290909 
L 726.692884 399.604423 
L 727.309897 605.290909 
L 728.543922 605.290909 
L 729.160935 435.22113 
L 729.777948 453.029484 
L 730.394961 605.290909 
L 731.628987 605.290909 
L 732.246 554.537101 
L 732.863012 605.290909 
L 733.480025 605.290909 
L 734.097038 554.537101 
L 734.714051 459.262408 
L 735.331064 605.290909 
L 737.799115 605.290909 
L 738.416128 523.372482 
L 739.033141 605.290909 
L 743.352231 605.290909 
L 743.969244 594.605897 
L 744.586257 424.536118 
L 745.20327 605.290909 
L 745.820283 599.948403 
L 746.437296 605.290909 
L 754.458463 605.290909 
L 755.075476 594.605897 
L 755.692489 605.290909 
L 761.862617 605.290909 
L 762.47963 509.125799 
L 763.096643 605.290909 
L 763.713656 528.714988 
L 764.330669 605.290909 
L 781.607029 605.290909 
L 782.224042 501.112039 
L 782.841055 605.290909 
L 783.458068 577.687961 
L 784.075081 605.290909 
L 790.24521 605.290909 
L 790.862223 587.482555 
L 791.479235 605.290909 
L 801.968454 605.290909 
L 802.585467 338.165602 
L 803.20248 605.290909 
L 803.819493 605.290909 
L 804.436506 464.604914 
L 805.053519 605.290909 
L 812.457673 605.290909 
L 813.074686 535.838329 
L 813.691699 561.660442 
L 814.308712 605.290909 
L 814.925725 605.290909 
L 815.542738 572.345455 
L 816.15975 605.290909 
L 816.776763 541.180835 
L 817.393776 605.290909 
L 818.010789 354.19312 
L 818.627802 352.412285 
L 819.244815 453.029484 
L 819.861828 472.618673 
L 820.478841 583.030467 
L 821.095853 605.290909 
L 821.712866 519.810811 
L 822.329879 605.290909 
L 824.180918 605.290909 
L 824.797931 576.797543 
L 825.414944 357.754791 
L 826.031956 605.290909 
L 826.648969 605.290909 
L 827.265982 483.303686 
L 827.882995 605.290909 
L 828.500008 605.290909 
L 829.117021 491.317445 
L 829.734034 435.22113 
L 830.351047 508.235381 
L 830.968059 605.290909 
L 831.585072 605.290909 
L 832.202085 575.016708 
L 832.819098 605.290909 
L 833.436111 445.015725 
L 834.053124 605.290909 
L 834.670137 437.892383 
L 835.28715 605.290909 
L 836.521175 605.290909 
L 837.138188 111.109091 
L 837.755201 280.288452 
L 838.372214 209.055037 
L 838.989227 403.166093 
L 839.60624 555.427518 
L 840.223253 483.303686 
L 840.840265 605.290909 
L 841.457278 482.413268 
L 842.074291 445.015725 
L 842.691304 341.727273 
L 843.308317 605.290909 
L 843.92533 605.290909 
L 844.542343 589.263391 
L 845.159356 605.290909 
L 845.776368 319.46683 
L 846.393381 605.290909 
L 847.010394 605.290909 
L 847.627407 528.714988 
L 848.24442 566.112531 
L 848.861433 445.906143 
L 850.095458 605.290909 
L 850.712471 397.823587 
L 851.329484 311.453071 
L 851.946497 605.290909 
L 853.797536 605.290909 
L 854.414549 588.372973 
L 855.031561 395.152334 
L 855.648574 366.658968 
L 856.265587 523.372482 
L 856.8826 139.602457 
L 857.499613 219.740049 
L 858.116626 441.454054 
L 858.733639 373.78231 
L 859.350652 278.507617 
L 859.967664 379.124816 
L 860.584677 510.906634 
L 861.20169 331.04226 
L 861.818703 605.290909 
L 862.435716 605.290909 
L 863.052729 318.576413 
L 863.669742 536.728747 
L 864.286755 527.82457 
L 864.903767 289.192629 
L 865.52078 605.290909 
L 866.137793 358.645209 
L 866.754806 605.290909 
L 867.371819 600.838821 
L 867.988832 605.290909 
L 868.605845 541.180835 
L 869.222858 605.290909 
L 869.83987 605.290909 
L 870.456883 475.289926 
L 871.073896 462.824079 
L 871.690909 605.290909 
L 871.690909 605.290909 
" style="fill:none;stroke:#add8e6;stroke-linecap:square;stroke-width:1.5;"/>
   </g>
   <g id="patch_3">
    <path d="M 126 630 
L 126 86.4 
" style="fill:none;stroke:#000000;stroke-linecap:square;stroke-linejoin:miter;stroke-width:0.8;"/>
   </g>
   <g id="patch_4">
    <path d="M 907.2 630 
L 907.2 86.4 
" style="fill:none;stroke:#000000;stroke-linecap:square;stroke-linejoin:miter;stroke-width:0.8;"/>
   </g>
   <g id="patch_5">
    <path d="M 126 630 
L 907.2 630 
" style="fill:none;stroke:#000000;stroke-linecap:square;stroke-linejoin:miter;stroke-width:0.8;"/>
   </g>
   <g id="patch_6">
    <path d="M 126 86.4 
L 907.2 86.4 
" style="fill:none;stroke:#000000;stroke-linecap:square;stroke-linejoin:miter;stroke-width:0.8;"/>
   </g>
   <g id="text_17">
    <!-- Development of sby_need -->
    <g transform="translate(438.128438 80.4)scale(0.12 -0.12)">
     <defs>
      <path d="M 19.671875 64.796875 
L 19.671875 8.109375 
L 31.59375 8.109375 
Q 46.6875 8.109375 53.6875 14.9375 
Q 60.6875 21.78125 60.6875 36.53125 
Q 60.6875 51.171875 53.6875 57.984375 
Q 46.6875 64.796875 31.59375 64.796875 
z
M 9.8125 72.90625 
L 30.078125 72.90625 
Q 51.265625 72.90625 61.171875 64.09375 
Q 71.09375 55.28125 71.09375 36.53125 
Q 71.09375 17.671875 61.125 8.828125 
Q 51.171875 0 30.078125 0 
L 9.8125 0 
z
" id="DejaVuSans-68"/>
      <path d="M 56.203125 29.59375 
L 56.203125 25.203125 
L 14.890625 25.203125 
Q 15.484375 15.921875 20.484375 11.0625 
Q 25.484375 6.203125 34.421875 6.203125 
Q 39.59375 6.203125 44.453125 7.46875 
Q 49.3125 8.734375 54.109375 11.28125 
L 54.109375 2.78125 
Q 49.265625 0.734375 44.1875 -0.34375 
Q 39.109375 -1.421875 33.890625 -1.421875 
Q 20.796875 -1.421875 13.15625 6.1875 
Q 5.515625 13.8125 5.515625 26.8125 
Q 5.515625 40.234375 12.765625 48.109375 
Q 20.015625 56 32.328125 56 
Q 43.359375 56 49.78125 48.890625 
Q 56.203125 41.796875 56.203125 29.59375 
z
M 47.21875 32.234375 
Q 47.125 39.59375 43.09375 43.984375 
Q 39.0625 48.390625 32.421875 48.390625 
Q 24.90625 48.390625 20.390625 44.140625 
Q 15.875 39.890625 15.1875 32.171875 
z
" id="DejaVuSans-101"/>
      <path d="M 2.984375 54.6875 
L 12.5 54.6875 
L 29.59375 8.796875 
L 46.6875 54.6875 
L 56.203125 54.6875 
L 35.6875 0 
L 23.484375 0 
z
" id="DejaVuSans-118"/>
      <path d="M 9.421875 75.984375 
L 18.40625 75.984375 
L 18.40625 0 
L 9.421875 0 
z
" id="DejaVuSans-108"/>
      <path d="M 30.609375 48.390625 
Q 23.390625 48.390625 19.1875 42.75 
Q 14.984375 37.109375 14.984375 27.296875 
Q 14.984375 17.484375 19.15625 11.84375 
Q 23.34375 6.203125 30.609375 6.203125 
Q 37.796875 6.203125 41.984375 11.859375 
Q 46.1875 17.53125 46.1875 27.296875 
Q 46.1875 37.015625 41.984375 42.703125 
Q 37.796875 48.390625 30.609375 48.390625 
z
M 30.609375 56 
Q 42.328125 56 49.015625 48.375 
Q 55.71875 40.765625 55.71875 27.296875 
Q 55.71875 13.875 49.015625 6.21875 
Q 42.328125 -1.421875 30.609375 -1.421875 
Q 18.84375 -1.421875 12.171875 6.21875 
Q 5.515625 13.875 5.515625 27.296875 
Q 5.515625 40.765625 12.171875 48.375 
Q 18.84375 56 30.609375 56 
z
" id="DejaVuSans-111"/>
      <path d="M 18.109375 8.203125 
L 18.109375 -20.796875 
L 9.078125 -20.796875 
L 9.078125 54.6875 
L 18.109375 54.6875 
L 18.109375 46.390625 
Q 20.953125 51.265625 25.265625 53.625 
Q 29.59375 56 35.59375 56 
Q 45.5625 56 51.78125 48.09375 
Q 58.015625 40.1875 58.015625 27.296875 
Q 58.015625 14.40625 51.78125 6.484375 
Q 45.5625 -1.421875 35.59375 -1.421875 
Q 29.59375 -1.421875 25.265625 0.953125 
Q 20.953125 3.328125 18.109375 8.203125 
z
M 48.6875 27.296875 
Q 48.6875 37.203125 44.609375 42.84375 
Q 40.53125 48.484375 33.40625 48.484375 
Q 26.265625 48.484375 22.1875 42.84375 
Q 18.109375 37.203125 18.109375 27.296875 
Q 18.109375 17.390625 22.1875 11.75 
Q 26.265625 6.109375 33.40625 6.109375 
Q 40.53125 6.109375 44.609375 11.75 
Q 48.6875 17.390625 48.6875 27.296875 
z
" id="DejaVuSans-112"/>
      <path d="M 52 44.1875 
Q 55.375 50.25 60.0625 53.125 
Q 64.75 56 71.09375 56 
Q 79.640625 56 84.28125 50.015625 
Q 88.921875 44.046875 88.921875 33.015625 
L 88.921875 0 
L 79.890625 0 
L 79.890625 32.71875 
Q 79.890625 40.578125 77.09375 44.375 
Q 74.3125 48.1875 68.609375 48.1875 
Q 61.625 48.1875 57.5625 43.546875 
Q 53.515625 38.921875 53.515625 30.90625 
L 53.515625 0 
L 44.484375 0 
L 44.484375 32.71875 
Q 44.484375 40.625 41.703125 44.40625 
Q 38.921875 48.1875 33.109375 48.1875 
Q 26.21875 48.1875 22.15625 43.53125 
Q 18.109375 38.875 18.109375 30.90625 
L 18.109375 0 
L 9.078125 0 
L 9.078125 54.6875 
L 18.109375 54.6875 
L 18.109375 46.1875 
Q 21.1875 51.21875 25.484375 53.609375 
Q 29.78125 56 35.6875 56 
Q 41.65625 56 45.828125 52.96875 
Q 50 49.953125 52 44.1875 
z
" id="DejaVuSans-109"/>
      <path d="M 54.890625 33.015625 
L 54.890625 0 
L 45.90625 0 
L 45.90625 32.71875 
Q 45.90625 40.484375 42.875 44.328125 
Q 39.84375 48.1875 33.796875 48.1875 
Q 26.515625 48.1875 22.3125 43.546875 
Q 18.109375 38.921875 18.109375 30.90625 
L 18.109375 0 
L 9.078125 0 
L 9.078125 54.6875 
L 18.109375 54.6875 
L 18.109375 46.1875 
Q 21.34375 51.125 25.703125 53.5625 
Q 30.078125 56 35.796875 56 
Q 45.21875 56 50.046875 50.171875 
Q 54.890625 44.34375 54.890625 33.015625 
z
" id="DejaVuSans-110"/>
      <path d="M 18.3125 70.21875 
L 18.3125 54.6875 
L 36.8125 54.6875 
L 36.8125 47.703125 
L 18.3125 47.703125 
L 18.3125 18.015625 
Q 18.3125 11.328125 20.140625 9.421875 
Q 21.96875 7.515625 27.59375 7.515625 
L 36.8125 7.515625 
L 36.8125 0 
L 27.59375 0 
Q 17.1875 0 13.234375 3.875 
Q 9.28125 7.765625 9.28125 18.015625 
L 9.28125 47.703125 
L 2.6875 47.703125 
L 2.6875 54.6875 
L 9.28125 54.6875 
L 9.28125 70.21875 
z
" id="DejaVuSans-116"/>
      <path id="DejaVuSans-32"/>
      <path d="M 37.109375 75.984375 
L 37.109375 68.5 
L 28.515625 68.5 
Q 23.6875 68.5 21.796875 66.546875 
Q 19.921875 64.59375 19.921875 59.515625 
L 19.921875 54.6875 
L 34.71875 54.6875 
L 34.71875 47.703125 
L 19.921875 47.703125 
L 19.921875 0 
L 10.890625 0 
L 10.890625 47.703125 
L 2.296875 47.703125 
L 2.296875 54.6875 
L 10.890625 54.6875 
L 10.890625 58.5 
Q 10.890625 67.625 15.140625 71.796875 
Q 19.390625 75.984375 28.609375 75.984375 
z
" id="DejaVuSans-102"/>
      <path d="M 44.28125 53.078125 
L 44.28125 44.578125 
Q 40.484375 46.53125 36.375 47.5 
Q 32.28125 48.484375 27.875 48.484375 
Q 21.1875 48.484375 17.84375 46.4375 
Q 14.5 44.390625 14.5 40.28125 
Q 14.5 37.15625 16.890625 35.375 
Q 19.28125 33.59375 26.515625 31.984375 
L 29.59375 31.296875 
Q 39.15625 29.25 43.1875 25.515625 
Q 47.21875 21.78125 47.21875 15.09375 
Q 47.21875 7.46875 41.1875 3.015625 
Q 35.15625 -1.421875 24.609375 -1.421875 
Q 20.21875 -1.421875 15.453125 -0.5625 
Q 10.6875 0.296875 5.421875 2 
L 5.421875 11.28125 
Q 10.40625 8.6875 15.234375 7.390625 
Q 20.0625 6.109375 24.8125 6.109375 
Q 31.15625 6.109375 34.5625 8.28125 
Q 37.984375 10.453125 37.984375 14.40625 
Q 37.984375 18.0625 35.515625 20.015625 
Q 33.0625 21.96875 24.703125 23.78125 
L 21.578125 24.515625 
Q 13.234375 26.265625 9.515625 29.90625 
Q 5.8125 33.546875 5.8125 39.890625 
Q 5.8125 47.609375 11.28125 51.796875 
Q 16.75 56 26.8125 56 
Q 31.78125 56 36.171875 55.265625 
Q 40.578125 54.546875 44.28125 53.078125 
z
" id="DejaVuSans-115"/>
      <path d="M 48.6875 27.296875 
Q 48.6875 37.203125 44.609375 42.84375 
Q 40.53125 48.484375 33.40625 48.484375 
Q 26.265625 48.484375 22.1875 42.84375 
Q 18.109375 37.203125 18.109375 27.296875 
Q 18.109375 17.390625 22.1875 11.75 
Q 26.265625 6.109375 33.40625 6.109375 
Q 40.53125 6.109375 44.609375 11.75 
Q 48.6875 17.390625 48.6875 27.296875 
z
M 18.109375 46.390625 
Q 20.953125 51.265625 25.265625 53.625 
Q 29.59375 56 35.59375 56 
Q 45.5625 56 51.78125 48.09375 
Q 58.015625 40.1875 58.015625 27.296875 
Q 58.015625 14.40625 51.78125 6.484375 
Q 45.5625 -1.421875 35.59375 -1.421875 
Q 29.59375 -1.421875 25.265625 0.953125 
Q 20.953125 3.328125 18.109375 8.203125 
L 18.109375 0 
L 9.078125 0 
L 9.078125 75.984375 
L 18.109375 75.984375 
z
" id="DejaVuSans-98"/>
      <path d="M 32.171875 -5.078125 
Q 28.375 -14.84375 24.75 -17.8125 
Q 21.140625 -20.796875 15.09375 -20.796875 
L 7.90625 -20.796875 
L 7.90625 -13.28125 
L 13.1875 -13.28125 
Q 16.890625 -13.28125 18.9375 -11.515625 
Q 21 -9.765625 23.484375 -3.21875 
L 25.09375 0.875 
L 2.984375 54.6875 
L 12.5 54.6875 
L 29.59375 11.921875 
L 46.6875 54.6875 
L 56.203125 54.6875 
z
" id="DejaVuSans-121"/>
      <path d="M 50.984375 -16.609375 
L 50.984375 -23.578125 
L -0.984375 -23.578125 
L -0.984375 -16.609375 
z
" id="DejaVuSans-95"/>
      <path d="M 45.40625 46.390625 
L 45.40625 75.984375 
L 54.390625 75.984375 
L 54.390625 0 
L 45.40625 0 
L 45.40625 8.203125 
Q 42.578125 3.328125 38.25 0.953125 
Q 33.9375 -1.421875 27.875 -1.421875 
Q 17.96875 -1.421875 11.734375 6.484375 
Q 5.515625 14.40625 5.515625 27.296875 
Q 5.515625 40.1875 11.734375 48.09375 
Q 17.96875 56 27.875 56 
Q 33.9375 56 38.25 53.625 
Q 42.578125 51.265625 45.40625 46.390625 
z
M 14.796875 27.296875 
Q 14.796875 17.390625 18.875 11.75 
Q 22.953125 6.109375 30.078125 6.109375 
Q 37.203125 6.109375 41.296875 11.75 
Q 45.40625 17.390625 45.40625 27.296875 
Q 45.40625 37.203125 41.296875 42.84375 
Q 37.203125 48.484375 30.078125 48.484375 
Q 22.953125 48.484375 18.875 42.84375 
Q 14.796875 37.203125 14.796875 27.296875 
z
" id="DejaVuSans-100"/>
     </defs>
     <use xlink:href="#DejaVuSans-68"/>
     <use x="77.001953" xlink:href="#DejaVuSans-101"/>
     <use x="138.525391" xlink:href="#DejaVuSans-118"/>
     <use x="197.705078" xlink:href="#DejaVuSans-101"/>
     <use x="259.228516" xlink:href="#DejaVuSans-108"/>
     <use x="287.011719" xlink:href="#DejaVuSans-111"/>
     <use x="348.193359" xlink:href="#DejaVuSans-112"/>
     <use x="411.669922" xlink:href="#DejaVuSans-109"/>
     <use x="509.082031" xlink:href="#DejaVuSans-101"/>
     <use x="570.605469" xlink:href="#DejaVuSans-110"/>
     <use x="633.984375" xlink:href="#DejaVuSans-116"/>
     <use x="673.193359" xlink:href="#DejaVuSans-32"/>
     <use x="704.980469" xlink:href="#DejaVuSans-111"/>
     <use x="766.162109" xlink:href="#DejaVuSans-102"/>
     <use x="801.367188" xlink:href="#DejaVuSans-32"/>
     <use x="833.154297" xlink:href="#DejaVuSans-115"/>
     <use x="885.253906" xlink:href="#DejaVuSans-98"/>
     <use x="948.730469" xlink:href="#DejaVuSans-121"/>
     <use x="1007.910156" xlink:href="#DejaVuSans-95"/>
     <use x="1057.910156" xlink:href="#DejaVuSans-110"/>
     <use x="1121.289062" xlink:href="#DejaVuSans-101"/>
     <use x="1182.8125" xlink:href="#DejaVuSans-101"/>
     <use x="1244.335938" xlink:href="#DejaVuSans-100"/>
    </g>
   </g>
  </g>
 </g>
 <defs>
  <clipPath id="p4fdea9bb33">
   <rect height="543.6" width="781.2" x="126" y="86.4"/>
  </clipPath>
 </defs>
</svg>
