<?xml version="1.0" encoding="utf-8" standalone="no"?>
<!DOCTYPE svg PUBLIC "-//W3C//DTD SVG 1.1//EN"
  "http://www.w3.org/Graphics/SVG/1.1/DTD/svg11.dtd">
<!-- Created with matplotlib (https://matplotlib.org/) -->
<svg height="432pt" version="1.1" viewBox="0 0 864 432" width="864pt" xmlns="http://www.w3.org/2000/svg" xmlns:xlink="http://www.w3.org/1999/xlink">
 <metadata>
  <rdf:RDF xmlns:cc="http://creativecommons.org/ns#" xmlns:dc="http://purl.org/dc/elements/1.1/" xmlns:rdf="http://www.w3.org/1999/02/22-rdf-syntax-ns#">
   <cc:Work>
    <dc:type rdf:resource="http://purl.org/dc/dcmitype/StillImage"/>
    <dc:date>2022-08-16T12:20:22.741610</dc:date>
    <dc:format>image/svg+xml</dc:format>
    <dc:creator>
     <cc:Agent>
      <dc:title>Matplotlib v3.3.2, https://matplotlib.org/</dc:title>
     </cc:Agent>
    </dc:creator>
   </cc:Work>
  </rdf:RDF>
 </metadata>
 <defs>
  <style type="text/css">*{stroke-linecap:butt;stroke-linejoin:round;}</style>
 </defs>
 <g id="figure_1">
  <g id="patch_1">
   <path d="M 0 432 
L 864 432 
L 864 0 
L 0 0 
z
" style="fill:none;"/>
  </g>
  <g id="axes_1">
   <g id="patch_2">
    <path d="M 108 378 
L 777.6 378 
L 777.6 51.84 
L 108 51.84 
z
" style="fill:#ffffff;"/>
   </g>
   <g id="matplotlib.axis_1">
    <g id="xtick_1">
     <g id="line2d_1">
      <defs>
       <path d="M 0 0 
L 0 3.5 
" id="mb8ef7363a7" style="stroke:#000000;stroke-width:0.8;"/>
      </defs>
      <g>
       <use style="stroke:#000000;stroke-width:0.8;" x="154.302409" xlink:href="#mb8ef7363a7" y="378"/>
      </g>
     </g>
     <g id="text_1">
      <!-- 2016-05 -->
      <g transform="translate(146.246395 424.984196)rotate(-60)scale(0.1 -0.1)">
       <defs>
        <path d="M 19.1875 8.296875 
L 53.609375 8.296875 
L 53.609375 0 
L 7.328125 0 
L 7.328125 8.296875 
Q 12.9375 14.109375 22.625 23.890625 
Q 32.328125 33.6875 34.8125 36.53125 
Q 39.546875 41.84375 41.421875 45.53125 
Q 43.3125 49.21875 43.3125 52.78125 
Q 43.3125 58.59375 39.234375 62.25 
Q 35.15625 65.921875 28.609375 65.921875 
Q 23.96875 65.921875 18.8125 64.3125 
Q 13.671875 62.703125 7.8125 59.421875 
L 7.8125 69.390625 
Q 13.765625 71.78125 18.9375 73 
Q 24.125 74.21875 28.421875 74.21875 
Q 39.75 74.21875 46.484375 68.546875 
Q 53.21875 62.890625 53.21875 53.421875 
Q 53.21875 48.921875 51.53125 44.890625 
Q 49.859375 40.875 45.40625 35.40625 
Q 44.1875 33.984375 37.640625 27.21875 
Q 31.109375 20.453125 19.1875 8.296875 
z
" id="DejaVuSans-50"/>
        <path d="M 31.78125 66.40625 
Q 24.171875 66.40625 20.328125 58.90625 
Q 16.5 51.421875 16.5 36.375 
Q 16.5 21.390625 20.328125 13.890625 
Q 24.171875 6.390625 31.78125 6.390625 
Q 39.453125 6.390625 43.28125 13.890625 
Q 47.125 21.390625 47.125 36.375 
Q 47.125 51.421875 43.28125 58.90625 
Q 39.453125 66.40625 31.78125 66.40625 
z
M 31.78125 74.21875 
Q 44.046875 74.21875 50.515625 64.515625 
Q 56.984375 54.828125 56.984375 36.375 
Q 56.984375 17.96875 50.515625 8.265625 
Q 44.046875 -1.421875 31.78125 -1.421875 
Q 19.53125 -1.421875 13.0625 8.265625 
Q 6.59375 17.96875 6.59375 36.375 
Q 6.59375 54.828125 13.0625 64.515625 
Q 19.53125 74.21875 31.78125 74.21875 
z
" id="DejaVuSans-48"/>
        <path d="M 12.40625 8.296875 
L 28.515625 8.296875 
L 28.515625 63.921875 
L 10.984375 60.40625 
L 10.984375 69.390625 
L 28.421875 72.90625 
L 38.28125 72.90625 
L 38.28125 8.296875 
L 54.390625 8.296875 
L 54.390625 0 
L 12.40625 0 
z
" id="DejaVuSans-49"/>
        <path d="M 33.015625 40.375 
Q 26.375 40.375 22.484375 35.828125 
Q 18.609375 31.296875 18.609375 23.390625 
Q 18.609375 15.53125 22.484375 10.953125 
Q 26.375 6.390625 33.015625 6.390625 
Q 39.65625 6.390625 43.53125 10.953125 
Q 47.40625 15.53125 47.40625 23.390625 
Q 47.40625 31.296875 43.53125 35.828125 
Q 39.65625 40.375 33.015625 40.375 
z
M 52.59375 71.296875 
L 52.59375 62.3125 
Q 48.875 64.0625 45.09375 64.984375 
Q 41.3125 65.921875 37.59375 65.921875 
Q 27.828125 65.921875 22.671875 59.328125 
Q 17.53125 52.734375 16.796875 39.40625 
Q 19.671875 43.65625 24.015625 45.921875 
Q 28.375 48.1875 33.59375 48.1875 
Q 44.578125 48.1875 50.953125 41.515625 
Q 57.328125 34.859375 57.328125 23.390625 
Q 57.328125 12.15625 50.6875 5.359375 
Q 44.046875 -1.421875 33.015625 -1.421875 
Q 20.359375 -1.421875 13.671875 8.265625 
Q 6.984375 17.96875 6.984375 36.375 
Q 6.984375 53.65625 15.1875 63.9375 
Q 23.390625 74.21875 37.203125 74.21875 
Q 40.921875 74.21875 44.703125 73.484375 
Q 48.484375 72.75 52.59375 71.296875 
z
" id="DejaVuSans-54"/>
        <path d="M 4.890625 31.390625 
L 31.203125 31.390625 
L 31.203125 23.390625 
L 4.890625 23.390625 
z
" id="DejaVuSans-45"/>
        <path d="M 10.796875 72.90625 
L 49.515625 72.90625 
L 49.515625 64.59375 
L 19.828125 64.59375 
L 19.828125 46.734375 
Q 21.96875 47.46875 24.109375 47.828125 
Q 26.265625 48.1875 28.421875 48.1875 
Q 40.625 48.1875 47.75 41.5 
Q 54.890625 34.8125 54.890625 23.390625 
Q 54.890625 11.625 47.5625 5.09375 
Q 40.234375 -1.421875 26.90625 -1.421875 
Q 22.3125 -1.421875 17.546875 -0.640625 
Q 12.796875 0.140625 7.71875 1.703125 
L 7.71875 11.625 
Q 12.109375 9.234375 16.796875 8.0625 
Q 21.484375 6.890625 26.703125 6.890625 
Q 35.15625 6.890625 40.078125 11.328125 
Q 45.015625 15.765625 45.015625 23.390625 
Q 45.015625 31 40.078125 35.4375 
Q 35.15625 39.890625 26.703125 39.890625 
Q 22.75 39.890625 18.8125 39.015625 
Q 14.890625 38.140625 10.796875 36.28125 
z
" id="DejaVuSans-53"/>
       </defs>
       <use xlink:href="#DejaVuSans-50"/>
       <use x="63.623047" xlink:href="#DejaVuSans-48"/>
       <use x="127.246094" xlink:href="#DejaVuSans-49"/>
       <use x="190.869141" xlink:href="#DejaVuSans-54"/>
       <use x="254.492188" xlink:href="#DejaVuSans-45"/>
       <use x="290.576172" xlink:href="#DejaVuSans-48"/>
       <use x="354.199219" xlink:href="#DejaVuSans-53"/>
      </g>
     </g>
    </g>
    <g id="xtick_2">
     <g id="line2d_2">
      <g>
       <use style="stroke:#000000;stroke-width:0.8;" x="219.353195" xlink:href="#mb8ef7363a7" y="378"/>
      </g>
     </g>
     <g id="text_2">
      <!-- 2016-09 -->
      <g transform="translate(211.297181 424.984196)rotate(-60)scale(0.1 -0.1)">
       <defs>
        <path d="M 10.984375 1.515625 
L 10.984375 10.5 
Q 14.703125 8.734375 18.5 7.8125 
Q 22.3125 6.890625 25.984375 6.890625 
Q 35.75 6.890625 40.890625 13.453125 
Q 46.046875 20.015625 46.78125 33.40625 
Q 43.953125 29.203125 39.59375 26.953125 
Q 35.25 24.703125 29.984375 24.703125 
Q 19.046875 24.703125 12.671875 31.3125 
Q 6.296875 37.9375 6.296875 49.421875 
Q 6.296875 60.640625 12.9375 67.421875 
Q 19.578125 74.21875 30.609375 74.21875 
Q 43.265625 74.21875 49.921875 64.515625 
Q 56.59375 54.828125 56.59375 36.375 
Q 56.59375 19.140625 48.40625 8.859375 
Q 40.234375 -1.421875 26.421875 -1.421875 
Q 22.703125 -1.421875 18.890625 -0.6875 
Q 15.09375 0.046875 10.984375 1.515625 
z
M 30.609375 32.421875 
Q 37.25 32.421875 41.125 36.953125 
Q 45.015625 41.5 45.015625 49.421875 
Q 45.015625 57.28125 41.125 61.84375 
Q 37.25 66.40625 30.609375 66.40625 
Q 23.96875 66.40625 20.09375 61.84375 
Q 16.21875 57.28125 16.21875 49.421875 
Q 16.21875 41.5 20.09375 36.953125 
Q 23.96875 32.421875 30.609375 32.421875 
z
" id="DejaVuSans-57"/>
       </defs>
       <use xlink:href="#DejaVuSans-50"/>
       <use x="63.623047" xlink:href="#DejaVuSans-48"/>
       <use x="127.246094" xlink:href="#DejaVuSans-49"/>
       <use x="190.869141" xlink:href="#DejaVuSans-54"/>
       <use x="254.492188" xlink:href="#DejaVuSans-45"/>
       <use x="290.576172" xlink:href="#DejaVuSans-48"/>
       <use x="354.199219" xlink:href="#DejaVuSans-57"/>
      </g>
     </g>
    </g>
    <g id="xtick_3">
     <g id="line2d_3">
      <g>
       <use style="stroke:#000000;stroke-width:0.8;" x="283.875113" xlink:href="#mb8ef7363a7" y="378"/>
      </g>
     </g>
     <g id="text_3">
      <!-- 2017-01 -->
      <g transform="translate(275.819098 424.984196)rotate(-60)scale(0.1 -0.1)">
       <defs>
        <path d="M 8.203125 72.90625 
L 55.078125 72.90625 
L 55.078125 68.703125 
L 28.609375 0 
L 18.3125 0 
L 43.21875 64.59375 
L 8.203125 64.59375 
z
" id="DejaVuSans-55"/>
       </defs>
       <use xlink:href="#DejaVuSans-50"/>
       <use x="63.623047" xlink:href="#DejaVuSans-48"/>
       <use x="127.246094" xlink:href="#DejaVuSans-49"/>
       <use x="190.869141" xlink:href="#DejaVuSans-55"/>
       <use x="254.492188" xlink:href="#DejaVuSans-45"/>
       <use x="290.576172" xlink:href="#DejaVuSans-48"/>
       <use x="354.199219" xlink:href="#DejaVuSans-49"/>
      </g>
     </g>
    </g>
    <g id="xtick_4">
     <g id="line2d_4">
      <g>
       <use style="stroke:#000000;stroke-width:0.8;" x="347.339294" xlink:href="#mb8ef7363a7" y="378"/>
      </g>
     </g>
     <g id="text_4">
      <!-- 2017-05 -->
      <g transform="translate(339.28328 424.984196)rotate(-60)scale(0.1 -0.1)">
       <use xlink:href="#DejaVuSans-50"/>
       <use x="63.623047" xlink:href="#DejaVuSans-48"/>
       <use x="127.246094" xlink:href="#DejaVuSans-49"/>
       <use x="190.869141" xlink:href="#DejaVuSans-55"/>
       <use x="254.492188" xlink:href="#DejaVuSans-45"/>
       <use x="290.576172" xlink:href="#DejaVuSans-48"/>
       <use x="354.199219" xlink:href="#DejaVuSans-53"/>
      </g>
     </g>
    </g>
    <g id="xtick_5">
     <g id="line2d_5">
      <g>
       <use style="stroke:#000000;stroke-width:0.8;" x="412.39008" xlink:href="#mb8ef7363a7" y="378"/>
      </g>
     </g>
     <g id="text_5">
      <!-- 2017-09 -->
      <g transform="translate(404.334065 424.984196)rotate(-60)scale(0.1 -0.1)">
       <use xlink:href="#DejaVuSans-50"/>
       <use x="63.623047" xlink:href="#DejaVuSans-48"/>
       <use x="127.246094" xlink:href="#DejaVuSans-49"/>
       <use x="190.869141" xlink:href="#DejaVuSans-55"/>
       <use x="254.492188" xlink:href="#DejaVuSans-45"/>
       <use x="290.576172" xlink:href="#DejaVuSans-48"/>
       <use x="354.199219" xlink:href="#DejaVuSans-57"/>
      </g>
     </g>
    </g>
    <g id="xtick_6">
     <g id="line2d_6">
      <g>
       <use style="stroke:#000000;stroke-width:0.8;" x="476.911997" xlink:href="#mb8ef7363a7" y="378"/>
      </g>
     </g>
     <g id="text_6">
      <!-- 2018-01 -->
      <g transform="translate(468.855983 424.984196)rotate(-60)scale(0.1 -0.1)">
       <defs>
        <path d="M 31.78125 34.625 
Q 24.75 34.625 20.71875 30.859375 
Q 16.703125 27.09375 16.703125 20.515625 
Q 16.703125 13.921875 20.71875 10.15625 
Q 24.75 6.390625 31.78125 6.390625 
Q 38.8125 6.390625 42.859375 10.171875 
Q 46.921875 13.96875 46.921875 20.515625 
Q 46.921875 27.09375 42.890625 30.859375 
Q 38.875 34.625 31.78125 34.625 
z
M 21.921875 38.8125 
Q 15.578125 40.375 12.03125 44.71875 
Q 8.5 49.078125 8.5 55.328125 
Q 8.5 64.0625 14.71875 69.140625 
Q 20.953125 74.21875 31.78125 74.21875 
Q 42.671875 74.21875 48.875 69.140625 
Q 55.078125 64.0625 55.078125 55.328125 
Q 55.078125 49.078125 51.53125 44.71875 
Q 48 40.375 41.703125 38.8125 
Q 48.828125 37.15625 52.796875 32.3125 
Q 56.78125 27.484375 56.78125 20.515625 
Q 56.78125 9.90625 50.3125 4.234375 
Q 43.84375 -1.421875 31.78125 -1.421875 
Q 19.734375 -1.421875 13.25 4.234375 
Q 6.78125 9.90625 6.78125 20.515625 
Q 6.78125 27.484375 10.78125 32.3125 
Q 14.796875 37.15625 21.921875 38.8125 
z
M 18.3125 54.390625 
Q 18.3125 48.734375 21.84375 45.5625 
Q 25.390625 42.390625 31.78125 42.390625 
Q 38.140625 42.390625 41.71875 45.5625 
Q 45.3125 48.734375 45.3125 54.390625 
Q 45.3125 60.0625 41.71875 63.234375 
Q 38.140625 66.40625 31.78125 66.40625 
Q 25.390625 66.40625 21.84375 63.234375 
Q 18.3125 60.0625 18.3125 54.390625 
z
" id="DejaVuSans-56"/>
       </defs>
       <use xlink:href="#DejaVuSans-50"/>
       <use x="63.623047" xlink:href="#DejaVuSans-48"/>
       <use x="127.246094" xlink:href="#DejaVuSans-49"/>
       <use x="190.869141" xlink:href="#DejaVuSans-56"/>
       <use x="254.492188" xlink:href="#DejaVuSans-45"/>
       <use x="290.576172" xlink:href="#DejaVuSans-48"/>
       <use x="354.199219" xlink:href="#DejaVuSans-49"/>
      </g>
     </g>
    </g>
    <g id="xtick_7">
     <g id="line2d_7">
      <g>
       <use style="stroke:#000000;stroke-width:0.8;" x="540.376179" xlink:href="#mb8ef7363a7" y="378"/>
      </g>
     </g>
     <g id="text_7">
      <!-- 2018-05 -->
      <g transform="translate(532.320165 424.984196)rotate(-60)scale(0.1 -0.1)">
       <use xlink:href="#DejaVuSans-50"/>
       <use x="63.623047" xlink:href="#DejaVuSans-48"/>
       <use x="127.246094" xlink:href="#DejaVuSans-49"/>
       <use x="190.869141" xlink:href="#DejaVuSans-56"/>
       <use x="254.492188" xlink:href="#DejaVuSans-45"/>
       <use x="290.576172" xlink:href="#DejaVuSans-48"/>
       <use x="354.199219" xlink:href="#DejaVuSans-53"/>
      </g>
     </g>
    </g>
    <g id="xtick_8">
     <g id="line2d_8">
      <g>
       <use style="stroke:#000000;stroke-width:0.8;" x="605.426965" xlink:href="#mb8ef7363a7" y="378"/>
      </g>
     </g>
     <g id="text_8">
      <!-- 2018-09 -->
      <g transform="translate(597.37095 424.984196)rotate(-60)scale(0.1 -0.1)">
       <use xlink:href="#DejaVuSans-50"/>
       <use x="63.623047" xlink:href="#DejaVuSans-48"/>
       <use x="127.246094" xlink:href="#DejaVuSans-49"/>
       <use x="190.869141" xlink:href="#DejaVuSans-56"/>
       <use x="254.492188" xlink:href="#DejaVuSans-45"/>
       <use x="290.576172" xlink:href="#DejaVuSans-48"/>
       <use x="354.199219" xlink:href="#DejaVuSans-57"/>
      </g>
     </g>
    </g>
    <g id="xtick_9">
     <g id="line2d_9">
      <g>
       <use style="stroke:#000000;stroke-width:0.8;" x="669.948882" xlink:href="#mb8ef7363a7" y="378"/>
      </g>
     </g>
     <g id="text_9">
      <!-- 2019-01 -->
      <g transform="translate(661.892868 424.984196)rotate(-60)scale(0.1 -0.1)">
       <use xlink:href="#DejaVuSans-50"/>
       <use x="63.623047" xlink:href="#DejaVuSans-48"/>
       <use x="127.246094" xlink:href="#DejaVuSans-49"/>
       <use x="190.869141" xlink:href="#DejaVuSans-57"/>
       <use x="254.492188" xlink:href="#DejaVuSans-45"/>
       <use x="290.576172" xlink:href="#DejaVuSans-48"/>
       <use x="354.199219" xlink:href="#DejaVuSans-49"/>
      </g>
     </g>
    </g>
    <g id="xtick_10">
     <g id="line2d_10">
      <g>
       <use style="stroke:#000000;stroke-width:0.8;" x="733.413064" xlink:href="#mb8ef7363a7" y="378"/>
      </g>
     </g>
     <g id="text_10">
      <!-- 2019-05 -->
      <g transform="translate(725.357049 424.984196)rotate(-60)scale(0.1 -0.1)">
       <use xlink:href="#DejaVuSans-50"/>
       <use x="63.623047" xlink:href="#DejaVuSans-48"/>
       <use x="127.246094" xlink:href="#DejaVuSans-49"/>
       <use x="190.869141" xlink:href="#DejaVuSans-57"/>
       <use x="254.492188" xlink:href="#DejaVuSans-45"/>
       <use x="290.576172" xlink:href="#DejaVuSans-48"/>
       <use x="354.199219" xlink:href="#DejaVuSans-53"/>
      </g>
     </g>
    </g>
    <g id="text_11">
     <!-- Date -->
     <g transform="translate(430.849219 437.622477)scale(0.1 -0.1)">
      <defs>
       <path d="M 19.671875 64.796875 
L 19.671875 8.109375 
L 31.59375 8.109375 
Q 46.6875 8.109375 53.6875 14.9375 
Q 60.6875 21.78125 60.6875 36.53125 
Q 60.6875 51.171875 53.6875 57.984375 
Q 46.6875 64.796875 31.59375 64.796875 
z
M 9.8125 72.90625 
L 30.078125 72.90625 
Q 51.265625 72.90625 61.171875 64.09375 
Q 71.09375 55.28125 71.09375 36.53125 
Q 71.09375 17.671875 61.125 8.828125 
Q 51.171875 0 30.078125 0 
L 9.8125 0 
z
" id="DejaVuSans-68"/>
       <path d="M 34.28125 27.484375 
Q 23.390625 27.484375 19.1875 25 
Q 14.984375 22.515625 14.984375 16.5 
Q 14.984375 11.71875 18.140625 8.90625 
Q 21.296875 6.109375 26.703125 6.109375 
Q 34.1875 6.109375 38.703125 11.40625 
Q 43.21875 16.703125 43.21875 25.484375 
L 43.21875 27.484375 
z
M 52.203125 31.203125 
L 52.203125 0 
L 43.21875 0 
L 43.21875 8.296875 
Q 40.140625 3.328125 35.546875 0.953125 
Q 30.953125 -1.421875 24.3125 -1.421875 
Q 15.921875 -1.421875 10.953125 3.296875 
Q 6 8.015625 6 15.921875 
Q 6 25.140625 12.171875 29.828125 
Q 18.359375 34.515625 30.609375 34.515625 
L 43.21875 34.515625 
L 43.21875 35.40625 
Q 43.21875 41.609375 39.140625 45 
Q 35.0625 48.390625 27.6875 48.390625 
Q 23 48.390625 18.546875 47.265625 
Q 14.109375 46.140625 10.015625 43.890625 
L 10.015625 52.203125 
Q 14.9375 54.109375 19.578125 55.046875 
Q 24.21875 56 28.609375 56 
Q 40.484375 56 46.34375 49.84375 
Q 52.203125 43.703125 52.203125 31.203125 
z
" id="DejaVuSans-97"/>
       <path d="M 18.3125 70.21875 
L 18.3125 54.6875 
L 36.8125 54.6875 
L 36.8125 47.703125 
L 18.3125 47.703125 
L 18.3125 18.015625 
Q 18.3125 11.328125 20.140625 9.421875 
Q 21.96875 7.515625 27.59375 7.515625 
L 36.8125 7.515625 
L 36.8125 0 
L 27.59375 0 
Q 17.1875 0 13.234375 3.875 
Q 9.28125 7.765625 9.28125 18.015625 
L 9.28125 47.703125 
L 2.6875 47.703125 
L 2.6875 54.6875 
L 9.28125 54.6875 
L 9.28125 70.21875 
z
" id="DejaVuSans-116"/>
       <path d="M 56.203125 29.59375 
L 56.203125 25.203125 
L 14.890625 25.203125 
Q 15.484375 15.921875 20.484375 11.0625 
Q 25.484375 6.203125 34.421875 6.203125 
Q 39.59375 6.203125 44.453125 7.46875 
Q 49.3125 8.734375 54.109375 11.28125 
L 54.109375 2.78125 
Q 49.265625 0.734375 44.1875 -0.34375 
Q 39.109375 -1.421875 33.890625 -1.421875 
Q 20.796875 -1.421875 13.15625 6.1875 
Q 5.515625 13.8125 5.515625 26.8125 
Q 5.515625 40.234375 12.765625 48.109375 
Q 20.015625 56 32.328125 56 
Q 43.359375 56 49.78125 48.890625 
Q 56.203125 41.796875 56.203125 29.59375 
z
M 47.21875 32.234375 
Q 47.125 39.59375 43.09375 43.984375 
Q 39.0625 48.390625 32.421875 48.390625 
Q 24.90625 48.390625 20.390625 44.140625 
Q 15.875 39.890625 15.1875 32.171875 
z
" id="DejaVuSans-101"/>
      </defs>
      <use xlink:href="#DejaVuSans-68"/>
      <use x="77.001953" xlink:href="#DejaVuSans-97"/>
      <use x="138.28125" xlink:href="#DejaVuSans-116"/>
      <use x="177.490234" xlink:href="#DejaVuSans-101"/>
     </g>
    </g>
   </g>
   <g id="matplotlib.axis_2">
    <g id="ytick_1">
     <g id="line2d_11">
      <defs>
       <path d="M 0 0 
L -3.5 0 
" id="m44d667c4b0" style="stroke:#000000;stroke-width:0.8;"/>
      </defs>
      <g>
       <use style="stroke:#000000;stroke-width:0.8;" x="108" xlink:href="#m44d667c4b0" y="363.174545"/>
      </g>
     </g>
     <g id="text_12">
      <!-- 0 -->
      <g transform="translate(94.6375 366.973764)scale(0.1 -0.1)">
       <use xlink:href="#DejaVuSans-48"/>
      </g>
     </g>
    </g>
    <g id="ytick_2">
     <g id="line2d_12">
      <g>
       <use style="stroke:#000000;stroke-width:0.8;" x="108" xlink:href="#m44d667c4b0" y="309.749484"/>
      </g>
     </g>
     <g id="text_13">
      <!-- 100 -->
      <g transform="translate(81.9125 313.548703)scale(0.1 -0.1)">
       <use xlink:href="#DejaVuSans-49"/>
       <use x="63.623047" xlink:href="#DejaVuSans-48"/>
       <use x="127.246094" xlink:href="#DejaVuSans-48"/>
      </g>
     </g>
    </g>
    <g id="ytick_3">
     <g id="line2d_13">
      <g>
       <use style="stroke:#000000;stroke-width:0.8;" x="108" xlink:href="#m44d667c4b0" y="256.324423"/>
      </g>
     </g>
     <g id="text_14">
      <!-- 200 -->
      <g transform="translate(81.9125 260.123641)scale(0.1 -0.1)">
       <use xlink:href="#DejaVuSans-50"/>
       <use x="63.623047" xlink:href="#DejaVuSans-48"/>
       <use x="127.246094" xlink:href="#DejaVuSans-48"/>
      </g>
     </g>
    </g>
    <g id="ytick_4">
     <g id="line2d_14">
      <g>
       <use style="stroke:#000000;stroke-width:0.8;" x="108" xlink:href="#m44d667c4b0" y="202.899361"/>
      </g>
     </g>
     <g id="text_15">
      <!-- 300 -->
      <g transform="translate(81.9125 206.69858)scale(0.1 -0.1)">
       <defs>
        <path d="M 40.578125 39.3125 
Q 47.65625 37.796875 51.625 33 
Q 55.609375 28.21875 55.609375 21.1875 
Q 55.609375 10.40625 48.1875 4.484375 
Q 40.765625 -1.421875 27.09375 -1.421875 
Q 22.515625 -1.421875 17.65625 -0.515625 
Q 12.796875 0.390625 7.625 2.203125 
L 7.625 11.71875 
Q 11.71875 9.328125 16.59375 8.109375 
Q 21.484375 6.890625 26.8125 6.890625 
Q 36.078125 6.890625 40.9375 10.546875 
Q 45.796875 14.203125 45.796875 21.1875 
Q 45.796875 27.640625 41.28125 31.265625 
Q 36.765625 34.90625 28.71875 34.90625 
L 20.21875 34.90625 
L 20.21875 43.015625 
L 29.109375 43.015625 
Q 36.375 43.015625 40.234375 45.921875 
Q 44.09375 48.828125 44.09375 54.296875 
Q 44.09375 59.90625 40.109375 62.90625 
Q 36.140625 65.921875 28.71875 65.921875 
Q 24.65625 65.921875 20.015625 65.03125 
Q 15.375 64.15625 9.8125 62.3125 
L 9.8125 71.09375 
Q 15.4375 72.65625 20.34375 73.4375 
Q 25.25 74.21875 29.59375 74.21875 
Q 40.828125 74.21875 47.359375 69.109375 
Q 53.90625 64.015625 53.90625 55.328125 
Q 53.90625 49.265625 50.4375 45.09375 
Q 46.96875 40.921875 40.578125 39.3125 
z
" id="DejaVuSans-51"/>
       </defs>
       <use xlink:href="#DejaVuSans-51"/>
       <use x="63.623047" xlink:href="#DejaVuSans-48"/>
       <use x="127.246094" xlink:href="#DejaVuSans-48"/>
      </g>
     </g>
    </g>
    <g id="ytick_5">
     <g id="line2d_15">
      <g>
       <use style="stroke:#000000;stroke-width:0.8;" x="108" xlink:href="#m44d667c4b0" y="149.4743"/>
      </g>
     </g>
     <g id="text_16">
      <!-- 400 -->
      <g transform="translate(81.9125 153.273519)scale(0.1 -0.1)">
       <defs>
        <path d="M 37.796875 64.3125 
L 12.890625 25.390625 
L 37.796875 25.390625 
z
M 35.203125 72.90625 
L 47.609375 72.90625 
L 47.609375 25.390625 
L 58.015625 25.390625 
L 58.015625 17.1875 
L 47.609375 17.1875 
L 47.609375 0 
L 37.796875 0 
L 37.796875 17.1875 
L 4.890625 17.1875 
L 4.890625 26.703125 
z
" id="DejaVuSans-52"/>
       </defs>
       <use xlink:href="#DejaVuSans-52"/>
       <use x="63.623047" xlink:href="#DejaVuSans-48"/>
       <use x="127.246094" xlink:href="#DejaVuSans-48"/>
      </g>
     </g>
    </g>
    <g id="ytick_6">
     <g id="line2d_16">
      <g>
       <use style="stroke:#000000;stroke-width:0.8;" x="108" xlink:href="#m44d667c4b0" y="96.049238"/>
      </g>
     </g>
     <g id="text_17">
      <!-- 500 -->
      <g transform="translate(81.9125 99.848457)scale(0.1 -0.1)">
       <use xlink:href="#DejaVuSans-53"/>
       <use x="63.623047" xlink:href="#DejaVuSans-48"/>
       <use x="127.246094" xlink:href="#DejaVuSans-48"/>
      </g>
     </g>
    </g>
    <g id="text_18">
     <!-- Standby Drivers needed -->
     <g transform="translate(75.832812 275.510625)rotate(-90)scale(0.1 -0.1)">
      <defs>
       <path d="M 53.515625 70.515625 
L 53.515625 60.890625 
Q 47.90625 63.578125 42.921875 64.890625 
Q 37.9375 66.21875 33.296875 66.21875 
Q 25.25 66.21875 20.875 63.09375 
Q 16.5 59.96875 16.5 54.203125 
Q 16.5 49.359375 19.40625 46.890625 
Q 22.3125 44.4375 30.421875 42.921875 
L 36.375 41.703125 
Q 47.40625 39.59375 52.65625 34.296875 
Q 57.90625 29 57.90625 20.125 
Q 57.90625 9.515625 50.796875 4.046875 
Q 43.703125 -1.421875 29.984375 -1.421875 
Q 24.8125 -1.421875 18.96875 -0.25 
Q 13.140625 0.921875 6.890625 3.21875 
L 6.890625 13.375 
Q 12.890625 10.015625 18.65625 8.296875 
Q 24.421875 6.59375 29.984375 6.59375 
Q 38.421875 6.59375 43.015625 9.90625 
Q 47.609375 13.234375 47.609375 19.390625 
Q 47.609375 24.75 44.3125 27.78125 
Q 41.015625 30.8125 33.5 32.328125 
L 27.484375 33.5 
Q 16.453125 35.6875 11.515625 40.375 
Q 6.59375 45.0625 6.59375 53.421875 
Q 6.59375 63.09375 13.40625 68.65625 
Q 20.21875 74.21875 32.171875 74.21875 
Q 37.3125 74.21875 42.625 73.28125 
Q 47.953125 72.359375 53.515625 70.515625 
z
" id="DejaVuSans-83"/>
       <path d="M 54.890625 33.015625 
L 54.890625 0 
L 45.90625 0 
L 45.90625 32.71875 
Q 45.90625 40.484375 42.875 44.328125 
Q 39.84375 48.1875 33.796875 48.1875 
Q 26.515625 48.1875 22.3125 43.546875 
Q 18.109375 38.921875 18.109375 30.90625 
L 18.109375 0 
L 9.078125 0 
L 9.078125 54.6875 
L 18.109375 54.6875 
L 18.109375 46.1875 
Q 21.34375 51.125 25.703125 53.5625 
Q 30.078125 56 35.796875 56 
Q 45.21875 56 50.046875 50.171875 
Q 54.890625 44.34375 54.890625 33.015625 
z
" id="DejaVuSans-110"/>
       <path d="M 45.40625 46.390625 
L 45.40625 75.984375 
L 54.390625 75.984375 
L 54.390625 0 
L 45.40625 0 
L 45.40625 8.203125 
Q 42.578125 3.328125 38.25 0.953125 
Q 33.9375 -1.421875 27.875 -1.421875 
Q 17.96875 -1.421875 11.734375 6.484375 
Q 5.515625 14.40625 5.515625 27.296875 
Q 5.515625 40.1875 11.734375 48.09375 
Q 17.96875 56 27.875 56 
Q 33.9375 56 38.25 53.625 
Q 42.578125 51.265625 45.40625 46.390625 
z
M 14.796875 27.296875 
Q 14.796875 17.390625 18.875 11.75 
Q 22.953125 6.109375 30.078125 6.109375 
Q 37.203125 6.109375 41.296875 11.75 
Q 45.40625 17.390625 45.40625 27.296875 
Q 45.40625 37.203125 41.296875 42.84375 
Q 37.203125 48.484375 30.078125 48.484375 
Q 22.953125 48.484375 18.875 42.84375 
Q 14.796875 37.203125 14.796875 27.296875 
z
" id="DejaVuSans-100"/>
       <path d="M 48.6875 27.296875 
Q 48.6875 37.203125 44.609375 42.84375 
Q 40.53125 48.484375 33.40625 48.484375 
Q 26.265625 48.484375 22.1875 42.84375 
Q 18.109375 37.203125 18.109375 27.296875 
Q 18.109375 17.390625 22.1875 11.75 
Q 26.265625 6.109375 33.40625 6.109375 
Q 40.53125 6.109375 44.609375 11.75 
Q 48.6875 17.390625 48.6875 27.296875 
z
M 18.109375 46.390625 
Q 20.953125 51.265625 25.265625 53.625 
Q 29.59375 56 35.59375 56 
Q 45.5625 56 51.78125 48.09375 
Q 58.015625 40.1875 58.015625 27.296875 
Q 58.015625 14.40625 51.78125 6.484375 
Q 45.5625 -1.421875 35.59375 -1.421875 
Q 29.59375 -1.421875 25.265625 0.953125 
Q 20.953125 3.328125 18.109375 8.203125 
L 18.109375 0 
L 9.078125 0 
L 9.078125 75.984375 
L 18.109375 75.984375 
z
" id="DejaVuSans-98"/>
       <path d="M 32.171875 -5.078125 
Q 28.375 -14.84375 24.75 -17.8125 
Q 21.140625 -20.796875 15.09375 -20.796875 
L 7.90625 -20.796875 
L 7.90625 -13.28125 
L 13.1875 -13.28125 
Q 16.890625 -13.28125 18.9375 -11.515625 
Q 21 -9.765625 23.484375 -3.21875 
L 25.09375 0.875 
L 2.984375 54.6875 
L 12.5 54.6875 
L 29.59375 11.921875 
L 46.6875 54.6875 
L 56.203125 54.6875 
z
" id="DejaVuSans-121"/>
       <path id="DejaVuSans-32"/>
       <path d="M 41.109375 46.296875 
Q 39.59375 47.171875 37.8125 47.578125 
Q 36.03125 48 33.890625 48 
Q 26.265625 48 22.1875 43.046875 
Q 18.109375 38.09375 18.109375 28.8125 
L 18.109375 0 
L 9.078125 0 
L 9.078125 54.6875 
L 18.109375 54.6875 
L 18.109375 46.1875 
Q 20.953125 51.171875 25.484375 53.578125 
Q 30.03125 56 36.53125 56 
Q 37.453125 56 38.578125 55.875 
Q 39.703125 55.765625 41.0625 55.515625 
z
" id="DejaVuSans-114"/>
       <path d="M 9.421875 54.6875 
L 18.40625 54.6875 
L 18.40625 0 
L 9.421875 0 
z
M 9.421875 75.984375 
L 18.40625 75.984375 
L 18.40625 64.59375 
L 9.421875 64.59375 
z
" id="DejaVuSans-105"/>
       <path d="M 2.984375 54.6875 
L 12.5 54.6875 
L 29.59375 8.796875 
L 46.6875 54.6875 
L 56.203125 54.6875 
L 35.6875 0 
L 23.484375 0 
z
" id="DejaVuSans-118"/>
       <path d="M 44.28125 53.078125 
L 44.28125 44.578125 
Q 40.484375 46.53125 36.375 47.5 
Q 32.28125 48.484375 27.875 48.484375 
Q 21.1875 48.484375 17.84375 46.4375 
Q 14.5 44.390625 14.5 40.28125 
Q 14.5 37.15625 16.890625 35.375 
Q 19.28125 33.59375 26.515625 31.984375 
L 29.59375 31.296875 
Q 39.15625 29.25 43.1875 25.515625 
Q 47.21875 21.78125 47.21875 15.09375 
Q 47.21875 7.46875 41.1875 3.015625 
Q 35.15625 -1.421875 24.609375 -1.421875 
Q 20.21875 -1.421875 15.453125 -0.5625 
Q 10.6875 0.296875 5.421875 2 
L 5.421875 11.28125 
Q 10.40625 8.6875 15.234375 7.390625 
Q 20.0625 6.109375 24.8125 6.109375 
Q 31.15625 6.109375 34.5625 8.28125 
Q 37.984375 10.453125 37.984375 14.40625 
Q 37.984375 18.0625 35.515625 20.015625 
Q 33.0625 21.96875 24.703125 23.78125 
L 21.578125 24.515625 
Q 13.234375 26.265625 9.515625 29.90625 
Q 5.8125 33.546875 5.8125 39.890625 
Q 5.8125 47.609375 11.28125 51.796875 
Q 16.75 56 26.8125 56 
Q 31.78125 56 36.171875 55.265625 
Q 40.578125 54.546875 44.28125 53.078125 
z
" id="DejaVuSans-115"/>
      </defs>
      <use xlink:href="#DejaVuSans-83"/>
      <use x="63.476562" xlink:href="#DejaVuSans-116"/>
      <use x="102.685547" xlink:href="#DejaVuSans-97"/>
      <use x="163.964844" xlink:href="#DejaVuSans-110"/>
      <use x="227.34375" xlink:href="#DejaVuSans-100"/>
      <use x="290.820312" xlink:href="#DejaVuSans-98"/>
      <use x="354.296875" xlink:href="#DejaVuSans-121"/>
      <use x="413.476562" xlink:href="#DejaVuSans-32"/>
      <use x="445.263672" xlink:href="#DejaVuSans-68"/>
      <use x="522.265625" xlink:href="#DejaVuSans-114"/>
      <use x="563.378906" xlink:href="#DejaVuSans-105"/>
      <use x="591.162109" xlink:href="#DejaVuSans-118"/>
      <use x="650.341797" xlink:href="#DejaVuSans-101"/>
      <use x="711.865234" xlink:href="#DejaVuSans-114"/>
      <use x="752.978516" xlink:href="#DejaVuSans-115"/>
      <use x="805.078125" xlink:href="#DejaVuSans-32"/>
      <use x="836.865234" xlink:href="#DejaVuSans-110"/>
      <use x="900.244141" xlink:href="#DejaVuSans-101"/>
      <use x="961.767578" xlink:href="#DejaVuSans-101"/>
      <use x="1023.291016" xlink:href="#DejaVuSans-100"/>
      <use x="1086.767578" xlink:href="#DejaVuSans-101"/>
      <use x="1148.291016" xlink:href="#DejaVuSans-100"/>
     </g>
    </g>
   </g>
   <g id="line2d_17">
    <path clip-path="url(#p73b9f1b386)" d="M 138.436364 361.037543 
L 138.965232 325.777002 
L 139.4941 363.174545 
L 147.427123 363.174545 
L 147.955991 313.489238 
L 148.484859 363.174545 
L 153.773541 363.174545 
L 154.302409 345.010025 
L 154.831277 363.174545 
L 155.360145 363.174545 
L 155.889014 349.284029 
L 156.417882 363.174545 
L 156.94675 363.174545 
L 157.475618 293.187715 
L 158.004486 363.174545 
L 160.119959 363.174545 
L 160.648827 347.147027 
L 161.177695 363.174545 
L 161.706563 363.174545 
L 162.235432 276.625946 
L 162.7643 329.516757 
L 163.293168 363.174545 
L 163.822036 351.421032 
L 164.350904 363.174545 
L 164.879773 345.544275 
L 165.408641 363.174545 
L 169.110718 363.174545 
L 169.639586 313.489238 
L 170.168454 363.174545 
L 170.697322 363.174545 
L 171.226191 350.886781 
L 171.755059 280.899951 
L 172.283927 228.00914 
L 172.812795 328.982506 
L 173.341663 230.680393 
L 173.870532 237.0914 
L 174.3994 363.174545 
L 176.514872 363.174545 
L 177.043741 296.927469 
L 177.572609 363.174545 
L 178.101477 330.585258 
L 178.630345 363.174545 
L 180.21695 363.174545 
L 180.745818 325.777002 
L 181.274686 303.872727 
L 181.803554 363.174545 
L 182.332422 350.352531 
L 182.861291 363.174545 
L 183.919027 363.174545 
L 184.447895 286.776708 
L 184.976763 363.174545 
L 186.0345 363.174545 
L 186.563368 315.09199 
L 187.092236 363.174545 
L 187.621104 351.421032 
L 188.149972 333.256511 
L 188.678841 332.72226 
L 189.207709 207.173366 
L 189.736577 336.996265 
L 190.265445 272.886192 
L 191.323181 363.174545 
L 191.85205 219.46113 
L 192.380918 363.174545 
L 192.909786 282.502703 
L 193.438654 259.529926 
L 193.967522 363.174545 
L 197.140731 363.174545 
L 197.6696 290.516462 
L 198.198468 363.174545 
L 202.429413 363.174545 
L 202.958281 116.885012 
L 203.48715 133.446781 
L 204.016018 228.00914 
L 204.544886 192.214349 
L 205.073754 255.790172 
L 205.602622 285.173956 
L 206.13149 363.174545 
L 207.718095 363.174545 
L 208.246963 335.927764 
L 208.775831 363.174545 
L 211.420172 363.174545 
L 211.94904 320.434496 
L 212.477909 363.174545 
L 214.593381 363.174545 
L 215.122249 344.475774 
L 215.651118 363.174545 
L 217.76659 363.174545 
L 218.295458 321.502998 
L 218.824327 292.653464 
L 219.353195 247.776413 
L 219.882063 237.625651 
L 220.410931 363.174545 
L 221.997536 363.174545 
L 222.526404 321.502998 
L 223.055272 300.667224 
L 223.58414 363.174545 
L 224.113008 363.174545 
L 224.641877 358.36629 
L 225.170745 363.174545 
L 225.699613 363.174545 
L 226.228481 325.242752 
L 226.757349 346.612776 
L 227.286218 363.174545 
L 229.40169 363.174545 
L 229.930558 316.694742 
L 230.459427 344.475774 
L 230.988295 363.174545 
L 232.046031 363.174545 
L 232.574899 315.09199 
L 233.103767 363.174545 
L 233.632636 363.174545 
L 234.161504 350.352531 
L 234.690372 312.420737 
L 235.21924 363.174545 
L 236.805845 363.174545 
L 237.334713 357.297789 
L 237.863581 363.174545 
L 246.85434 363.174545 
L 247.383208 319.365995 
L 247.912076 363.174545 
L 251.085286 363.174545 
L 251.614154 210.91312 
L 252.143022 363.174545 
L 252.67189 345.544275 
L 253.200758 363.174545 
L 258.48944 363.174545 
L 259.018308 362.106044 
L 259.547176 363.174545 
L 262.720385 363.174545 
L 263.249254 349.81828 
L 263.778122 363.174545 
L 267.480199 363.174545 
L 268.009067 345.010025 
L 268.537935 363.174545 
L 300.270026 363.174545 
L 300.798894 353.023784 
L 301.327762 363.174545 
L 302.385499 363.174545 
L 302.914367 348.749779 
L 303.443235 363.174545 
L 314.549467 363.174545 
L 315.078335 219.995381 
L 315.607203 307.612482 
L 316.136071 363.174545 
L 318.780412 363.174545 
L 319.30928 330.585258 
L 319.838149 363.174545 
L 328.300039 363.174545 
L 328.828908 348.215528 
L 329.357776 363.174545 
L 330.94438 363.174545 
L 331.473249 256.324423 
L 332.002117 363.174545 
L 332.530985 211.981622 
L 333.059853 300.667224 
L 333.588721 363.174545 
L 334.117589 363.174545 
L 334.646458 346.078526 
L 335.175326 356.229287 
L 335.704194 363.174545 
L 336.233062 307.078231 
L 336.76193 363.174545 
L 339.406271 363.174545 
L 339.935139 326.311253 
L 340.464008 363.174545 
L 344.166085 363.174545 
L 344.694953 343.941523 
L 345.223821 363.174545 
L 346.810426 363.174545 
L 347.339294 198.625356 
L 347.868162 363.174545 
L 348.39703 216.255627 
L 348.925898 266.475184 
L 349.454767 363.174545 
L 349.983635 305.475479 
L 350.512503 363.174545 
L 351.041371 363.174545 
L 351.570239 286.776708 
L 352.099107 326.311253 
L 352.627976 348.215528 
L 353.156844 288.91371 
L 353.685712 363.174545 
L 357.916657 363.174545 
L 358.445526 355.160786 
L 358.974394 269.146437 
L 359.503262 363.174545 
L 362.676471 363.174545 
L 363.205339 303.872727 
L 363.734207 138.789287 
L 364.791944 363.174545 
L 365.320812 363.174545 
L 365.84968 239.228403 
L 366.378548 363.174545 
L 366.907416 264.872432 
L 367.965153 363.174545 
L 368.494021 300.667224 
L 369.022889 363.174545 
L 369.551757 314.55774 
L 370.080626 241.899656 
L 370.609494 363.174545 
L 373.782703 363.174545 
L 374.311571 342.338771 
L 374.840439 363.174545 
L 378.542516 363.174545 
L 379.071385 325.242752 
L 379.600253 363.174545 
L 380.129121 363.174545 
L 380.657989 351.955283 
L 381.186857 312.954988 
L 381.715725 187.406093 
L 382.244594 363.174545 
L 385.946671 363.174545 
L 386.475539 293.721966 
L 387.004407 350.352531 
L 387.533275 326.845504 
L 388.062144 289.982211 
L 388.591012 261.132678 
L 389.11988 274.488943 
L 389.648748 363.174545 
L 395.466298 363.174545 
L 395.995166 171.378575 
L 396.524034 215.187125 
L 397.581771 363.174545 
L 398.110639 256.858673 
L 398.639507 363.174545 
L 399.168375 308.146732 
L 399.697244 309.215233 
L 400.226112 363.174545 
L 400.75498 363.174545 
L 401.283848 281.968452 
L 401.812716 363.174545 
L 402.341584 363.174545 
L 402.870453 289.982211 
L 403.399321 342.873022 
L 403.928189 315.626241 
L 404.457057 330.585258 
L 404.985925 351.955283 
L 405.514793 362.106044 
L 406.043662 363.174545 
L 407.630266 363.174545 
L 408.159134 307.612482 
L 408.688003 363.174545 
L 409.216871 337.530516 
L 409.745739 363.174545 
L 410.274607 363.174545 
L 410.803475 269.146437 
L 411.332343 363.174545 
L 411.861212 363.174545 
L 412.39008 299.064472 
L 412.918948 335.393514 
L 413.447816 303.338477 
L 413.976684 363.174545 
L 416.621025 363.174545 
L 417.149893 359.969042 
L 417.678762 363.174545 
L 418.20763 363.174545 
L 418.736498 246.173661 
L 419.265366 363.174545 
L 419.794234 358.36629 
L 420.323102 327.379754 
L 420.851971 363.174545 
L 421.380839 326.845504 
L 421.909707 363.174545 
L 422.438575 363.174545 
L 422.967443 361.037543 
L 423.496312 363.174545 
L 424.02518 321.502998 
L 424.554048 363.174545 
L 425.082916 363.174545 
L 425.611784 355.695037 
L 426.140652 363.174545 
L 426.669521 363.174545 
L 427.198389 339.133268 
L 427.727257 363.174545 
L 428.256125 275.557445 
L 428.784993 363.174545 
L 429.313861 351.955283 
L 429.84273 331.119509 
L 430.371598 225.872138 
L 430.900466 363.174545 
L 431.958202 363.174545 
L 432.487071 252.050418 
L 433.015939 349.81828 
L 433.544807 363.174545 
L 435.66028 363.174545 
L 436.189148 306.00973 
L 436.718016 363.174545 
L 443.064434 363.174545 
L 443.593302 301.201474 
L 444.12217 363.174545 
L 444.651039 233.351646 
L 445.179907 355.695037 
L 445.708775 279.83145 
L 446.237643 363.174545 
L 507.586352 363.174545 
L 508.11522 251.516167 
L 508.644088 363.174545 
L 509.701825 363.174545 
L 510.230693 311.886486 
L 510.759561 363.174545 
L 511.288429 326.311253 
L 511.817297 363.174545 
L 513.93277 363.174545 
L 514.461638 328.982506 
L 514.990506 363.174545 
L 515.519374 338.599017 
L 516.048243 363.174545 
L 523.981265 363.174545 
L 524.510133 326.311253 
L 525.039002 316.694742 
L 525.56787 363.174545 
L 526.096738 215.721376 
L 526.625606 363.174545 
L 527.154474 310.817985 
L 527.683343 363.174545 
L 528.212211 363.174545 
L 528.741079 330.051007 
L 529.269947 363.174545 
L 529.798815 363.174545 
L 530.327683 262.201179 
L 530.856552 363.174545 
L 532.443156 363.174545 
L 532.972024 272.351941 
L 533.500893 363.174545 
L 534.029761 363.174545 
L 534.558629 326.845504 
L 535.087497 355.160786 
L 535.616365 363.174545 
L 537.20297 363.174545 
L 537.731838 329.516757 
L 538.260706 363.174545 
L 539.318442 363.174545 
L 539.847311 330.585258 
L 540.376179 305.475479 
L 540.905047 363.174545 
L 541.962783 363.174545 
L 542.491652 309.749484 
L 543.02052 283.571204 
L 543.549388 238.159902 
L 544.078256 363.174545 
L 545.664861 363.174545 
L 546.193729 343.941523 
L 546.722597 363.174545 
L 547.780333 363.174545 
L 548.309201 333.256511 
L 548.83807 363.174545 
L 549.366938 279.297199 
L 549.895806 363.174545 
L 550.424674 363.174545 
L 550.953542 304.941229 
L 551.482411 363.174545 
L 556.242224 363.174545 
L 556.771092 193.817101 
L 557.299961 363.174545 
L 557.828829 289.447961 
L 558.357697 120.624767 
L 558.886565 269.680688 
L 559.415433 356.229287 
L 559.944301 363.174545 
L 560.47317 363.174545 
L 561.002038 340.201769 
L 561.530906 363.174545 
L 562.059774 363.174545 
L 562.588642 230.680393 
L 563.11751 198.625356 
L 563.646379 363.174545 
L 565.761851 363.174545 
L 566.29072 215.721376 
L 566.819588 362.106044 
L 567.348456 363.174545 
L 567.877324 363.174545 
L 568.406192 306.54398 
L 568.93506 363.174545 
L 569.463929 242.968157 
L 569.992797 269.680688 
L 570.521665 363.174545 
L 571.050533 309.749484 
L 571.579401 314.55774 
L 572.108269 363.174545 
L 572.637138 347.681278 
L 573.166006 222.132383 
L 573.694874 363.174545 
L 574.75261 363.174545 
L 575.281479 328.982506 
L 575.810347 333.256511 
L 576.339215 363.174545 
L 576.868083 335.927764 
L 577.396951 292.653464 
L 577.925819 334.325012 
L 578.454688 205.570614 
L 578.983556 349.284029 
L 579.512424 269.146437 
L 580.041292 363.174545 
L 580.57016 276.625946 
L 581.099029 361.037543 
L 581.627897 343.941523 
L 582.156765 335.927764 
L 582.685633 363.174545 
L 584.272238 363.174545 
L 584.801106 336.996265 
L 585.329974 363.174545 
L 589.560919 363.174545 
L 590.089788 292.119214 
L 590.618656 363.174545 
L 595.378469 363.174545 
L 595.907337 262.73543 
L 596.436206 363.174545 
L 596.965074 317.228993 
L 597.493942 363.174545 
L 598.02281 363.174545 
L 598.551678 351.955283 
L 599.080547 363.174545 
L 599.609415 271.81769 
L 600.138283 336.462015 
L 600.667151 287.845209 
L 601.196019 361.037543 
L 601.724887 312.954988 
L 602.253756 363.174545 
L 602.782624 353.558034 
L 603.311492 363.174545 
L 604.369228 363.174545 
L 605.426965 195.954103 
L 605.955833 264.872432 
L 606.484701 193.817101 
L 607.013569 345.010025 
L 607.542437 185.269091 
L 608.600174 331.653759 
L 609.129042 363.174545 
L 610.186778 363.174545 
L 610.715646 314.55774 
L 611.244515 302.804226 
L 611.773383 363.174545 
L 612.831119 363.174545 
L 613.359987 354.092285 
L 613.888856 363.174545 
L 615.47546 363.174545 
L 616.004328 342.873022 
L 616.533196 315.09199 
L 617.062065 363.174545 
L 617.590933 363.174545 
L 618.119801 335.393514 
L 618.648669 363.174545 
L 620.764142 363.174545 
L 621.29301 314.023489 
L 621.821878 363.174545 
L 622.350746 363.174545 
L 622.879615 239.762654 
L 623.408483 363.174545 
L 624.466219 363.174545 
L 624.995087 261.132678 
L 625.523955 271.81769 
L 626.052824 363.174545 
L 627.11056 363.174545 
L 627.639428 332.72226 
L 628.168296 363.174545 
L 628.697165 363.174545 
L 629.226033 332.72226 
L 629.754901 275.557445 
L 630.283769 363.174545 
L 632.399242 363.174545 
L 632.92811 314.023489 
L 633.456978 363.174545 
L 637.159055 363.174545 
L 637.687924 356.763538 
L 638.216792 254.721671 
L 638.74566 363.174545 
L 639.274528 359.969042 
L 639.803396 363.174545 
L 646.678683 363.174545 
L 647.207551 356.763538 
L 647.736419 363.174545 
L 653.025101 363.174545 
L 653.553969 305.475479 
L 654.082837 363.174545 
L 654.611705 317.228993 
L 655.140573 363.174545 
L 669.948882 363.174545 
L 670.477751 300.667224 
L 671.006619 363.174545 
L 671.535487 346.612776 
L 672.064355 363.174545 
L 677.353037 363.174545 
L 677.881905 352.489533 
L 678.410773 363.174545 
L 687.401532 363.174545 
L 687.9304 202.899361 
L 688.459269 363.174545 
L 688.988137 363.174545 
L 689.517005 278.762948 
L 690.045873 363.174545 
L 696.392291 363.174545 
L 696.921159 321.502998 
L 697.450028 336.996265 
L 697.978896 363.174545 
L 698.507764 363.174545 
L 699.036632 343.407273 
L 699.5655 363.174545 
L 700.094369 324.708501 
L 700.623237 363.174545 
L 701.152105 212.515872 
L 701.680973 211.447371 
L 702.209841 271.81769 
L 702.738709 283.571204 
L 703.267578 349.81828 
L 703.796446 363.174545 
L 704.325314 311.886486 
L 704.854182 363.174545 
L 706.440787 363.174545 
L 706.969655 346.078526 
L 707.498523 214.652875 
L 708.027391 363.174545 
L 708.556259 363.174545 
L 709.085128 289.982211 
L 709.613996 363.174545 
L 710.142864 363.174545 
L 710.671732 294.790467 
L 711.2006 261.132678 
L 711.729468 304.941229 
L 712.258337 363.174545 
L 712.787205 363.174545 
L 713.316073 345.010025 
L 713.844941 363.174545 
L 714.373809 267.009435 
L 714.902678 363.174545 
L 715.431546 262.73543 
L 715.960414 363.174545 
L 717.01815 363.174545 
L 717.547018 66.665455 
L 718.075887 168.173071 
L 718.604755 125.433022 
L 719.133623 241.899656 
L 719.662491 333.256511 
L 720.191359 289.982211 
L 720.720227 363.174545 
L 721.249096 289.447961 
L 721.777964 267.009435 
L 722.306832 205.036364 
L 722.8357 363.174545 
L 723.364568 363.174545 
L 723.893437 353.558034 
L 724.422305 363.174545 
L 724.951173 191.680098 
L 725.480041 363.174545 
L 726.008909 363.174545 
L 726.537777 317.228993 
L 727.066646 339.667518 
L 727.595514 267.543686 
L 728.65325 363.174545 
L 729.182118 238.694152 
L 729.710986 186.871843 
L 730.239855 363.174545 
L 731.826459 363.174545 
L 732.355327 353.023784 
L 732.884196 237.0914 
L 733.413064 219.995381 
L 733.941932 314.023489 
L 734.4708 83.761474 
L 734.999668 131.844029 
L 735.528536 264.872432 
L 736.057405 224.269386 
L 736.586273 167.10457 
L 737.115141 227.474889 
L 737.644009 306.54398 
L 738.172877 198.625356 
L 738.701746 363.174545 
L 739.230614 363.174545 
L 739.759482 191.145848 
L 740.28835 322.037248 
L 740.817218 316.694742 
L 741.346086 173.515577 
L 741.874955 363.174545 
L 742.403823 215.187125 
L 742.932691 363.174545 
L 743.461559 360.503292 
L 743.990427 363.174545 
L 744.519295 324.708501 
L 745.048164 363.174545 
L 745.577032 363.174545 
L 746.1059 285.173956 
L 746.634768 277.694447 
L 747.163636 363.174545 
L 747.163636 363.174545 
" style="fill:none;stroke:#1f77b4;stroke-linecap:square;stroke-opacity:0.5;stroke-width:1.5;"/>
   </g>
   <g id="line2d_18">
    <path clip-path="url(#p73b9f1b386)" d="M 626.052824 262.201179 
L 627.639428 293.721966 
L 628.168296 295.858968 
L 628.697165 270.749189 
L 629.226033 270.214939 
L 629.754901 279.297199 
L 630.283769 283.036953 
L 631.870374 303.338477 
L 632.399242 277.160197 
L 632.92811 278.228698 
L 633.456978 283.571204 
L 633.985846 286.776708 
L 634.514714 293.187715 
L 635.572451 309.749484 
L 636.101319 281.968452 
L 636.630187 281.968452 
L 637.159055 291.050713 
L 637.687924 257.927174 
L 638.216792 266.475184 
L 638.74566 281.968452 
L 639.274528 293.721966 
L 639.803396 288.91371 
L 640.332264 291.584963 
L 641.390001 307.078231 
L 641.918869 309.749484 
L 642.447737 314.55774 
L 642.976605 322.571499 
L 643.505474 288.91371 
L 644.034342 286.242457 
L 644.56321 297.46172 
L 645.092078 305.475479 
L 645.620946 310.283735 
L 646.678683 336.462015 
L 647.207551 309.215233 
L 647.736419 306.54398 
L 648.265287 306.00973 
L 648.794155 310.283735 
L 649.851892 324.708501 
L 650.38076 336.996265 
L 650.909628 312.954988 
L 651.438496 312.420737 
L 651.967364 315.09199 
L 652.496233 316.160491 
L 653.025101 315.626241 
L 653.553969 306.00973 
L 654.082837 320.434496 
L 654.611705 293.187715 
L 655.140573 292.653464 
L 655.669442 295.858968 
L 656.727178 307.612482 
L 657.256046 314.55774 
L 657.784914 323.64 
L 658.313782 306.54398 
L 658.842651 304.941229 
L 660.958123 325.777002 
L 661.486992 341.27027 
L 662.01586 318.831744 
L 662.544728 318.831744 
L 663.073596 320.968747 
L 663.602464 316.160491 
L 664.131332 315.09199 
L 664.660201 318.831744 
L 665.189069 343.941523 
L 665.717937 314.023489 
L 666.246805 312.954988 
L 666.775673 317.763243 
L 667.304542 316.160491 
L 667.83341 318.297494 
L 668.362278 322.037248 
L 668.891146 343.407273 
L 669.420014 312.420737 
L 669.948882 291.584963 
L 670.477751 302.804226 
L 671.006619 307.612482 
L 671.535487 307.612482 
L 672.064355 304.406978 
L 672.593223 311.352236 
L 673.122091 297.46172 
L 673.65096 297.995971 
L 674.179828 302.269975 
L 674.708696 304.406978 
L 675.237564 316.694742 
L 676.295301 328.982506 
L 676.824169 321.502998 
L 677.353037 320.434496 
L 677.881905 322.037248 
L 678.410773 324.174251 
L 678.939641 317.763243 
L 679.46851 322.037248 
L 679.997378 335.393514 
L 680.526246 339.133268 
L 681.055114 349.284029 
L 681.583982 349.284029 
L 682.11285 350.352531 
L 682.641719 346.612776 
L 683.699455 341.804521 
L 684.228323 336.462015 
L 684.757191 341.27027 
L 685.28606 343.407273 
L 685.814928 342.338771 
L 686.343796 290.516462 
L 686.872664 291.584963 
L 687.401532 301.201474 
L 687.9304 299.598722 
L 688.459269 303.872727 
L 689.517005 302.804226 
L 690.045873 296.927469 
L 690.574741 300.667224 
L 691.10361 308.680983 
L 691.632478 319.900246 
L 692.161346 321.502998 
L 692.690214 320.968747 
L 693.219082 320.968747 
L 693.74795 320.434496 
L 694.276819 320.434496 
L 694.805687 322.037248 
L 695.334555 313.489238 
L 695.863423 312.420737 
L 696.392291 314.55774 
L 696.921159 309.215233 
L 697.450028 319.365995 
L 697.978896 316.694742 
L 698.507764 339.133268 
L 699.036632 325.777002 
L 699.5655 324.174251 
L 700.094369 297.995971 
L 700.623237 290.516462 
L 701.152105 255.255921 
L 701.680973 277.160197 
L 702.209841 286.242457 
L 702.738709 258.461425 
L 703.267578 264.872432 
L 703.796446 269.680688 
L 704.325314 276.625946 
L 704.854182 288.379459 
L 705.38305 293.187715 
L 705.911918 296.393219 
L 706.440787 274.488943 
L 706.969655 273.420442 
L 707.498523 280.3657 
L 708.027391 288.91371 
L 708.556259 290.516462 
L 709.085128 296.393219 
L 709.613996 299.598722 
L 710.142864 289.982211 
L 710.671732 293.187715 
L 711.2006 303.338477 
L 711.729468 303.872727 
L 712.258337 308.680983 
L 712.787205 311.886486 
L 713.316073 312.420737 
L 713.844941 297.995971 
L 714.373809 300.667224 
L 714.902678 301.735725 
L 715.431546 300.132973 
L 715.960414 292.653464 
L 716.489282 293.187715 
L 717.01815 295.858968 
L 717.547018 239.228403 
L 718.075887 248.844914 
L 718.604755 248.310663 
L 719.133623 254.18742 
L 719.662491 264.872432 
L 720.191359 264.872432 
L 720.720227 277.694447 
L 721.249096 262.73543 
L 721.777964 265.406683 
L 722.306832 271.81769 
L 722.8357 273.420442 
L 723.364568 269.146437 
L 723.893437 278.228698 
L 724.422305 284.639705 
L 724.951173 270.749189 
L 725.480041 269.680688 
L 726.008909 272.351941 
L 726.537777 277.694447 
L 727.066646 278.228698 
L 727.595514 275.557445 
L 728.124382 278.762948 
L 728.65325 271.28344 
L 729.182118 272.351941 
L 730.239855 273.420442 
L 730.768723 275.023194 
L 731.297591 283.036953 
L 731.826459 285.708206 
L 732.355327 268.612187 
L 732.884196 269.680688 
L 733.413064 244.570909 
L 733.941932 257.392924 
L 734.4708 255.790172 
L 734.999668 254.721671 
L 735.528536 255.255921 
L 736.057405 247.242162 
L 736.586273 253.118919 
L 737.115141 264.338182 
L 737.644009 270.214939 
L 738.172877 271.28344 
L 738.701746 272.886192 
L 739.230614 277.694447 
L 739.759482 266.475184 
L 741.874955 277.694447 
L 742.403823 281.968452 
L 742.932691 291.050713 
L 743.461559 268.612187 
L 743.990427 269.680688 
L 744.519295 278.228698 
L 745.048164 283.571204 
L 745.577032 285.173956 
L 746.634768 293.187715 
L 747.163636 273.420442 
L 747.163636 273.420442 
" style="fill:none;stroke:#9467bd;stroke-linecap:square;stroke-width:1.5;"/>
   </g>
   <g id="patch_3">
    <path d="M 108 378 
L 108 51.84 
" style="fill:none;stroke:#000000;stroke-linecap:square;stroke-linejoin:miter;stroke-width:0.8;"/>
   </g>
   <g id="patch_4">
    <path d="M 777.6 378 
L 777.6 51.84 
" style="fill:none;stroke:#000000;stroke-linecap:square;stroke-linejoin:miter;stroke-width:0.8;"/>
   </g>
   <g id="patch_5">
    <path d="M 108 378 
L 777.6 378 
" style="fill:none;stroke:#000000;stroke-linecap:square;stroke-linejoin:miter;stroke-width:0.8;"/>
   </g>
   <g id="patch_6">
    <path d="M 108 51.84 
L 777.6 51.84 
" style="fill:none;stroke:#000000;stroke-linecap:square;stroke-linejoin:miter;stroke-width:0.8;"/>
   </g>
   <g id="text_19">
    <!-- Actual and predicted Values -->
    <g transform="translate(358.930313 45.84)scale(0.12 -0.12)">
     <defs>
      <path d="M 34.1875 63.1875 
L 20.796875 26.90625 
L 47.609375 26.90625 
z
M 28.609375 72.90625 
L 39.796875 72.90625 
L 67.578125 0 
L 57.328125 0 
L 50.6875 18.703125 
L 17.828125 18.703125 
L 11.1875 0 
L 0.78125 0 
z
" id="DejaVuSans-65"/>
      <path d="M 48.78125 52.59375 
L 48.78125 44.1875 
Q 44.96875 46.296875 41.140625 47.34375 
Q 37.3125 48.390625 33.40625 48.390625 
Q 24.65625 48.390625 19.8125 42.84375 
Q 14.984375 37.3125 14.984375 27.296875 
Q 14.984375 17.28125 19.8125 11.734375 
Q 24.65625 6.203125 33.40625 6.203125 
Q 37.3125 6.203125 41.140625 7.25 
Q 44.96875 8.296875 48.78125 10.40625 
L 48.78125 2.09375 
Q 45.015625 0.34375 40.984375 -0.53125 
Q 36.96875 -1.421875 32.421875 -1.421875 
Q 20.0625 -1.421875 12.78125 6.34375 
Q 5.515625 14.109375 5.515625 27.296875 
Q 5.515625 40.671875 12.859375 48.328125 
Q 20.21875 56 33.015625 56 
Q 37.15625 56 41.109375 55.140625 
Q 45.0625 54.296875 48.78125 52.59375 
z
" id="DejaVuSans-99"/>
      <path d="M 8.5 21.578125 
L 8.5 54.6875 
L 17.484375 54.6875 
L 17.484375 21.921875 
Q 17.484375 14.15625 20.5 10.265625 
Q 23.53125 6.390625 29.59375 6.390625 
Q 36.859375 6.390625 41.078125 11.03125 
Q 45.3125 15.671875 45.3125 23.6875 
L 45.3125 54.6875 
L 54.296875 54.6875 
L 54.296875 0 
L 45.3125 0 
L 45.3125 8.40625 
Q 42.046875 3.421875 37.71875 1 
Q 33.40625 -1.421875 27.6875 -1.421875 
Q 18.265625 -1.421875 13.375 4.4375 
Q 8.5 10.296875 8.5 21.578125 
z
M 31.109375 56 
z
" id="DejaVuSans-117"/>
      <path d="M 9.421875 75.984375 
L 18.40625 75.984375 
L 18.40625 0 
L 9.421875 0 
z
" id="DejaVuSans-108"/>
      <path d="M 18.109375 8.203125 
L 18.109375 -20.796875 
L 9.078125 -20.796875 
L 9.078125 54.6875 
L 18.109375 54.6875 
L 18.109375 46.390625 
Q 20.953125 51.265625 25.265625 53.625 
Q 29.59375 56 35.59375 56 
Q 45.5625 56 51.78125 48.09375 
Q 58.015625 40.1875 58.015625 27.296875 
Q 58.015625 14.40625 51.78125 6.484375 
Q 45.5625 -1.421875 35.59375 -1.421875 
Q 29.59375 -1.421875 25.265625 0.953125 
Q 20.953125 3.328125 18.109375 8.203125 
z
M 48.6875 27.296875 
Q 48.6875 37.203125 44.609375 42.84375 
Q 40.53125 48.484375 33.40625 48.484375 
Q 26.265625 48.484375 22.1875 42.84375 
Q 18.109375 37.203125 18.109375 27.296875 
Q 18.109375 17.390625 22.1875 11.75 
Q 26.265625 6.109375 33.40625 6.109375 
Q 40.53125 6.109375 44.609375 11.75 
Q 48.6875 17.390625 48.6875 27.296875 
z
" id="DejaVuSans-112"/>
      <path d="M 28.609375 0 
L 0.78125 72.90625 
L 11.078125 72.90625 
L 34.1875 11.53125 
L 57.328125 72.90625 
L 67.578125 72.90625 
L 39.796875 0 
z
" id="DejaVuSans-86"/>
     </defs>
     <use xlink:href="#DejaVuSans-65"/>
     <use x="66.658203" xlink:href="#DejaVuSans-99"/>
     <use x="121.638672" xlink:href="#DejaVuSans-116"/>
     <use x="160.847656" xlink:href="#DejaVuSans-117"/>
     <use x="224.226562" xlink:href="#DejaVuSans-97"/>
     <use x="285.505859" xlink:href="#DejaVuSans-108"/>
     <use x="313.289062" xlink:href="#DejaVuSans-32"/>
     <use x="345.076172" xlink:href="#DejaVuSans-97"/>
     <use x="406.355469" xlink:href="#DejaVuSans-110"/>
     <use x="469.734375" xlink:href="#DejaVuSans-100"/>
     <use x="533.210938" xlink:href="#DejaVuSans-32"/>
     <use x="564.998047" xlink:href="#DejaVuSans-112"/>
     <use x="628.474609" xlink:href="#DejaVuSans-114"/>
     <use x="667.337891" xlink:href="#DejaVuSans-101"/>
     <use x="728.861328" xlink:href="#DejaVuSans-100"/>
     <use x="792.337891" xlink:href="#DejaVuSans-105"/>
     <use x="820.121094" xlink:href="#DejaVuSans-99"/>
     <use x="875.101562" xlink:href="#DejaVuSans-116"/>
     <use x="914.310547" xlink:href="#DejaVuSans-101"/>
     <use x="975.833984" xlink:href="#DejaVuSans-100"/>
     <use x="1039.310547" xlink:href="#DejaVuSans-32"/>
     <use x="1071.097656" xlink:href="#DejaVuSans-86"/>
     <use x="1131.755859" xlink:href="#DejaVuSans-97"/>
     <use x="1193.035156" xlink:href="#DejaVuSans-108"/>
     <use x="1220.818359" xlink:href="#DejaVuSans-117"/>
     <use x="1284.197266" xlink:href="#DejaVuSans-101"/>
     <use x="1345.720703" xlink:href="#DejaVuSans-115"/>
    </g>
   </g>
   <g id="legend_1">
    <g id="patch_7">
     <path d="M 115 89.19625 
L 197.167188 89.19625 
Q 199.167188 89.19625 199.167188 87.19625 
L 199.167188 58.84 
Q 199.167188 56.84 197.167188 56.84 
L 115 56.84 
Q 113 56.84 113 58.84 
L 113 87.19625 
Q 113 89.19625 115 89.19625 
z
" style="fill:#ffffff;opacity:0.8;stroke:#cccccc;stroke-linejoin:miter;"/>
    </g>
    <g id="line2d_19">
     <path d="M 117 64.938437 
L 137 64.938437 
" style="fill:none;stroke:#1f77b4;stroke-linecap:square;stroke-opacity:0.5;stroke-width:1.5;"/>
    </g>
    <g id="line2d_20"/>
    <g id="text_20">
     <!-- actual -->
     <g transform="translate(145 68.438437)scale(0.1 -0.1)">
      <use xlink:href="#DejaVuSans-97"/>
      <use x="61.279297" xlink:href="#DejaVuSans-99"/>
      <use x="116.259766" xlink:href="#DejaVuSans-116"/>
      <use x="155.46875" xlink:href="#DejaVuSans-117"/>
      <use x="218.847656" xlink:href="#DejaVuSans-97"/>
      <use x="280.126953" xlink:href="#DejaVuSans-108"/>
     </g>
    </g>
    <g id="line2d_21">
     <path d="M 117 79.616562 
L 137 79.616562 
" style="fill:none;stroke:#9467bd;stroke-linecap:square;stroke-width:1.5;"/>
    </g>
    <g id="line2d_22"/>
    <g id="text_21">
     <!-- prediction -->
     <g transform="translate(145 83.116562)scale(0.1 -0.1)">
      <defs>
       <path d="M 30.609375 48.390625 
Q 23.390625 48.390625 19.1875 42.75 
Q 14.984375 37.109375 14.984375 27.296875 
Q 14.984375 17.484375 19.15625 11.84375 
Q 23.34375 6.203125 30.609375 6.203125 
Q 37.796875 6.203125 41.984375 11.859375 
Q 46.1875 17.53125 46.1875 27.296875 
Q 46.1875 37.015625 41.984375 42.703125 
Q 37.796875 48.390625 30.609375 48.390625 
z
M 30.609375 56 
Q 42.328125 56 49.015625 48.375 
Q 55.71875 40.765625 55.71875 27.296875 
Q 55.71875 13.875 49.015625 6.21875 
Q 42.328125 -1.421875 30.609375 -1.421875 
Q 18.84375 -1.421875 12.171875 6.21875 
Q 5.515625 13.875 5.515625 27.296875 
Q 5.515625 40.765625 12.171875 48.375 
Q 18.84375 56 30.609375 56 
z
" id="DejaVuSans-111"/>
      </defs>
      <use xlink:href="#DejaVuSans-112"/>
      <use x="63.476562" xlink:href="#DejaVuSans-114"/>
      <use x="102.339844" xlink:href="#DejaVuSans-101"/>
      <use x="163.863281" xlink:href="#DejaVuSans-100"/>
      <use x="227.339844" xlink:href="#DejaVuSans-105"/>
      <use x="255.123047" xlink:href="#DejaVuSans-99"/>
      <use x="310.103516" xlink:href="#DejaVuSans-116"/>
      <use x="349.3125" xlink:href="#DejaVuSans-105"/>
      <use x="377.095703" xlink:href="#DejaVuSans-111"/>
      <use x="438.277344" xlink:href="#DejaVuSans-110"/>
     </g>
    </g>
   </g>
  </g>
 </g>
 <defs>
  <clipPath id="p73b9f1b386">
   <rect height="326.16" width="669.6" x="108" y="51.84"/>
  </clipPath>
 </defs>
</svg>
