<?xml version="1.0" encoding="utf-8" standalone="no"?>
<!DOCTYPE svg PUBLIC "-//W3C//DTD SVG 1.1//EN"
  "http://www.w3.org/Graphics/SVG/1.1/DTD/svg11.dtd">
<!-- Created with matplotlib (https://matplotlib.org/) -->
<svg height="432pt" version="1.1" viewBox="0 0 864 432" width="864pt" xmlns="http://www.w3.org/2000/svg" xmlns:xlink="http://www.w3.org/1999/xlink">
 <metadata>
  <rdf:RDF xmlns:cc="http://creativecommons.org/ns#" xmlns:dc="http://purl.org/dc/elements/1.1/" xmlns:rdf="http://www.w3.org/1999/02/22-rdf-syntax-ns#">
   <cc:Work>
    <dc:type rdf:resource="http://purl.org/dc/dcmitype/StillImage"/>
    <dc:date>2022-08-16T12:15:12.585238</dc:date>
    <dc:format>image/svg+xml</dc:format>
    <dc:creator>
     <cc:Agent>
      <dc:title>Matplotlib v3.3.2, https://matplotlib.org/</dc:title>
     </cc:Agent>
    </dc:creator>
   </cc:Work>
  </rdf:RDF>
 </metadata>
 <defs>
  <style type="text/css">*{stroke-linecap:butt;stroke-linejoin:round;}</style>
 </defs>
 <g id="figure_1">
  <g id="patch_1">
   <path d="M 0 432 
L 864 432 
L 864 0 
L 0 0 
z
" style="fill:none;"/>
  </g>
  <g id="axes_1">
   <g id="patch_2">
    <path d="M 108 378 
L 777.6 378 
L 777.6 51.84 
L 108 51.84 
z
" style="fill:#ffffff;"/>
   </g>
   <g id="matplotlib.axis_1">
    <g id="xtick_1">
     <g id="line2d_1">
      <defs>
       <path d="M 0 0 
L 0 3.5 
" id="md37ce7847c" style="stroke:#000000;stroke-width:0.8;"/>
      </defs>
      <g>
       <use style="stroke:#000000;stroke-width:0.8;" x="154.302409" xlink:href="#md37ce7847c" y="378"/>
      </g>
     </g>
     <g id="text_1">
      <!-- 2016-05 -->
      <g transform="translate(146.246395 424.984196)rotate(-60)scale(0.1 -0.1)">
       <defs>
        <path d="M 19.1875 8.296875 
L 53.609375 8.296875 
L 53.609375 0 
L 7.328125 0 
L 7.328125 8.296875 
Q 12.9375 14.109375 22.625 23.890625 
Q 32.328125 33.6875 34.8125 36.53125 
Q 39.546875 41.84375 41.421875 45.53125 
Q 43.3125 49.21875 43.3125 52.78125 
Q 43.3125 58.59375 39.234375 62.25 
Q 35.15625 65.921875 28.609375 65.921875 
Q 23.96875 65.921875 18.8125 64.3125 
Q 13.671875 62.703125 7.8125 59.421875 
L 7.8125 69.390625 
Q 13.765625 71.78125 18.9375 73 
Q 24.125 74.21875 28.421875 74.21875 
Q 39.75 74.21875 46.484375 68.546875 
Q 53.21875 62.890625 53.21875 53.421875 
Q 53.21875 48.921875 51.53125 44.890625 
Q 49.859375 40.875 45.40625 35.40625 
Q 44.1875 33.984375 37.640625 27.21875 
Q 31.109375 20.453125 19.1875 8.296875 
z
" id="DejaVuSans-50"/>
        <path d="M 31.78125 66.40625 
Q 24.171875 66.40625 20.328125 58.90625 
Q 16.5 51.421875 16.5 36.375 
Q 16.5 21.390625 20.328125 13.890625 
Q 24.171875 6.390625 31.78125 6.390625 
Q 39.453125 6.390625 43.28125 13.890625 
Q 47.125 21.390625 47.125 36.375 
Q 47.125 51.421875 43.28125 58.90625 
Q 39.453125 66.40625 31.78125 66.40625 
z
M 31.78125 74.21875 
Q 44.046875 74.21875 50.515625 64.515625 
Q 56.984375 54.828125 56.984375 36.375 
Q 56.984375 17.96875 50.515625 8.265625 
Q 44.046875 -1.421875 31.78125 -1.421875 
Q 19.53125 -1.421875 13.0625 8.265625 
Q 6.59375 17.96875 6.59375 36.375 
Q 6.59375 54.828125 13.0625 64.515625 
Q 19.53125 74.21875 31.78125 74.21875 
z
" id="DejaVuSans-48"/>
        <path d="M 12.40625 8.296875 
L 28.515625 8.296875 
L 28.515625 63.921875 
L 10.984375 60.40625 
L 10.984375 69.390625 
L 28.421875 72.90625 
L 38.28125 72.90625 
L 38.28125 8.296875 
L 54.390625 8.296875 
L 54.390625 0 
L 12.40625 0 
z
" id="DejaVuSans-49"/>
        <path d="M 33.015625 40.375 
Q 26.375 40.375 22.484375 35.828125 
Q 18.609375 31.296875 18.609375 23.390625 
Q 18.609375 15.53125 22.484375 10.953125 
Q 26.375 6.390625 33.015625 6.390625 
Q 39.65625 6.390625 43.53125 10.953125 
Q 47.40625 15.53125 47.40625 23.390625 
Q 47.40625 31.296875 43.53125 35.828125 
Q 39.65625 40.375 33.015625 40.375 
z
M 52.59375 71.296875 
L 52.59375 62.3125 
Q 48.875 64.0625 45.09375 64.984375 
Q 41.3125 65.921875 37.59375 65.921875 
Q 27.828125 65.921875 22.671875 59.328125 
Q 17.53125 52.734375 16.796875 39.40625 
Q 19.671875 43.65625 24.015625 45.921875 
Q 28.375 48.1875 33.59375 48.1875 
Q 44.578125 48.1875 50.953125 41.515625 
Q 57.328125 34.859375 57.328125 23.390625 
Q 57.328125 12.15625 50.6875 5.359375 
Q 44.046875 -1.421875 33.015625 -1.421875 
Q 20.359375 -1.421875 13.671875 8.265625 
Q 6.984375 17.96875 6.984375 36.375 
Q 6.984375 53.65625 15.1875 63.9375 
Q 23.390625 74.21875 37.203125 74.21875 
Q 40.921875 74.21875 44.703125 73.484375 
Q 48.484375 72.75 52.59375 71.296875 
z
" id="DejaVuSans-54"/>
        <path d="M 4.890625 31.390625 
L 31.203125 31.390625 
L 31.203125 23.390625 
L 4.890625 23.390625 
z
" id="DejaVuSans-45"/>
        <path d="M 10.796875 72.90625 
L 49.515625 72.90625 
L 49.515625 64.59375 
L 19.828125 64.59375 
L 19.828125 46.734375 
Q 21.96875 47.46875 24.109375 47.828125 
Q 26.265625 48.1875 28.421875 48.1875 
Q 40.625 48.1875 47.75 41.5 
Q 54.890625 34.8125 54.890625 23.390625 
Q 54.890625 11.625 47.5625 5.09375 
Q 40.234375 -1.421875 26.90625 -1.421875 
Q 22.3125 -1.421875 17.546875 -0.640625 
Q 12.796875 0.140625 7.71875 1.703125 
L 7.71875 11.625 
Q 12.109375 9.234375 16.796875 8.0625 
Q 21.484375 6.890625 26.703125 6.890625 
Q 35.15625 6.890625 40.078125 11.328125 
Q 45.015625 15.765625 45.015625 23.390625 
Q 45.015625 31 40.078125 35.4375 
Q 35.15625 39.890625 26.703125 39.890625 
Q 22.75 39.890625 18.8125 39.015625 
Q 14.890625 38.140625 10.796875 36.28125 
z
" id="DejaVuSans-53"/>
       </defs>
       <use xlink:href="#DejaVuSans-50"/>
       <use x="63.623047" xlink:href="#DejaVuSans-48"/>
       <use x="127.246094" xlink:href="#DejaVuSans-49"/>
       <use x="190.869141" xlink:href="#DejaVuSans-54"/>
       <use x="254.492188" xlink:href="#DejaVuSans-45"/>
       <use x="290.576172" xlink:href="#DejaVuSans-48"/>
       <use x="354.199219" xlink:href="#DejaVuSans-53"/>
      </g>
     </g>
    </g>
    <g id="xtick_2">
     <g id="line2d_2">
      <g>
       <use style="stroke:#000000;stroke-width:0.8;" x="219.353195" xlink:href="#md37ce7847c" y="378"/>
      </g>
     </g>
     <g id="text_2">
      <!-- 2016-09 -->
      <g transform="translate(211.297181 424.984196)rotate(-60)scale(0.1 -0.1)">
       <defs>
        <path d="M 10.984375 1.515625 
L 10.984375 10.5 
Q 14.703125 8.734375 18.5 7.8125 
Q 22.3125 6.890625 25.984375 6.890625 
Q 35.75 6.890625 40.890625 13.453125 
Q 46.046875 20.015625 46.78125 33.40625 
Q 43.953125 29.203125 39.59375 26.953125 
Q 35.25 24.703125 29.984375 24.703125 
Q 19.046875 24.703125 12.671875 31.3125 
Q 6.296875 37.9375 6.296875 49.421875 
Q 6.296875 60.640625 12.9375 67.421875 
Q 19.578125 74.21875 30.609375 74.21875 
Q 43.265625 74.21875 49.921875 64.515625 
Q 56.59375 54.828125 56.59375 36.375 
Q 56.59375 19.140625 48.40625 8.859375 
Q 40.234375 -1.421875 26.421875 -1.421875 
Q 22.703125 -1.421875 18.890625 -0.6875 
Q 15.09375 0.046875 10.984375 1.515625 
z
M 30.609375 32.421875 
Q 37.25 32.421875 41.125 36.953125 
Q 45.015625 41.5 45.015625 49.421875 
Q 45.015625 57.28125 41.125 61.84375 
Q 37.25 66.40625 30.609375 66.40625 
Q 23.96875 66.40625 20.09375 61.84375 
Q 16.21875 57.28125 16.21875 49.421875 
Q 16.21875 41.5 20.09375 36.953125 
Q 23.96875 32.421875 30.609375 32.421875 
z
" id="DejaVuSans-57"/>
       </defs>
       <use xlink:href="#DejaVuSans-50"/>
       <use x="63.623047" xlink:href="#DejaVuSans-48"/>
       <use x="127.246094" xlink:href="#DejaVuSans-49"/>
       <use x="190.869141" xlink:href="#DejaVuSans-54"/>
       <use x="254.492188" xlink:href="#DejaVuSans-45"/>
       <use x="290.576172" xlink:href="#DejaVuSans-48"/>
       <use x="354.199219" xlink:href="#DejaVuSans-57"/>
      </g>
     </g>
    </g>
    <g id="xtick_3">
     <g id="line2d_3">
      <g>
       <use style="stroke:#000000;stroke-width:0.8;" x="283.875113" xlink:href="#md37ce7847c" y="378"/>
      </g>
     </g>
     <g id="text_3">
      <!-- 2017-01 -->
      <g transform="translate(275.819098 424.984196)rotate(-60)scale(0.1 -0.1)">
       <defs>
        <path d="M 8.203125 72.90625 
L 55.078125 72.90625 
L 55.078125 68.703125 
L 28.609375 0 
L 18.3125 0 
L 43.21875 64.59375 
L 8.203125 64.59375 
z
" id="DejaVuSans-55"/>
       </defs>
       <use xlink:href="#DejaVuSans-50"/>
       <use x="63.623047" xlink:href="#DejaVuSans-48"/>
       <use x="127.246094" xlink:href="#DejaVuSans-49"/>
       <use x="190.869141" xlink:href="#DejaVuSans-55"/>
       <use x="254.492188" xlink:href="#DejaVuSans-45"/>
       <use x="290.576172" xlink:href="#DejaVuSans-48"/>
       <use x="354.199219" xlink:href="#DejaVuSans-49"/>
      </g>
     </g>
    </g>
    <g id="xtick_4">
     <g id="line2d_4">
      <g>
       <use style="stroke:#000000;stroke-width:0.8;" x="347.339294" xlink:href="#md37ce7847c" y="378"/>
      </g>
     </g>
     <g id="text_4">
      <!-- 2017-05 -->
      <g transform="translate(339.28328 424.984196)rotate(-60)scale(0.1 -0.1)">
       <use xlink:href="#DejaVuSans-50"/>
       <use x="63.623047" xlink:href="#DejaVuSans-48"/>
       <use x="127.246094" xlink:href="#DejaVuSans-49"/>
       <use x="190.869141" xlink:href="#DejaVuSans-55"/>
       <use x="254.492188" xlink:href="#DejaVuSans-45"/>
       <use x="290.576172" xlink:href="#DejaVuSans-48"/>
       <use x="354.199219" xlink:href="#DejaVuSans-53"/>
      </g>
     </g>
    </g>
    <g id="xtick_5">
     <g id="line2d_5">
      <g>
       <use style="stroke:#000000;stroke-width:0.8;" x="412.39008" xlink:href="#md37ce7847c" y="378"/>
      </g>
     </g>
     <g id="text_5">
      <!-- 2017-09 -->
      <g transform="translate(404.334065 424.984196)rotate(-60)scale(0.1 -0.1)">
       <use xlink:href="#DejaVuSans-50"/>
       <use x="63.623047" xlink:href="#DejaVuSans-48"/>
       <use x="127.246094" xlink:href="#DejaVuSans-49"/>
       <use x="190.869141" xlink:href="#DejaVuSans-55"/>
       <use x="254.492188" xlink:href="#DejaVuSans-45"/>
       <use x="290.576172" xlink:href="#DejaVuSans-48"/>
       <use x="354.199219" xlink:href="#DejaVuSans-57"/>
      </g>
     </g>
    </g>
    <g id="xtick_6">
     <g id="line2d_6">
      <g>
       <use style="stroke:#000000;stroke-width:0.8;" x="476.911997" xlink:href="#md37ce7847c" y="378"/>
      </g>
     </g>
     <g id="text_6">
      <!-- 2018-01 -->
      <g transform="translate(468.855983 424.984196)rotate(-60)scale(0.1 -0.1)">
       <defs>
        <path d="M 31.78125 34.625 
Q 24.75 34.625 20.71875 30.859375 
Q 16.703125 27.09375 16.703125 20.515625 
Q 16.703125 13.921875 20.71875 10.15625 
Q 24.75 6.390625 31.78125 6.390625 
Q 38.8125 6.390625 42.859375 10.171875 
Q 46.921875 13.96875 46.921875 20.515625 
Q 46.921875 27.09375 42.890625 30.859375 
Q 38.875 34.625 31.78125 34.625 
z
M 21.921875 38.8125 
Q 15.578125 40.375 12.03125 44.71875 
Q 8.5 49.078125 8.5 55.328125 
Q 8.5 64.0625 14.71875 69.140625 
Q 20.953125 74.21875 31.78125 74.21875 
Q 42.671875 74.21875 48.875 69.140625 
Q 55.078125 64.0625 55.078125 55.328125 
Q 55.078125 49.078125 51.53125 44.71875 
Q 48 40.375 41.703125 38.8125 
Q 48.828125 37.15625 52.796875 32.3125 
Q 56.78125 27.484375 56.78125 20.515625 
Q 56.78125 9.90625 50.3125 4.234375 
Q 43.84375 -1.421875 31.78125 -1.421875 
Q 19.734375 -1.421875 13.25 4.234375 
Q 6.78125 9.90625 6.78125 20.515625 
Q 6.78125 27.484375 10.78125 32.3125 
Q 14.796875 37.15625 21.921875 38.8125 
z
M 18.3125 54.390625 
Q 18.3125 48.734375 21.84375 45.5625 
Q 25.390625 42.390625 31.78125 42.390625 
Q 38.140625 42.390625 41.71875 45.5625 
Q 45.3125 48.734375 45.3125 54.390625 
Q 45.3125 60.0625 41.71875 63.234375 
Q 38.140625 66.40625 31.78125 66.40625 
Q 25.390625 66.40625 21.84375 63.234375 
Q 18.3125 60.0625 18.3125 54.390625 
z
" id="DejaVuSans-56"/>
       </defs>
       <use xlink:href="#DejaVuSans-50"/>
       <use x="63.623047" xlink:href="#DejaVuSans-48"/>
       <use x="127.246094" xlink:href="#DejaVuSans-49"/>
       <use x="190.869141" xlink:href="#DejaVuSans-56"/>
       <use x="254.492188" xlink:href="#DejaVuSans-45"/>
       <use x="290.576172" xlink:href="#DejaVuSans-48"/>
       <use x="354.199219" xlink:href="#DejaVuSans-49"/>
      </g>
     </g>
    </g>
    <g id="xtick_7">
     <g id="line2d_7">
      <g>
       <use style="stroke:#000000;stroke-width:0.8;" x="540.376179" xlink:href="#md37ce7847c" y="378"/>
      </g>
     </g>
     <g id="text_7">
      <!-- 2018-05 -->
      <g transform="translate(532.320165 424.984196)rotate(-60)scale(0.1 -0.1)">
       <use xlink:href="#DejaVuSans-50"/>
       <use x="63.623047" xlink:href="#DejaVuSans-48"/>
       <use x="127.246094" xlink:href="#DejaVuSans-49"/>
       <use x="190.869141" xlink:href="#DejaVuSans-56"/>
       <use x="254.492188" xlink:href="#DejaVuSans-45"/>
       <use x="290.576172" xlink:href="#DejaVuSans-48"/>
       <use x="354.199219" xlink:href="#DejaVuSans-53"/>
      </g>
     </g>
    </g>
    <g id="xtick_8">
     <g id="line2d_8">
      <g>
       <use style="stroke:#000000;stroke-width:0.8;" x="605.426965" xlink:href="#md37ce7847c" y="378"/>
      </g>
     </g>
     <g id="text_8">
      <!-- 2018-09 -->
      <g transform="translate(597.37095 424.984196)rotate(-60)scale(0.1 -0.1)">
       <use xlink:href="#DejaVuSans-50"/>
       <use x="63.623047" xlink:href="#DejaVuSans-48"/>
       <use x="127.246094" xlink:href="#DejaVuSans-49"/>
       <use x="190.869141" xlink:href="#DejaVuSans-56"/>
       <use x="254.492188" xlink:href="#DejaVuSans-45"/>
       <use x="290.576172" xlink:href="#DejaVuSans-48"/>
       <use x="354.199219" xlink:href="#DejaVuSans-57"/>
      </g>
     </g>
    </g>
    <g id="xtick_9">
     <g id="line2d_9">
      <g>
       <use style="stroke:#000000;stroke-width:0.8;" x="669.948882" xlink:href="#md37ce7847c" y="378"/>
      </g>
     </g>
     <g id="text_9">
      <!-- 2019-01 -->
      <g transform="translate(661.892868 424.984196)rotate(-60)scale(0.1 -0.1)">
       <use xlink:href="#DejaVuSans-50"/>
       <use x="63.623047" xlink:href="#DejaVuSans-48"/>
       <use x="127.246094" xlink:href="#DejaVuSans-49"/>
       <use x="190.869141" xlink:href="#DejaVuSans-57"/>
       <use x="254.492188" xlink:href="#DejaVuSans-45"/>
       <use x="290.576172" xlink:href="#DejaVuSans-48"/>
       <use x="354.199219" xlink:href="#DejaVuSans-49"/>
      </g>
     </g>
    </g>
    <g id="xtick_10">
     <g id="line2d_10">
      <g>
       <use style="stroke:#000000;stroke-width:0.8;" x="733.413064" xlink:href="#md37ce7847c" y="378"/>
      </g>
     </g>
     <g id="text_10">
      <!-- 2019-05 -->
      <g transform="translate(725.357049 424.984196)rotate(-60)scale(0.1 -0.1)">
       <use xlink:href="#DejaVuSans-50"/>
       <use x="63.623047" xlink:href="#DejaVuSans-48"/>
       <use x="127.246094" xlink:href="#DejaVuSans-49"/>
       <use x="190.869141" xlink:href="#DejaVuSans-57"/>
       <use x="254.492188" xlink:href="#DejaVuSans-45"/>
       <use x="290.576172" xlink:href="#DejaVuSans-48"/>
       <use x="354.199219" xlink:href="#DejaVuSans-53"/>
      </g>
     </g>
    </g>
    <g id="text_11">
     <!-- Date -->
     <g transform="translate(430.849219 437.622477)scale(0.1 -0.1)">
      <defs>
       <path d="M 19.671875 64.796875 
L 19.671875 8.109375 
L 31.59375 8.109375 
Q 46.6875 8.109375 53.6875 14.9375 
Q 60.6875 21.78125 60.6875 36.53125 
Q 60.6875 51.171875 53.6875 57.984375 
Q 46.6875 64.796875 31.59375 64.796875 
z
M 9.8125 72.90625 
L 30.078125 72.90625 
Q 51.265625 72.90625 61.171875 64.09375 
Q 71.09375 55.28125 71.09375 36.53125 
Q 71.09375 17.671875 61.125 8.828125 
Q 51.171875 0 30.078125 0 
L 9.8125 0 
z
" id="DejaVuSans-68"/>
       <path d="M 34.28125 27.484375 
Q 23.390625 27.484375 19.1875 25 
Q 14.984375 22.515625 14.984375 16.5 
Q 14.984375 11.71875 18.140625 8.90625 
Q 21.296875 6.109375 26.703125 6.109375 
Q 34.1875 6.109375 38.703125 11.40625 
Q 43.21875 16.703125 43.21875 25.484375 
L 43.21875 27.484375 
z
M 52.203125 31.203125 
L 52.203125 0 
L 43.21875 0 
L 43.21875 8.296875 
Q 40.140625 3.328125 35.546875 0.953125 
Q 30.953125 -1.421875 24.3125 -1.421875 
Q 15.921875 -1.421875 10.953125 3.296875 
Q 6 8.015625 6 15.921875 
Q 6 25.140625 12.171875 29.828125 
Q 18.359375 34.515625 30.609375 34.515625 
L 43.21875 34.515625 
L 43.21875 35.40625 
Q 43.21875 41.609375 39.140625 45 
Q 35.0625 48.390625 27.6875 48.390625 
Q 23 48.390625 18.546875 47.265625 
Q 14.109375 46.140625 10.015625 43.890625 
L 10.015625 52.203125 
Q 14.9375 54.109375 19.578125 55.046875 
Q 24.21875 56 28.609375 56 
Q 40.484375 56 46.34375 49.84375 
Q 52.203125 43.703125 52.203125 31.203125 
z
" id="DejaVuSans-97"/>
       <path d="M 18.3125 70.21875 
L 18.3125 54.6875 
L 36.8125 54.6875 
L 36.8125 47.703125 
L 18.3125 47.703125 
L 18.3125 18.015625 
Q 18.3125 11.328125 20.140625 9.421875 
Q 21.96875 7.515625 27.59375 7.515625 
L 36.8125 7.515625 
L 36.8125 0 
L 27.59375 0 
Q 17.1875 0 13.234375 3.875 
Q 9.28125 7.765625 9.28125 18.015625 
L 9.28125 47.703125 
L 2.6875 47.703125 
L 2.6875 54.6875 
L 9.28125 54.6875 
L 9.28125 70.21875 
z
" id="DejaVuSans-116"/>
       <path d="M 56.203125 29.59375 
L 56.203125 25.203125 
L 14.890625 25.203125 
Q 15.484375 15.921875 20.484375 11.0625 
Q 25.484375 6.203125 34.421875 6.203125 
Q 39.59375 6.203125 44.453125 7.46875 
Q 49.3125 8.734375 54.109375 11.28125 
L 54.109375 2.78125 
Q 49.265625 0.734375 44.1875 -0.34375 
Q 39.109375 -1.421875 33.890625 -1.421875 
Q 20.796875 -1.421875 13.15625 6.1875 
Q 5.515625 13.8125 5.515625 26.8125 
Q 5.515625 40.234375 12.765625 48.109375 
Q 20.015625 56 32.328125 56 
Q 43.359375 56 49.78125 48.890625 
Q 56.203125 41.796875 56.203125 29.59375 
z
M 47.21875 32.234375 
Q 47.125 39.59375 43.09375 43.984375 
Q 39.0625 48.390625 32.421875 48.390625 
Q 24.90625 48.390625 20.390625 44.140625 
Q 15.875 39.890625 15.1875 32.171875 
z
" id="DejaVuSans-101"/>
      </defs>
      <use xlink:href="#DejaVuSans-68"/>
      <use x="77.001953" xlink:href="#DejaVuSans-97"/>
      <use x="138.28125" xlink:href="#DejaVuSans-116"/>
      <use x="177.490234" xlink:href="#DejaVuSans-101"/>
     </g>
    </g>
   </g>
   <g id="matplotlib.axis_2">
    <g id="ytick_1">
     <g id="line2d_11">
      <defs>
       <path d="M 0 0 
L -3.5 0 
" id="m6cd823ff78" style="stroke:#000000;stroke-width:0.8;"/>
      </defs>
      <g>
       <use style="stroke:#000000;stroke-width:0.8;" x="108" xlink:href="#m6cd823ff78" y="365.996263"/>
      </g>
     </g>
     <g id="text_12">
      <!-- 4000 -->
      <g transform="translate(75.55 369.795481)scale(0.1 -0.1)">
       <defs>
        <path d="M 37.796875 64.3125 
L 12.890625 25.390625 
L 37.796875 25.390625 
z
M 35.203125 72.90625 
L 47.609375 72.90625 
L 47.609375 25.390625 
L 58.015625 25.390625 
L 58.015625 17.1875 
L 47.609375 17.1875 
L 47.609375 0 
L 37.796875 0 
L 37.796875 17.1875 
L 4.890625 17.1875 
L 4.890625 26.703125 
z
" id="DejaVuSans-52"/>
       </defs>
       <use xlink:href="#DejaVuSans-52"/>
       <use x="63.623047" xlink:href="#DejaVuSans-48"/>
       <use x="127.246094" xlink:href="#DejaVuSans-48"/>
       <use x="190.869141" xlink:href="#DejaVuSans-48"/>
      </g>
     </g>
    </g>
    <g id="ytick_2">
     <g id="line2d_12">
      <g>
       <use style="stroke:#000000;stroke-width:0.8;" x="108" xlink:href="#m6cd823ff78" y="327.864949"/>
      </g>
     </g>
     <g id="text_13">
      <!-- 5000 -->
      <g transform="translate(75.55 331.664168)scale(0.1 -0.1)">
       <use xlink:href="#DejaVuSans-53"/>
       <use x="63.623047" xlink:href="#DejaVuSans-48"/>
       <use x="127.246094" xlink:href="#DejaVuSans-48"/>
       <use x="190.869141" xlink:href="#DejaVuSans-48"/>
      </g>
     </g>
    </g>
    <g id="ytick_3">
     <g id="line2d_13">
      <g>
       <use style="stroke:#000000;stroke-width:0.8;" x="108" xlink:href="#m6cd823ff78" y="289.733636"/>
      </g>
     </g>
     <g id="text_14">
      <!-- 6000 -->
      <g transform="translate(75.55 293.532855)scale(0.1 -0.1)">
       <use xlink:href="#DejaVuSans-54"/>
       <use x="63.623047" xlink:href="#DejaVuSans-48"/>
       <use x="127.246094" xlink:href="#DejaVuSans-48"/>
       <use x="190.869141" xlink:href="#DejaVuSans-48"/>
      </g>
     </g>
    </g>
    <g id="ytick_4">
     <g id="line2d_14">
      <g>
       <use style="stroke:#000000;stroke-width:0.8;" x="108" xlink:href="#m6cd823ff78" y="251.602323"/>
      </g>
     </g>
     <g id="text_15">
      <!-- 7000 -->
      <g transform="translate(75.55 255.401542)scale(0.1 -0.1)">
       <use xlink:href="#DejaVuSans-55"/>
       <use x="63.623047" xlink:href="#DejaVuSans-48"/>
       <use x="127.246094" xlink:href="#DejaVuSans-48"/>
       <use x="190.869141" xlink:href="#DejaVuSans-48"/>
      </g>
     </g>
    </g>
    <g id="ytick_5">
     <g id="line2d_15">
      <g>
       <use style="stroke:#000000;stroke-width:0.8;" x="108" xlink:href="#m6cd823ff78" y="213.47101"/>
      </g>
     </g>
     <g id="text_16">
      <!-- 8000 -->
      <g transform="translate(75.55 217.270229)scale(0.1 -0.1)">
       <use xlink:href="#DejaVuSans-56"/>
       <use x="63.623047" xlink:href="#DejaVuSans-48"/>
       <use x="127.246094" xlink:href="#DejaVuSans-48"/>
       <use x="190.869141" xlink:href="#DejaVuSans-48"/>
      </g>
     </g>
    </g>
    <g id="ytick_6">
     <g id="line2d_16">
      <g>
       <use style="stroke:#000000;stroke-width:0.8;" x="108" xlink:href="#m6cd823ff78" y="175.339697"/>
      </g>
     </g>
     <g id="text_17">
      <!-- 9000 -->
      <g transform="translate(75.55 179.138916)scale(0.1 -0.1)">
       <use xlink:href="#DejaVuSans-57"/>
       <use x="63.623047" xlink:href="#DejaVuSans-48"/>
       <use x="127.246094" xlink:href="#DejaVuSans-48"/>
       <use x="190.869141" xlink:href="#DejaVuSans-48"/>
      </g>
     </g>
    </g>
    <g id="ytick_7">
     <g id="line2d_17">
      <g>
       <use style="stroke:#000000;stroke-width:0.8;" x="108" xlink:href="#m6cd823ff78" y="137.208384"/>
      </g>
     </g>
     <g id="text_18">
      <!-- 10000 -->
      <g transform="translate(69.1875 141.007603)scale(0.1 -0.1)">
       <use xlink:href="#DejaVuSans-49"/>
       <use x="63.623047" xlink:href="#DejaVuSans-48"/>
       <use x="127.246094" xlink:href="#DejaVuSans-48"/>
       <use x="190.869141" xlink:href="#DejaVuSans-48"/>
       <use x="254.492188" xlink:href="#DejaVuSans-48"/>
      </g>
     </g>
    </g>
    <g id="ytick_8">
     <g id="line2d_18">
      <g>
       <use style="stroke:#000000;stroke-width:0.8;" x="108" xlink:href="#m6cd823ff78" y="99.077071"/>
      </g>
     </g>
     <g id="text_19">
      <!-- 11000 -->
      <g transform="translate(69.1875 102.876289)scale(0.1 -0.1)">
       <use xlink:href="#DejaVuSans-49"/>
       <use x="63.623047" xlink:href="#DejaVuSans-49"/>
       <use x="127.246094" xlink:href="#DejaVuSans-48"/>
       <use x="190.869141" xlink:href="#DejaVuSans-48"/>
       <use x="254.492188" xlink:href="#DejaVuSans-48"/>
      </g>
     </g>
    </g>
    <g id="ytick_9">
     <g id="line2d_19">
      <g>
       <use style="stroke:#000000;stroke-width:0.8;" x="108" xlink:href="#m6cd823ff78" y="60.945758"/>
      </g>
     </g>
     <g id="text_20">
      <!-- 12000 -->
      <g transform="translate(69.1875 64.744976)scale(0.1 -0.1)">
       <use xlink:href="#DejaVuSans-49"/>
       <use x="63.623047" xlink:href="#DejaVuSans-50"/>
       <use x="127.246094" xlink:href="#DejaVuSans-48"/>
       <use x="190.869141" xlink:href="#DejaVuSans-48"/>
       <use x="254.492188" xlink:href="#DejaVuSans-48"/>
      </g>
     </g>
    </g>
    <g id="text_21">
     <!-- Calls -->
     <g transform="translate(63.107813 226.858281)rotate(-90)scale(0.1 -0.1)">
      <defs>
       <path d="M 64.40625 67.28125 
L 64.40625 56.890625 
Q 59.421875 61.53125 53.78125 63.8125 
Q 48.140625 66.109375 41.796875 66.109375 
Q 29.296875 66.109375 22.65625 58.46875 
Q 16.015625 50.828125 16.015625 36.375 
Q 16.015625 21.96875 22.65625 14.328125 
Q 29.296875 6.6875 41.796875 6.6875 
Q 48.140625 6.6875 53.78125 8.984375 
Q 59.421875 11.28125 64.40625 15.921875 
L 64.40625 5.609375 
Q 59.234375 2.09375 53.4375 0.328125 
Q 47.65625 -1.421875 41.21875 -1.421875 
Q 24.65625 -1.421875 15.125 8.703125 
Q 5.609375 18.84375 5.609375 36.375 
Q 5.609375 53.953125 15.125 64.078125 
Q 24.65625 74.21875 41.21875 74.21875 
Q 47.75 74.21875 53.53125 72.484375 
Q 59.328125 70.75 64.40625 67.28125 
z
" id="DejaVuSans-67"/>
       <path d="M 9.421875 75.984375 
L 18.40625 75.984375 
L 18.40625 0 
L 9.421875 0 
z
" id="DejaVuSans-108"/>
       <path d="M 44.28125 53.078125 
L 44.28125 44.578125 
Q 40.484375 46.53125 36.375 47.5 
Q 32.28125 48.484375 27.875 48.484375 
Q 21.1875 48.484375 17.84375 46.4375 
Q 14.5 44.390625 14.5 40.28125 
Q 14.5 37.15625 16.890625 35.375 
Q 19.28125 33.59375 26.515625 31.984375 
L 29.59375 31.296875 
Q 39.15625 29.25 43.1875 25.515625 
Q 47.21875 21.78125 47.21875 15.09375 
Q 47.21875 7.46875 41.1875 3.015625 
Q 35.15625 -1.421875 24.609375 -1.421875 
Q 20.21875 -1.421875 15.453125 -0.5625 
Q 10.6875 0.296875 5.421875 2 
L 5.421875 11.28125 
Q 10.40625 8.6875 15.234375 7.390625 
Q 20.0625 6.109375 24.8125 6.109375 
Q 31.15625 6.109375 34.5625 8.28125 
Q 37.984375 10.453125 37.984375 14.40625 
Q 37.984375 18.0625 35.515625 20.015625 
Q 33.0625 21.96875 24.703125 23.78125 
L 21.578125 24.515625 
Q 13.234375 26.265625 9.515625 29.90625 
Q 5.8125 33.546875 5.8125 39.890625 
Q 5.8125 47.609375 11.28125 51.796875 
Q 16.75 56 26.8125 56 
Q 31.78125 56 36.171875 55.265625 
Q 40.578125 54.546875 44.28125 53.078125 
z
" id="DejaVuSans-115"/>
      </defs>
      <use xlink:href="#DejaVuSans-67"/>
      <use x="69.824219" xlink:href="#DejaVuSans-97"/>
      <use x="131.103516" xlink:href="#DejaVuSans-108"/>
      <use x="158.886719" xlink:href="#DejaVuSans-108"/>
      <use x="186.669922" xlink:href="#DejaVuSans-115"/>
     </g>
    </g>
   </g>
   <g id="line2d_20">
    <path clip-path="url(#pfde4a8a28f)" d="M 138.436364 207.598788 
L 138.965232 193.413939 
L 139.4941 210.115455 
L 140.022968 249.924545 
L 140.551836 242.603333 
L 141.080705 270.97303 
L 141.609573 281.954848 
L 142.138441 228.189697 
L 142.667309 300.944242 
L 143.196177 266.626061 
L 143.725045 258.389697 
L 144.253914 287.445758 
L 144.782782 291.106364 
L 145.31165 292.479091 
L 145.840518 228.418485 
L 146.369386 260.448788 
L 146.898254 242.374545 
L 147.427123 260.448788 
L 147.955991 187.694242 
L 148.484859 279.438182 
L 149.013727 220.410909 
L 149.542595 300.715455 
L 150.071464 321.535152 
L 150.600332 332.288182 
L 151.1292 294.309394 
L 151.658068 267.77 
L 152.186936 227.960909 
L 152.715804 256.559394 
L 153.244673 230.477576 
L 153.773541 311.697273 
L 154.302409 198.218485 
L 154.831277 221.783636 
L 155.360145 224.300303 
L 155.889014 200.506364 
L 156.417882 211.030606 
L 156.94675 236.197273 
L 157.475618 180.37303 
L 158.004486 270.515455 
L 158.533354 221.554848 
L 159.062223 252.441212 
L 159.591091 232.079091 
L 160.119959 235.053333 
L 160.648827 199.362424 
L 161.177695 208.285152 
L 161.706563 225.901818 
L 162.235432 173.509394 
L 162.7643 192.498788 
L 163.293168 206.454848 
L 163.822036 200.048788 
L 164.350904 297.741212 
L 164.879773 198.904848 
L 165.408641 270.057879 
L 165.937509 220.182121 
L 166.466377 277.836667 
L 166.995245 205.997273 
L 167.524113 208.742727 
L 168.052982 286.530606 
L 168.58185 283.098788 
L 169.110718 252.212424 
L 169.639586 187.92303 
L 170.168454 213.318485 
L 170.697322 226.588182 
L 171.755059 178.313939 
L 172.283927 159.095758 
L 172.812795 193.871515 
L 173.341663 159.095758 
L 173.870532 159.553333 
L 174.3994 241.688182 
L 174.928268 260.677576 
L 175.986004 224.529091 
L 176.514872 272.11697 
L 177.043741 183.347273 
L 177.572609 207.37 
L 178.101477 192.956364 
L 178.630345 209.886667 
L 179.159213 254.729091 
L 179.688082 255.644242 
L 180.21695 257.703333 
L 180.745818 192.041212 
L 181.274686 184.72 
L 181.803554 211.259394 
L 182.332422 201.421515 
L 182.861291 292.936667 
L 183.390159 241.230606 
L 183.919027 221.326061 
L 184.447895 176.712424 
L 185.505631 266.854848 
L 186.0345 262.736667 
L 186.563368 185.177576 
L 187.092236 247.179091 
L 187.621104 199.133636 
L 188.149972 193.413939 
L 188.678841 192.498788 
L 189.207709 148.571515 
L 189.736577 196.61697 
L 190.265445 174.424545 
L 190.794313 193.185152 
L 191.323181 237.341212 
L 191.85205 156.579091 
L 192.380918 208.513939 
L 192.909786 174.882121 
L 193.438654 166.645758 
L 194.49639 280.810909 
L 195.025259 305.291212 
L 195.554127 234.36697 
L 196.082995 261.363939 
L 196.611863 256.559394 
L 197.140731 254.500303 
L 197.6696 181.288182 
L 198.198468 272.574545 
L 198.727336 293.851818 
L 199.256204 237.57 
L 199.785072 232.994242 
L 200.31394 263.651818 
L 200.842809 249.238182 
L 201.371677 252.441212 
L 201.900545 271.430606 
L 202.429413 281.726061 
L 202.958281 116.77 
L 203.48715 122.260909 
L 204.016018 155.663939 
L 204.544886 143.309394 
L 205.073754 165.501818 
L 205.602622 175.110909 
L 206.13149 293.394242 
L 206.660359 235.282121 
L 207.189227 257.703333 
L 207.718095 232.307879 
L 208.246963 193.413939 
L 208.775831 203.709394 
L 209.304699 260.677576 
L 209.833568 298.198788 
L 210.362436 236.197273 
L 210.891304 246.492727 
L 211.420172 269.142727 
L 211.94904 187.92303 
L 212.477909 212.403333 
L 213.006777 277.607879 
L 213.535645 205.310909 
L 214.064513 264.795758 
L 214.593381 210.344242 
L 215.122249 197.074545 
L 215.651118 246.263939 
L 216.179986 210.344242 
L 216.708854 227.732121 
L 217.237722 251.983636 
L 217.76659 257.703333 
L 218.295458 190.897273 
L 218.824327 179.686667 
L 219.353195 163.213939 
L 219.882063 161.383636 
L 220.410931 237.112424 
L 220.939799 231.163939 
L 221.997536 230.248788 
L 222.526404 191.812424 
L 223.055272 184.948788 
L 223.58414 267.541212 
L 224.641877 205.768485 
L 225.170745 268.227576 
L 225.699613 242.832121 
L 226.228481 193.871515 
L 226.757349 202.794242 
L 227.286218 220.182121 
L 227.815086 264.56697 
L 228.343954 284.929091 
L 228.872822 216.292727 
L 229.40169 237.798788 
L 229.930558 193.185152 
L 230.459427 202.565455 
L 230.988295 297.054848 
L 231.517163 219.495758 
L 232.046031 315.357879 
L 232.574899 192.498788 
L 233.103767 227.274545 
L 233.632636 254.500303 
L 234.161504 206.912424 
L 234.690372 193.642727 
L 235.21924 270.97303 
L 235.748108 218.351818 
L 236.276977 213.318485 
L 236.805845 236.426061 
L 237.334713 208.285152 
L 238.392449 286.988182 
L 238.921317 244.891212 
L 239.450186 219.495758 
L 239.979054 220.410909 
L 240.507922 216.979091 
L 241.03679 274.633636 
L 241.565658 254.271515 
L 242.094526 223.842727 
L 242.623395 253.356364 
L 243.152263 228.189697 
L 243.681131 264.338182 
L 244.209999 243.976061 
L 244.738867 209.886667 
L 245.267736 234.824545 
L 245.796604 280.810909 
L 246.325472 264.56697 
L 246.85434 327.712424 
L 247.383208 192.727576 
L 247.912076 281.954848 
L 248.440945 285.615455 
L 248.969813 275.777576 
L 249.498681 311.468485 
L 250.027549 214.233636 
L 250.556417 300.029091 
L 251.085286 294.538182 
L 251.614154 152.460909 
L 252.143022 267.77 
L 252.67189 200.048788 
L 253.729626 306.435152 
L 254.787363 247.865455 
L 255.316231 268.685152 
L 255.845099 252.898788 
L 256.373967 300.029091 
L 256.902835 247.407879 
L 257.431704 246.263939 
L 257.960572 286.988182 
L 258.48944 224.529091 
L 259.018308 206.226061 
L 259.547176 305.062424 
L 260.076045 263.651818 
L 261.133781 296.597273 
L 261.662649 321.763939 
L 262.191517 213.547273 
L 262.720385 257.245758 
L 263.249254 203.709394 
L 263.778122 232.765455 
L 264.30699 224.071515 
L 264.835858 273.032121 
L 265.364726 307.807879 
L 265.893595 268.456364 
L 266.422463 265.939697 
L 266.951331 275.091212 
L 267.480199 272.574545 
L 268.009067 196.845758 
L 268.537935 299.342727 
L 269.066804 307.579091 
L 269.595672 225.901818 
L 270.12454 235.510909 
L 270.653408 248.32303 
L 271.182276 283.098788 
L 271.711144 285.157879 
L 272.240013 253.813939 
L 272.768881 247.865455 
L 273.297749 232.307879 
L 273.826617 247.179091 
L 274.355485 292.250303 
L 274.884354 323.365455 
L 275.413222 297.283636 
L 275.94209 265.253333 
L 276.470958 339.609394 
L 276.999826 259.304848 
L 277.528694 271.430606 
L 278.057563 318.560909 
L 278.586431 289.733636 
L 279.115299 308.951818 
L 279.644167 321.306364 
L 280.701903 262.507879 
L 281.230772 258.160909 
L 281.75964 286.07303 
L 282.288508 239.171515 
L 282.817376 309.638182 
L 283.346244 299.113939 
L 283.875113 276.921515 
L 284.403981 192.498788 
L 285.461717 217.207879 
L 285.990585 203.251818 
L 286.519453 287.674545 
L 287.048322 245.806364 
L 288.106058 311.926061 
L 288.634926 313.527576 
L 289.163794 290.648788 
L 289.692663 273.947273 
L 290.750399 340.524545 
L 291.279267 363.174545 
L 291.808135 278.294242 
L 292.337003 253.585152 
L 292.865872 330.915455 
L 293.39474 330.229091 
L 293.923608 256.559394 
L 294.452476 305.291212 
L 294.981344 266.168485 
L 295.510212 242.145758 
L 296.039081 312.612424 
L 296.567949 333.203333 
L 297.096817 320.391212 
L 297.625685 277.150303 
L 298.154553 311.010909 
L 298.683422 299.571515 
L 299.21229 243.518485 
L 299.741158 293.394242 
L 300.270026 259.762424 
L 300.798894 181.288182 
L 301.327762 232.765455 
L 302.385499 293.62303 
L 302.914367 181.288182 
L 303.443235 259.304848 
L 303.972103 188.151818 
L 304.500971 281.954848 
L 305.02984 250.382121 
L 305.558708 227.274545 
L 306.087576 236.426061 
L 306.616444 300.257879 
L 307.145312 258.618485 
L 307.674181 294.76697 
L 308.203049 220.639697 
L 308.731917 241.230606 
L 309.260785 233.909394 
L 309.789653 317.645758 
L 310.318521 296.826061 
L 310.84739 296.597273 
L 311.905126 210.115455 
L 312.962862 313.07 
L 313.491731 289.962424 
L 314.020599 258.389697 
L 314.549467 238.713939 
L 315.078335 134.386667 
L 315.607203 165.959394 
L 316.136071 189.982121 
L 316.66494 265.482121 
L 317.193808 278.751818 
L 317.722676 187.92303 
L 318.251544 253.585152 
L 318.780412 186.779091 
L 319.30928 174.195758 
L 319.838149 207.141212 
L 320.367017 230.706364 
L 320.895885 268.227576 
L 321.424753 283.098788 
L 321.953621 244.433636 
L 322.48249 225.444242 
L 323.011358 253.813939 
L 323.540226 300.257879 
L 324.069094 227.960909 
L 324.597962 287.21697 
L 325.12683 271.201818 
L 325.655699 200.048788 
L 326.184567 197.760909 
L 326.713435 245.12 
L 327.771171 265.482121 
L 328.300039 260.906364 
L 328.828908 180.830606 
L 329.357776 187.236667 
L 329.886644 209.200303 
L 330.415512 223.842727 
L 330.94438 198.447273 
L 331.473249 145.826061 
L 332.002117 265.710909 
L 332.530985 130.726061 
L 333.059853 162.985152 
L 333.588721 222.241212 
L 334.117589 240.77303 
L 334.646458 176.483636 
L 335.175326 181.288182 
L 335.704194 286.530606 
L 336.233062 163.900303 
L 336.76193 214.92 
L 337.290799 195.701818 
L 337.819667 276.006364 
L 338.348535 205.082121 
L 338.877403 256.330606 
L 339.406271 248.32303 
L 339.935139 173.509394 
L 340.464008 216.063939 
L 340.992876 191.583636 
L 341.521744 212.860909 
L 342.050612 198.218485 
L 342.57948 195.244242 
L 343.108348 244.204848 
L 343.637217 206.454848 
L 344.166085 200.048788 
L 344.694953 180.144242 
L 345.223821 237.57 
L 345.752689 242.832121 
L 346.281558 271.888182 
L 346.810426 252.212424 
L 347.339294 128.895758 
L 347.868162 199.133636 
L 348.39703 135.301818 
L 348.925898 153.147273 
L 349.454767 246.263939 
L 349.983635 165.044242 
L 350.512503 252.898788 
L 351.041371 189.982121 
L 351.570239 158.409394 
L 352.099107 172.82303 
L 352.627976 180.601818 
L 353.156844 159.324545 
L 353.685712 216.750303 
L 354.21458 190.897273 
L 354.743448 203.709394 
L 355.272317 206.683636 
L 355.801185 256.330606 
L 356.330053 242.374545 
L 356.858921 223.156364 
L 357.387789 269.371515 
L 357.916657 287.21697 
L 358.445526 184.262424 
L 358.974394 152.232121 
L 360.03213 261.135152 
L 360.560998 249.238182 
L 361.089867 240.544242 
L 361.618735 192.956364 
L 362.147603 209.200303 
L 362.676471 247.865455 
L 363.205339 164.129091 
L 363.734207 105.559394 
L 364.263076 143.309394 
L 364.791944 240.315455 
L 365.320812 208.285152 
L 365.84968 141.936667 
L 366.378548 203.251818 
L 366.907416 151.31697 
L 367.436285 168.247273 
L 367.965153 254.500303 
L 368.494021 163.442727 
L 369.022889 220.639697 
L 369.551757 168.704848 
L 370.080626 142.851818 
L 370.609494 199.133636 
L 371.138362 234.36697 
L 371.66723 223.842727 
L 372.196098 228.876061 
L 372.724966 269.142727 
L 373.253835 199.362424 
L 373.782703 194.786667 
L 374.311571 179.457879 
L 374.840439 190.668485 
L 375.369307 253.813939 
L 375.898175 226.359394 
L 376.427044 287.674545 
L 376.955912 227.960909 
L 377.48478 222.47 
L 378.013648 211.945758 
L 378.542516 207.37 
L 379.071385 173.051818 
L 379.600253 200.048788 
L 380.129121 218.809394 
L 380.657989 182.889697 
L 381.186857 166.645758 
L 381.715725 122.032121 
L 382.244594 229.562424 
L 382.773462 239.629091 
L 383.30233 236.426061 
L 383.831198 218.12303 
L 384.360066 243.976061 
L 384.888935 218.351818 
L 385.417803 231.621515 
L 385.946671 253.127576 
L 386.475539 161.841212 
L 387.004407 182.660909 
L 387.533275 176.026061 
L 388.591012 151.545758 
L 389.11988 154.977576 
L 389.648748 245.806364 
L 390.177616 211.488182 
L 390.706484 206.226061 
L 391.235353 225.444242 
L 391.764221 231.392727 
L 392.293089 198.218485 
L 392.821957 215.148788 
L 393.350825 198.218485 
L 393.879694 247.636667 
L 394.408562 185.863939 
L 394.93743 277.379091 
L 395.466298 220.410909 
L 395.995166 119.057879 
L 396.524034 134.615455 
L 397.052903 161.154848 
L 397.581771 232.307879 
L 398.110639 149.715455 
L 398.639507 264.795758 
L 399.168375 168.704848 
L 399.697244 168.247273 
L 400.226112 186.321515 
L 400.75498 212.860909 
L 401.283848 159.095758 
L 401.812716 230.706364 
L 402.341584 274.176061 
L 402.870453 161.612424 
L 403.399321 181.288182 
L 403.928189 170.992727 
L 404.457057 175.110909 
L 404.985925 183.118485 
L 405.514793 184.948788 
L 406.043662 197.989697 
L 406.57253 201.421515 
L 407.101398 192.27 
L 407.630266 228.647273 
L 408.159134 169.391212 
L 408.688003 248.094242 
L 409.216871 179.915455 
L 409.745739 236.883636 
L 410.274607 230.02 
L 410.803475 154.52 
L 411.332343 254.500303 
L 411.861212 224.529091 
L 412.39008 167.332121 
L 412.918948 178.313939 
L 413.447816 166.645758 
L 413.976684 206.683636 
L 414.505552 202.794242 
L 415.034421 213.089697 
L 415.563289 238.713939 
L 416.092157 252.441212 
L 416.621025 229.333636 
L 417.149893 191.126061 
L 417.678762 210.801818 
L 418.20763 210.57303 
L 418.736498 150.401818 
L 419.265366 264.338182 
L 419.794234 190.439697 
L 420.323102 176.712424 
L 420.851971 283.327576 
L 421.380839 177.398788 
L 421.909707 243.060909 
L 422.438575 211.030606 
L 422.967443 193.871515 
L 423.496312 221.326061 
L 424.02518 178.313939 
L 424.554048 260.448788 
L 425.082916 247.179091 
L 425.611784 187.92303 
L 426.140652 219.724545 
L 426.669521 263.42303 
L 427.198389 182.660909 
L 427.727257 201.879091 
L 428.256125 159.553333 
L 428.784993 195.015455 
L 429.84273 182.203333 
L 430.371598 142.851818 
L 431.429334 273.489697 
L 431.958202 251.068485 
L 432.487071 153.833636 
L 434.073675 249.695758 
L 434.602543 271.888182 
L 435.131411 252.67 
L 435.66028 216.979091 
L 436.189148 173.280606 
L 436.718016 223.842727 
L 437.246884 231.850303 
L 437.775752 195.47303 
L 438.30462 235.053333 
L 438.833489 252.898788 
L 439.362357 249.238182 
L 439.891225 228.876061 
L 440.420093 200.277576 
L 440.948961 228.418485 
L 441.47783 219.038182 
L 442.006698 194.329091 
L 442.535566 272.11697 
L 443.593302 165.501818 
L 444.12217 243.976061 
L 444.651039 139.877576 
L 445.179907 184.262424 
L 445.708775 157.494242 
L 446.237643 226.81697 
L 446.766511 248.32303 
L 447.29538 232.765455 
L 447.824248 227.274545 
L 448.353116 246.721515 
L 448.881984 276.006364 
L 449.410852 254.271515 
L 449.93972 245.12 
L 450.468589 276.006364 
L 450.997457 190.210909 
L 451.526325 201.192727 
L 452.055193 243.747273 
L 452.584061 244.662424 
L 453.112929 256.559394 
L 454.170666 300.257879 
L 454.699534 284.929091 
L 455.228402 223.385152 
L 455.75727 225.901818 
L 456.286139 287.903333 
L 456.815007 274.404848 
L 457.343875 272.803333 
L 457.872743 307.579091 
L 458.401611 288.132121 
L 458.930479 227.503333 
L 459.459348 284.013939 
L 459.988216 227.960909 
L 460.517084 210.344242 
L 461.045952 288.589697 
L 461.57482 277.836667 
L 462.103688 245.577576 
L 462.632557 197.989697 
L 463.690293 253.356364 
L 464.219161 262.507879 
L 464.748029 238.713939 
L 465.276898 274.862424 
L 465.805766 283.556364 
L 466.334634 228.647273 
L 466.863502 272.574545 
L 467.39237 271.430606 
L 467.921238 306.663939 
L 468.450107 227.960909 
L 468.978975 313.985152 
L 469.507843 286.07303 
L 470.036711 290.191212 
L 470.565579 262.507879 
L 471.094448 221.097273 
L 471.623316 249.238182 
L 472.152184 245.806364 
L 472.681052 333.432121 
L 473.20992 225.215455 
L 473.738788 296.826061 
L 474.267657 268.456364 
L 474.796525 252.441212 
L 475.325393 232.765455 
L 475.854261 273.260909 
L 476.383129 331.37303 
L 476.911997 175.110909 
L 477.440866 243.060909 
L 477.969734 271.430606 
L 478.498602 260.906364 
L 479.02747 196.845758 
L 479.556338 232.307879 
L 480.085207 233.451818 
L 480.614075 197.760909 
L 481.142943 205.768485 
L 481.671811 195.930606 
L 482.200679 257.932121 
L 482.729547 237.341212 
L 483.258416 265.253333 
L 483.787284 260.906364 
L 484.316152 259.076061 
L 484.84502 211.945758 
L 485.373888 299.571515 
L 485.902756 212.174545 
L 486.431625 210.115455 
L 486.960493 297.054848 
L 487.489361 256.788182 
L 488.018229 308.265455 
L 488.547097 295.910909 
L 489.075966 271.201818 
L 489.604834 315.129091 
L 490.133702 266.168485 
L 490.66257 256.788182 
L 491.191438 274.862424 
L 491.720306 235.739697 
L 492.249175 309.409394 
L 492.778043 273.032121 
L 493.306911 198.218485 
L 493.835779 215.835152 
L 494.364647 189.982121 
L 494.893516 225.444242 
L 495.951252 235.739697 
L 496.48012 253.127576 
L 497.008988 214.92 
L 497.537856 201.650303 
L 498.066725 213.089697 
L 498.595593 266.626061 
L 499.124461 267.77 
L 499.653329 235.968485 
L 500.182197 250.153333 
L 500.711065 244.891212 
L 501.239934 294.76697 
L 501.768802 221.554848 
L 502.29767 240.77303 
L 502.826538 210.57303 
L 503.355406 263.880606 
L 503.884275 183.576061 
L 504.413143 291.335152 
L 504.942011 189.295758 
L 505.470879 294.76697 
L 505.999747 303.689697 
L 506.528615 287.21697 
L 507.057484 192.727576 
L 507.586352 179.915455 
L 508.11522 131.412424 
L 508.644088 182.889697 
L 509.172956 214.233636 
L 509.701825 222.927576 
L 510.230693 152.918485 
L 510.759561 197.989697 
L 511.288429 157.72303 
L 511.817297 237.57 
L 512.875034 205.997273 
L 513.403902 224.757879 
L 513.93277 172.594242 
L 514.461638 157.036667 
L 514.990506 246.492727 
L 515.519374 163.671515 
L 516.048243 228.647273 
L 516.577111 216.063939 
L 517.105979 216.521515 
L 517.634847 188.838182 
L 518.163715 262.736667 
L 518.692584 207.141212 
L 519.221452 247.179091 
L 519.75032 240.544242 
L 520.279188 266.397273 
L 520.808056 242.145758 
L 521.336924 225.67303 
L 521.865793 233.680606 
L 522.394661 256.330606 
L 522.923529 206.226061 
L 523.452397 193.413939 
L 523.981265 213.089697 
L 524.510133 155.435152 
L 525.039002 150.859394 
L 525.56787 173.509394 
L 526.096738 115.626061 
L 526.625606 216.063939 
L 527.154474 150.401818 
L 527.683343 205.768485 
L 528.212211 203.251818 
L 528.741079 158.638182 
L 529.798815 225.444242 
L 530.327683 134.157879 
L 530.856552 196.159394 
L 531.38542 194.786667 
L 531.914288 221.783636 
L 532.443156 207.37 
L 532.972024 134.615455 
L 533.500893 200.048788 
L 534.029761 248.551818 
L 534.558629 154.977576 
L 535.087497 164.357879 
L 536.145233 208.285152 
L 536.674102 197.760909 
L 537.20297 168.704848 
L 537.731838 155.435152 
L 538.260706 205.082121 
L 538.789574 206.683636 
L 539.318442 197.760909 
L 539.847311 156.121515 
L 540.376179 148.113939 
L 540.905047 179.915455 
L 541.433915 188.609394 
L 541.962783 172.365455 
L 542.491652 150.859394 
L 543.02052 141.707879 
L 543.549388 125.006364 
L 544.078256 172.365455 
L 544.607124 199.82 
L 545.135992 192.041212 
L 545.664861 203.251818 
L 546.193729 158.86697 
L 546.722597 206.226061 
L 547.251465 204.16697 
L 547.780333 213.776061 
L 548.309201 157.036667 
L 548.83807 231.850303 
L 549.366938 139.42 
L 549.895806 258.389697 
L 550.424674 195.930606 
L 550.953542 150.401818 
L 552.011279 235.510909 
L 552.540147 182.432121 
L 553.069015 229.791212 
L 553.597883 208.285152 
L 554.126751 235.282121 
L 554.65562 180.601818 
L 555.184488 204.853333 
L 555.713356 211.030606 
L 556.242224 236.654848 
L 556.771092 108.533636 
L 557.299961 184.262424 
L 557.828829 143.538182 
L 558.357697 84.968485 
L 558.886565 136.445758 
L 559.415433 168.476061 
L 560.47317 205.539697 
L 561.002038 163.213939 
L 561.530906 249.009394 
L 562.059774 174.882121 
L 562.588642 122.718485 
L 563.11751 112.880606 
L 563.646379 181.974545 
L 564.175247 175.568485 
L 565.232983 232.994242 
L 565.761851 198.904848 
L 566.29072 119.97303 
L 567.348456 217.207879 
L 567.877324 238.027576 
L 568.406192 152.460909 
L 568.93506 207.827576 
L 569.463929 132.556364 
L 569.992797 139.191212 
L 570.521665 210.801818 
L 571.050533 152.918485 
L 571.579401 155.892727 
L 572.108269 225.215455 
L 572.637138 166.188182 
L 573.166006 121.345758 
L 573.694874 187.007879 
L 574.223742 181.288182 
L 574.75261 192.727576 
L 575.281479 157.72303 
L 575.810347 159.324545 
L 576.339215 197.532121 
L 576.868083 162.527576 
L 577.396951 146.054848 
L 577.925819 162.07 
L 578.454688 115.397273 
L 578.983556 163.900303 
L 579.512424 135.301818 
L 580.041292 185.177576 
L 580.57016 138.733636 
L 581.099029 167.332121 
L 581.627897 161.841212 
L 582.156765 160.926061 
L 582.685633 223.385152 
L 583.214501 192.498788 
L 583.743369 252.441212 
L 584.801106 160.239697 
L 585.329974 191.126061 
L 585.858842 201.192727 
L 586.38771 218.351818 
L 586.916578 247.407879 
L 587.445447 199.133636 
L 587.974315 196.61697 
L 588.503183 198.447273 
L 589.032051 170.992727 
L 589.560919 174.424545 
L 590.089788 145.597273 
L 590.618656 177.398788 
L 591.147524 173.280606 
L 591.676392 201.192727 
L 592.20526 171.221515 
L 592.734128 187.694242 
L 593.262997 216.292727 
L 593.791865 197.989697 
L 594.320733 225.215455 
L 594.849601 210.801818 
L 595.378469 212.860909 
L 595.907337 131.641212 
L 596.436206 201.879091 
L 596.965074 150.630606 
L 597.493942 219.495758 
L 598.02281 233.680606 
L 598.551678 166.645758 
L 599.080547 201.879091 
L 599.609415 137.360909 
L 600.138283 161.841212 
L 600.667151 145.368485 
L 601.196019 172.594242 
L 601.724887 154.062424 
L 602.253756 186.321515 
L 602.782624 170.077576 
L 603.84036 211.030606 
L 604.369228 204.16697 
L 604.898097 145.597273 
L 605.426965 112.651818 
L 605.955833 137.132121 
L 606.484701 112.194242 
L 607.013569 165.044242 
L 607.542437 108.533636 
L 608.600174 162.527576 
L 609.65791 189.753333 
L 610.186778 217.436667 
L 610.715646 156.121515 
L 611.244515 152.232121 
L 611.773383 213.089697 
L 612.302251 226.359394 
L 612.831119 223.156364 
L 613.359987 170.763939 
L 613.888856 225.67303 
L 614.417724 179.457879 
L 614.946592 211.945758 
L 615.47546 183.576061 
L 616.533196 158.638182 
L 617.062065 273.718485 
L 617.590933 186.779091 
L 618.119801 166.645758 
L 618.648669 199.591212 
L 619.706405 241.001818 
L 620.235274 243.060909 
L 620.764142 223.613939 
L 621.29301 157.951818 
L 622.350746 190.897273 
L 622.879615 130.039697 
L 623.937351 222.47 
L 624.466219 231.850303 
L 624.995087 137.589697 
L 625.523955 142.165455 
L 626.052824 217.436667 
L 626.581692 240.086667 
L 627.11056 232.307879 
L 627.639428 163.213939 
L 628.168296 208.742727 
L 628.697165 244.204848 
L 629.226033 163.900303 
L 629.754901 143.538182 
L 630.283769 180.144242 
L 630.812637 257.245758 
L 631.341505 258.618485 
L 631.870374 181.745758 
L 632.399242 214.691212 
L 632.92811 157.494242 
L 633.456978 248.780606 
L 633.985846 232.079091 
L 634.514714 248.094242 
L 635.043583 184.262424 
L 635.572451 224.529091 
L 636.101319 226.359394 
L 636.630187 245.348788 
L 637.159055 194.329091 
L 637.687924 168.704848 
L 638.216792 131.87 
L 638.74566 220.868485 
L 639.274528 168.933636 
L 639.803396 222.927576 
L 640.332264 170.306364 
L 640.861133 227.274545 
L 641.390001 244.433636 
L 641.918869 224.071515 
L 642.447737 169.62 
L 642.976605 179.915455 
L 643.505474 228.189697 
L 644.034342 201.192727 
L 644.56321 228.189697 
L 645.092078 246.035152 
L 645.620946 268.456364 
L 646.149814 256.101818 
L 646.678683 190.210909 
L 647.207551 170.763939 
L 647.736419 243.976061 
L 648.265287 212.174545 
L 648.794155 173.051818 
L 649.323023 263.42303 
L 649.851892 220.639697 
L 650.38076 223.385152 
L 650.909628 211.71697 
L 651.438496 258.847273 
L 651.967364 190.668485 
L 652.496233 224.300303 
L 653.025101 231.850303 
L 653.553969 149.486667 
L 654.082837 220.639697 
L 654.611705 156.807879 
L 655.140573 217.436667 
L 656.19831 205.082121 
L 656.727178 203.251818 
L 657.256046 202.336667 
L 657.784914 288.818485 
L 658.313782 189.982121 
L 658.842651 253.813939 
L 659.371519 270.057879 
L 659.900387 213.089697 
L 660.429255 268.685152 
L 660.958123 285.844242 
L 661.486992 295.453333 
L 662.01586 193.185152 
L 662.544728 204.395758 
L 663.073596 176.026061 
L 663.602464 227.960909 
L 664.131332 295.682121 
L 664.660201 293.394242 
L 665.717937 236.654848 
L 666.246805 251.297273 
L 666.775673 261.363939 
L 667.304542 201.421515 
L 667.83341 188.609394 
L 668.362278 289.504848 
L 668.891146 285.157879 
L 669.420014 277.607879 
L 669.948882 198.904848 
L 670.477751 149.715455 
L 671.006619 236.197273 
L 671.535487 166.188182 
L 672.064355 223.156364 
L 673.122091 259.304848 
L 673.65096 177.17 
L 674.179828 177.856364 
L 674.708696 196.159394 
L 675.237564 192.727576 
L 676.295301 251.526061 
L 676.824169 208.971515 
L 677.353037 245.806364 
L 677.881905 166.188182 
L 678.410773 238.942727 
L 678.939641 241.91697 
L 679.46851 207.141212 
L 679.997378 234.824545 
L 680.526246 197.074545 
L 681.055114 205.997273 
L 681.583982 181.059394 
L 682.11285 279.895758 
L 682.641719 240.77303 
L 683.170587 298.885152 
L 684.228323 175.568485 
L 684.757191 193.185152 
L 685.28606 276.235152 
L 685.814928 279.209394 
L 686.343796 202.336667 
L 686.872664 232.079091 
L 687.9304 110.135152 
L 688.459269 167.560909 
L 688.988137 175.568485 
L 689.517005 137.818485 
L 690.045873 204.853333 
L 690.574741 254.500303 
L 691.10361 230.02 
L 691.632478 226.588182 
L 692.161346 194.100303 
L 692.690214 240.086667 
L 693.219082 248.32303 
L 693.74795 251.526061 
L 694.276819 173.96697 
L 694.805687 284.929091 
L 695.334555 222.47 
L 695.863423 227.274545 
L 696.392291 252.67 
L 696.921159 157.036667 
L 697.450028 163.213939 
L 697.978896 173.738182 
L 698.507764 275.091212 
L 699.036632 162.985152 
L 699.5655 191.812424 
L 700.094369 155.435152 
L 700.623237 260.677576 
L 701.152105 114.024545 
L 701.680973 113.56697 
L 702.209841 136.21697 
L 702.738709 140.792727 
L 703.267578 163.442727 
L 703.796446 209.200303 
L 704.325314 149.257879 
L 704.854182 174.653333 
L 705.38305 181.974545 
L 705.911918 241.91697 
L 707.498523 116.77 
L 708.556259 215.606364 
L 709.085128 140.792727 
L 709.613996 189.982121 
L 710.142864 228.418485 
L 710.671732 146.054848 
L 711.2006 134.157879 
L 711.729468 150.17303 
L 712.258337 185.177576 
L 712.787205 236.883636 
L 713.316073 164.129091 
L 713.844941 185.863939 
L 714.373809 136.903333 
L 714.902678 234.595758 
L 715.431546 137.360909 
L 715.960414 210.57303 
L 716.489282 238.027576 
L 717.01815 246.492727 
L 717.547018 66.665455 
L 718.075887 102.127576 
L 718.604755 86.57 
L 719.133623 127.294242 
L 719.662491 158.409394 
L 720.191359 141.021515 
L 720.720227 212.174545 
L 721.249096 145.368485 
L 721.777964 135.301818 
L 722.306832 112.880606 
L 722.8357 173.96697 
L 723.364568 203.709394 
L 723.893437 165.27303 
L 724.422305 244.433636 
L 724.951173 108.762424 
L 725.480041 202.565455 
L 726.008909 172.594242 
L 726.537777 155.435152 
L 727.066646 163.442727 
L 727.595514 136.903333 
L 728.124382 152.918485 
L 728.65325 211.259394 
L 729.182118 128.895758 
L 729.710986 110.821515 
L 730.239855 180.601818 
L 730.768723 193.185152 
L 731.297591 187.92303 
L 731.826459 239.629091 
L 732.355327 168.018485 
L 732.884196 125.921515 
L 733.413064 118.371515 
L 733.941932 152.232121 
L 734.4708 70.783636 
L 734.999668 86.341212 
L 735.528536 135.530606 
L 736.586273 101.212424 
L 737.115141 123.176061 
L 737.644009 150.630606 
L 738.172877 112.880606 
L 738.701746 196.159394 
L 739.230614 211.945758 
L 739.759482 110.592727 
L 740.28835 157.036667 
L 740.817218 155.206364 
L 741.346086 104.186667 
L 741.874955 183.347273 
L 742.403823 117.227576 
L 742.932691 201.421515 
L 743.461559 171.450303 
L 743.990427 188.151818 
L 744.519295 157.036667 
L 745.048164 192.727576 
L 745.577032 182.432121 
L 746.1059 143.080606 
L 746.634768 141.707879 
L 747.163636 183.347273 
L 747.163636 183.347273 
" style="fill:none;stroke:#1f77b4;stroke-linecap:square;stroke-opacity:0.5;stroke-width:1.5;"/>
   </g>
   <g id="line2d_21">
    <path clip-path="url(#pfde4a8a28f)" d="M 626.052824 177.409951 
L 627.639428 216.291722 
L 628.168296 218.974833 
L 628.697165 187.839522 
L 629.226033 187.481393 
L 629.754901 198.775409 
L 630.283769 203.294344 
L 631.341505 219.708103 
L 631.870374 228.356825 
L 632.399242 195.791902 
L 632.92811 197.134491 
L 633.456978 203.640499 
L 633.985846 207.625924 
L 634.514714 215.782585 
L 635.572451 236.081947 
L 636.101319 201.631748 
L 636.630187 201.830317 
L 637.159055 213.228087 
L 637.687924 172.265956 
L 638.216792 182.348052 
L 638.74566 201.825681 
L 639.274528 216.110565 
L 639.803396 210.345327 
L 640.332264 213.948066 
L 641.390001 232.4922 
L 641.918869 236.08266 
L 642.447737 242.013654 
L 642.976605 251.667996 
L 643.505474 210.31641 
L 644.034342 207.176431 
L 644.56321 220.670031 
L 645.092078 230.793452 
L 645.620946 236.98351 
L 646.678683 268.928446 
L 647.207551 235.256483 
L 647.736419 232.085317 
L 648.265287 231.348222 
L 648.794155 236.854758 
L 649.851892 254.465867 
L 650.38076 269.436835 
L 650.909628 239.90156 
L 651.438496 239.488651 
L 651.967364 242.827335 
L 652.496233 243.749696 
L 653.025101 243.423077 
L 653.553969 231.721453 
L 654.082837 249.446112 
L 654.611705 215.866905 
L 655.140573 215.301058 
L 655.669442 218.992942 
L 656.19831 225.398199 
L 657.256046 241.923097 
L 657.784914 253.214825 
L 658.313782 232.404501 
L 658.842651 230.391588 
L 660.958123 255.765131 
L 661.486992 274.711711 
L 662.01586 247.56438 
L 662.544728 247.638607 
L 663.073596 249.764051 
L 663.602464 244.017409 
L 664.131332 242.713632 
L 664.660201 247.446761 
L 665.189069 278.159716 
L 665.717937 241.081782 
L 666.246805 239.955106 
L 666.775673 246.121033 
L 667.304542 244.042857 
L 667.83341 246.514587 
L 668.362278 250.994178 
L 668.891146 277.80062 
L 669.420014 239.522114 
L 669.948882 213.711156 
L 670.477751 227.615447 
L 671.006619 233.483974 
L 671.535487 233.528529 
L 672.064355 229.442744 
L 672.593223 238.003361 
L 673.122091 221.207326 
L 673.65096 221.461074 
L 674.179828 226.990941 
L 674.708696 229.767064 
L 675.237564 244.467449 
L 676.295301 259.733499 
L 676.824169 250.382674 
L 677.353037 249.605065 
L 677.881905 251.111989 
L 678.410773 253.764248 
L 678.939641 245.797597 
L 679.46851 251.318904 
L 679.997378 267.831246 
L 680.526246 272.689715 
L 681.055114 284.664532 
L 681.583982 284.802617 
L 682.11285 286.120545 
L 682.641719 281.866981 
L 683.699455 275.483699 
L 684.228323 269.31166 
L 684.757191 274.733857 
L 685.28606 277.370004 
L 685.814928 276.369454 
L 686.343796 212.343637 
L 686.872664 213.907235 
L 687.401532 225.431215 
L 687.9304 223.614154 
L 688.459269 229.009092 
L 688.988137 227.948117 
L 689.517005 227.368363 
L 690.045873 220.471386 
L 690.574741 224.705982 
L 691.10361 234.935179 
L 691.632478 248.506554 
L 692.161346 250.525591 
L 692.690214 249.880145 
L 693.219082 249.955847 
L 693.74795 249.516993 
L 694.276819 249.295987 
L 694.805687 250.956072 
L 695.334555 240.702575 
L 695.863423 239.644176 
L 696.392291 241.870629 
L 696.921159 235.169991 
L 697.450028 247.740389 
L 697.978896 244.878956 
L 698.507764 272.363455 
L 699.036632 255.753238 
L 699.5655 253.702256 
L 700.094369 221.283643 
L 700.623237 212.210633 
L 701.152105 168.766562 
L 701.680973 195.873738 
L 702.209841 206.972985 
L 702.738709 172.970533 
L 703.267578 180.693094 
L 703.796446 186.462227 
L 704.325314 195.119136 
L 704.854182 209.560913 
L 705.38305 215.474528 
L 705.911918 219.673051 
L 706.440787 192.718088 
L 706.969655 191.387422 
L 708.027391 210.16255 
L 708.556259 212.410843 
L 709.085128 219.782499 
L 709.613996 223.44177 
L 710.142864 211.733915 
L 710.671732 215.54793 
L 711.2006 228.495387 
L 711.729468 228.796527 
L 712.258337 234.907769 
L 712.787205 238.485153 
L 713.316073 239.663982 
L 713.844941 221.681478 
L 714.373809 224.776916 
L 714.902678 226.267599 
L 715.431546 224.391993 
L 715.960414 215.05749 
L 716.489282 215.806933 
L 717.01815 218.770722 
L 717.547018 149.008405 
L 718.075887 160.853731 
L 718.604755 160.101593 
L 719.133623 167.606019 
L 719.662491 180.899248 
L 720.191359 180.904914 
L 720.720227 196.475309 
L 721.249096 177.804529 
L 721.777964 181.264895 
L 722.306832 189.549137 
L 722.8357 190.976355 
L 723.364568 186.033079 
L 723.893437 196.91115 
L 724.422305 205.0352 
L 724.951173 188.051161 
L 725.480041 186.376498 
L 726.008909 189.883317 
L 726.537777 196.516633 
L 727.066646 197.067333 
L 727.595514 193.782128 
L 728.124382 197.907821 
L 728.65325 188.567913 
L 729.710986 190.678442 
L 730.239855 191.170868 
L 730.768723 192.963197 
L 731.297591 202.83805 
L 731.826459 206.623693 
L 732.355327 185.236744 
L 732.884196 186.356153 
L 733.413064 155.697745 
L 733.941932 171.237741 
L 734.999668 168.066736 
L 735.528536 168.7536 
L 736.057405 159.129243 
L 736.586273 166.373879 
L 737.115141 179.982434 
L 737.644009 186.960664 
L 738.701746 190.400587 
L 739.230614 196.293401 
L 739.759482 182.425429 
L 740.817218 190.206921 
L 741.346086 192.382129 
L 741.874955 196.457371 
L 742.403823 202.067036 
L 742.932691 213.26873 
L 743.461559 185.485525 
L 743.990427 186.571356 
L 744.519295 197.054463 
L 745.048164 203.483273 
L 745.577032 205.86514 
L 746.634768 215.655463 
L 747.163636 191.363176 
L 747.163636 191.363176 
" style="fill:none;stroke:#9467bd;stroke-linecap:square;stroke-width:1.5;"/>
   </g>
   <g id="patch_3">
    <path d="M 108 378 
L 108 51.84 
" style="fill:none;stroke:#000000;stroke-linecap:square;stroke-linejoin:miter;stroke-width:0.8;"/>
   </g>
   <g id="patch_4">
    <path d="M 777.6 378 
L 777.6 51.84 
" style="fill:none;stroke:#000000;stroke-linecap:square;stroke-linejoin:miter;stroke-width:0.8;"/>
   </g>
   <g id="patch_5">
    <path d="M 108 378 
L 777.6 378 
" style="fill:none;stroke:#000000;stroke-linecap:square;stroke-linejoin:miter;stroke-width:0.8;"/>
   </g>
   <g id="patch_6">
    <path d="M 108 51.84 
L 777.6 51.84 
" style="fill:none;stroke:#000000;stroke-linecap:square;stroke-linejoin:miter;stroke-width:0.8;"/>
   </g>
   <g id="text_22">
    <!-- Actual and predicted Values -->
    <g transform="translate(358.930313 45.84)scale(0.12 -0.12)">
     <defs>
      <path d="M 34.1875 63.1875 
L 20.796875 26.90625 
L 47.609375 26.90625 
z
M 28.609375 72.90625 
L 39.796875 72.90625 
L 67.578125 0 
L 57.328125 0 
L 50.6875 18.703125 
L 17.828125 18.703125 
L 11.1875 0 
L 0.78125 0 
z
" id="DejaVuSans-65"/>
      <path d="M 48.78125 52.59375 
L 48.78125 44.1875 
Q 44.96875 46.296875 41.140625 47.34375 
Q 37.3125 48.390625 33.40625 48.390625 
Q 24.65625 48.390625 19.8125 42.84375 
Q 14.984375 37.3125 14.984375 27.296875 
Q 14.984375 17.28125 19.8125 11.734375 
Q 24.65625 6.203125 33.40625 6.203125 
Q 37.3125 6.203125 41.140625 7.25 
Q 44.96875 8.296875 48.78125 10.40625 
L 48.78125 2.09375 
Q 45.015625 0.34375 40.984375 -0.53125 
Q 36.96875 -1.421875 32.421875 -1.421875 
Q 20.0625 -1.421875 12.78125 6.34375 
Q 5.515625 14.109375 5.515625 27.296875 
Q 5.515625 40.671875 12.859375 48.328125 
Q 20.21875 56 33.015625 56 
Q 37.15625 56 41.109375 55.140625 
Q 45.0625 54.296875 48.78125 52.59375 
z
" id="DejaVuSans-99"/>
      <path d="M 8.5 21.578125 
L 8.5 54.6875 
L 17.484375 54.6875 
L 17.484375 21.921875 
Q 17.484375 14.15625 20.5 10.265625 
Q 23.53125 6.390625 29.59375 6.390625 
Q 36.859375 6.390625 41.078125 11.03125 
Q 45.3125 15.671875 45.3125 23.6875 
L 45.3125 54.6875 
L 54.296875 54.6875 
L 54.296875 0 
L 45.3125 0 
L 45.3125 8.40625 
Q 42.046875 3.421875 37.71875 1 
Q 33.40625 -1.421875 27.6875 -1.421875 
Q 18.265625 -1.421875 13.375 4.4375 
Q 8.5 10.296875 8.5 21.578125 
z
M 31.109375 56 
z
" id="DejaVuSans-117"/>
      <path id="DejaVuSans-32"/>
      <path d="M 54.890625 33.015625 
L 54.890625 0 
L 45.90625 0 
L 45.90625 32.71875 
Q 45.90625 40.484375 42.875 44.328125 
Q 39.84375 48.1875 33.796875 48.1875 
Q 26.515625 48.1875 22.3125 43.546875 
Q 18.109375 38.921875 18.109375 30.90625 
L 18.109375 0 
L 9.078125 0 
L 9.078125 54.6875 
L 18.109375 54.6875 
L 18.109375 46.1875 
Q 21.34375 51.125 25.703125 53.5625 
Q 30.078125 56 35.796875 56 
Q 45.21875 56 50.046875 50.171875 
Q 54.890625 44.34375 54.890625 33.015625 
z
" id="DejaVuSans-110"/>
      <path d="M 45.40625 46.390625 
L 45.40625 75.984375 
L 54.390625 75.984375 
L 54.390625 0 
L 45.40625 0 
L 45.40625 8.203125 
Q 42.578125 3.328125 38.25 0.953125 
Q 33.9375 -1.421875 27.875 -1.421875 
Q 17.96875 -1.421875 11.734375 6.484375 
Q 5.515625 14.40625 5.515625 27.296875 
Q 5.515625 40.1875 11.734375 48.09375 
Q 17.96875 56 27.875 56 
Q 33.9375 56 38.25 53.625 
Q 42.578125 51.265625 45.40625 46.390625 
z
M 14.796875 27.296875 
Q 14.796875 17.390625 18.875 11.75 
Q 22.953125 6.109375 30.078125 6.109375 
Q 37.203125 6.109375 41.296875 11.75 
Q 45.40625 17.390625 45.40625 27.296875 
Q 45.40625 37.203125 41.296875 42.84375 
Q 37.203125 48.484375 30.078125 48.484375 
Q 22.953125 48.484375 18.875 42.84375 
Q 14.796875 37.203125 14.796875 27.296875 
z
" id="DejaVuSans-100"/>
      <path d="M 18.109375 8.203125 
L 18.109375 -20.796875 
L 9.078125 -20.796875 
L 9.078125 54.6875 
L 18.109375 54.6875 
L 18.109375 46.390625 
Q 20.953125 51.265625 25.265625 53.625 
Q 29.59375 56 35.59375 56 
Q 45.5625 56 51.78125 48.09375 
Q 58.015625 40.1875 58.015625 27.296875 
Q 58.015625 14.40625 51.78125 6.484375 
Q 45.5625 -1.421875 35.59375 -1.421875 
Q 29.59375 -1.421875 25.265625 0.953125 
Q 20.953125 3.328125 18.109375 8.203125 
z
M 48.6875 27.296875 
Q 48.6875 37.203125 44.609375 42.84375 
Q 40.53125 48.484375 33.40625 48.484375 
Q 26.265625 48.484375 22.1875 42.84375 
Q 18.109375 37.203125 18.109375 27.296875 
Q 18.109375 17.390625 22.1875 11.75 
Q 26.265625 6.109375 33.40625 6.109375 
Q 40.53125 6.109375 44.609375 11.75 
Q 48.6875 17.390625 48.6875 27.296875 
z
" id="DejaVuSans-112"/>
      <path d="M 41.109375 46.296875 
Q 39.59375 47.171875 37.8125 47.578125 
Q 36.03125 48 33.890625 48 
Q 26.265625 48 22.1875 43.046875 
Q 18.109375 38.09375 18.109375 28.8125 
L 18.109375 0 
L 9.078125 0 
L 9.078125 54.6875 
L 18.109375 54.6875 
L 18.109375 46.1875 
Q 20.953125 51.171875 25.484375 53.578125 
Q 30.03125 56 36.53125 56 
Q 37.453125 56 38.578125 55.875 
Q 39.703125 55.765625 41.0625 55.515625 
z
" id="DejaVuSans-114"/>
      <path d="M 9.421875 54.6875 
L 18.40625 54.6875 
L 18.40625 0 
L 9.421875 0 
z
M 9.421875 75.984375 
L 18.40625 75.984375 
L 18.40625 64.59375 
L 9.421875 64.59375 
z
" id="DejaVuSans-105"/>
      <path d="M 28.609375 0 
L 0.78125 72.90625 
L 11.078125 72.90625 
L 34.1875 11.53125 
L 57.328125 72.90625 
L 67.578125 72.90625 
L 39.796875 0 
z
" id="DejaVuSans-86"/>
     </defs>
     <use xlink:href="#DejaVuSans-65"/>
     <use x="66.658203" xlink:href="#DejaVuSans-99"/>
     <use x="121.638672" xlink:href="#DejaVuSans-116"/>
     <use x="160.847656" xlink:href="#DejaVuSans-117"/>
     <use x="224.226562" xlink:href="#DejaVuSans-97"/>
     <use x="285.505859" xlink:href="#DejaVuSans-108"/>
     <use x="313.289062" xlink:href="#DejaVuSans-32"/>
     <use x="345.076172" xlink:href="#DejaVuSans-97"/>
     <use x="406.355469" xlink:href="#DejaVuSans-110"/>
     <use x="469.734375" xlink:href="#DejaVuSans-100"/>
     <use x="533.210938" xlink:href="#DejaVuSans-32"/>
     <use x="564.998047" xlink:href="#DejaVuSans-112"/>
     <use x="628.474609" xlink:href="#DejaVuSans-114"/>
     <use x="667.337891" xlink:href="#DejaVuSans-101"/>
     <use x="728.861328" xlink:href="#DejaVuSans-100"/>
     <use x="792.337891" xlink:href="#DejaVuSans-105"/>
     <use x="820.121094" xlink:href="#DejaVuSans-99"/>
     <use x="875.101562" xlink:href="#DejaVuSans-116"/>
     <use x="914.310547" xlink:href="#DejaVuSans-101"/>
     <use x="975.833984" xlink:href="#DejaVuSans-100"/>
     <use x="1039.310547" xlink:href="#DejaVuSans-32"/>
     <use x="1071.097656" xlink:href="#DejaVuSans-86"/>
     <use x="1131.755859" xlink:href="#DejaVuSans-97"/>
     <use x="1193.035156" xlink:href="#DejaVuSans-108"/>
     <use x="1220.818359" xlink:href="#DejaVuSans-117"/>
     <use x="1284.197266" xlink:href="#DejaVuSans-101"/>
     <use x="1345.720703" xlink:href="#DejaVuSans-115"/>
    </g>
   </g>
   <g id="legend_1">
    <g id="patch_7">
     <path d="M 115 89.19625 
L 197.167188 89.19625 
Q 199.167188 89.19625 199.167188 87.19625 
L 199.167188 58.84 
Q 199.167188 56.84 197.167188 56.84 
L 115 56.84 
Q 113 56.84 113 58.84 
L 113 87.19625 
Q 113 89.19625 115 89.19625 
z
" style="fill:#ffffff;opacity:0.8;stroke:#cccccc;stroke-linejoin:miter;"/>
    </g>
    <g id="line2d_22">
     <path d="M 117 64.938437 
L 137 64.938437 
" style="fill:none;stroke:#1f77b4;stroke-linecap:square;stroke-opacity:0.5;stroke-width:1.5;"/>
    </g>
    <g id="line2d_23"/>
    <g id="text_23">
     <!-- actual -->
     <g transform="translate(145 68.438437)scale(0.1 -0.1)">
      <use xlink:href="#DejaVuSans-97"/>
      <use x="61.279297" xlink:href="#DejaVuSans-99"/>
      <use x="116.259766" xlink:href="#DejaVuSans-116"/>
      <use x="155.46875" xlink:href="#DejaVuSans-117"/>
      <use x="218.847656" xlink:href="#DejaVuSans-97"/>
      <use x="280.126953" xlink:href="#DejaVuSans-108"/>
     </g>
    </g>
    <g id="line2d_24">
     <path d="M 117 79.616562 
L 137 79.616562 
" style="fill:none;stroke:#9467bd;stroke-linecap:square;stroke-width:1.5;"/>
    </g>
    <g id="line2d_25"/>
    <g id="text_24">
     <!-- prediction -->
     <g transform="translate(145 83.116562)scale(0.1 -0.1)">
      <defs>
       <path d="M 30.609375 48.390625 
Q 23.390625 48.390625 19.1875 42.75 
Q 14.984375 37.109375 14.984375 27.296875 
Q 14.984375 17.484375 19.15625 11.84375 
Q 23.34375 6.203125 30.609375 6.203125 
Q 37.796875 6.203125 41.984375 11.859375 
Q 46.1875 17.53125 46.1875 27.296875 
Q 46.1875 37.015625 41.984375 42.703125 
Q 37.796875 48.390625 30.609375 48.390625 
z
M 30.609375 56 
Q 42.328125 56 49.015625 48.375 
Q 55.71875 40.765625 55.71875 27.296875 
Q 55.71875 13.875 49.015625 6.21875 
Q 42.328125 -1.421875 30.609375 -1.421875 
Q 18.84375 -1.421875 12.171875 6.21875 
Q 5.515625 13.875 5.515625 27.296875 
Q 5.515625 40.765625 12.171875 48.375 
Q 18.84375 56 30.609375 56 
z
" id="DejaVuSans-111"/>
      </defs>
      <use xlink:href="#DejaVuSans-112"/>
      <use x="63.476562" xlink:href="#DejaVuSans-114"/>
      <use x="102.339844" xlink:href="#DejaVuSans-101"/>
      <use x="163.863281" xlink:href="#DejaVuSans-100"/>
      <use x="227.339844" xlink:href="#DejaVuSans-105"/>
      <use x="255.123047" xlink:href="#DejaVuSans-99"/>
      <use x="310.103516" xlink:href="#DejaVuSans-116"/>
      <use x="349.3125" xlink:href="#DejaVuSans-105"/>
      <use x="377.095703" xlink:href="#DejaVuSans-111"/>
      <use x="438.277344" xlink:href="#DejaVuSans-110"/>
     </g>
    </g>
   </g>
  </g>
 </g>
 <defs>
  <clipPath id="pfde4a8a28f">
   <rect height="326.16" width="669.6" x="108" y="51.84"/>
  </clipPath>
 </defs>
</svg>
